<?xml version="1.0" encoding="UTF-8"?>
<svg xmlns="http://www.w3.org/2000/svg" viewBox="0 0 1160.17 861.54">
  <defs>
    <style>
      .cls-1, .cls-2, .cls-3 {
        stroke: #000;
        stroke-miterlimit: 10;
      }

      .cls-1, .cls-3 {
        fill: none;
      }

      .cls-3 {
        stroke-width: 3px;
      }
    </style>
  </defs>
  <g id="Plazas">
    <g id="_3:00_B_Plaza" data-name="3:00 B Plaza">
      <circle class="cls-2" cx="916.5" cy="272.04" r="10.6"/>
    </g>
    <g id="_3:00_G_Plaza" data-name="3:00 G Plaza">
      <circle class="cls-2" cx="1063.8" cy="272.04" r="10.1"/>
    </g>
    <g id="_4:30_G_Plaza" data-name="4:30 G Plaza">
      <circle class="cls-2" cx="935.5" cy="585.04" r="10.4"/>
    </g>
    <g id="_4:30_B_Plaza" data-name="4:30 B Plaza">
      <circle class="cls-2" cx="830.5" cy="480.04" r="10.6"/>
    </g>
    <g id="_6:00_G_Plaza" data-name="6:00 G Plaza">
      <circle class="cls-2" cx="622" cy="715.54" r="10.7"/>
    </g>
    <g id="_7:30_G_Plaza" data-name="7:30 G Plaza">
      <circle class="cls-2" cx="308.3" cy="584.84" r="10.7"/>
    </g>
    <g id="_7:30_B_Plaza" data-name="7:30 B Plaza">
      <circle class="cls-2" cx="413.5" cy="480.04" r="10.5"/>
    </g>
    <g id="_9:00_G_Plaza" data-name="9:00 G Plaza">
      <circle class="cls-2" cx="180.2" cy="272.04" r="10.4"/>
    </g>
    <g id="_9:00_B_Plaza" data-name="9:00 B Plaza">
      <circle class="cls-2" cx="327.5" cy="272.04" r="10.2"/>
    </g>
  </g>
  <g id="_2024_Center_Camp" data-name="2024 Center Camp">
    <path id="Rod_s_Ring_Road" data-name="Rod&amp;apos;s Ring Road" class="cls-1" d="M553,530.54c10.96-37.65,39.86-53.5,68.75-53.5s59.78,16.34,69.75,53"/>
    <path class="cls-2" d="M637.85,477.48l-8.69,40.74-3.64,17.01c-.81-.2-1.66-.31-2.52-.31s-1.71.11-2.52.31l-3.63-17.01-8.69-40.74c3.88-.82,8.73-1.51,14.33-1.55,6.06-.04,11.27.69,15.36,1.55Z"/>
    <path class="cls-2" d="M627.31,525.31c-1.55-.33-3.16-.51-4.81-.51s-3.25.17-4.8.51c-10.4,2.2-18.2,11.43-18.2,22.49,0,12.71,10.29,23,23,23s23-10.29,23-23c0-11.06-7.8-20.29-18.19-22.49ZM622.5,559.91c-6.18,0-11.17-5.42-11.17-12.11,0-5.75,3.7-10.56,8.65-11.79.81-.2,1.66-.31,2.52-.31s1.71.11,2.52.31c4.96,1.23,8.65,6.04,8.65,11.79,0,6.68-5,12.11-11.17,12.11Z"/>
  </g>
  <g id="Portals">
    <g id="_9:00_Portal" data-name="9:00 Portal">
      <path class="cls-2" d="M328.5,271.04l69.09-6.51c-.06,2.11-.09,4.28-.09,6.51s.03,4.4.09,6.51l-69.09-6.51Z"/>
    </g>
    <g id="_7:30_Portal" data-name="7:30 Portal">
      <path class="cls-2" d="M413.62,479.47l44.26-53.46c1.45,1.54,2.96,3.09,4.53,4.67,1.57,1.57,3.13,3.08,4.67,4.54l-53.46,44.25Z"/>
    </g>
    <g id="_3:00_Portal" data-name="3:00 Portal">
      <path class="cls-2" d="M917.08,271.04l-69.09-6.51c.06,2.11.09,4.28.09,6.51s-.03,4.4-.09,6.51l69.09-6.51Z"/>
    </g>
    <g id="_4:30_Portal" data-name="4:30 Portal">
      <path class="cls-2" d="M830.96,479.47l-44.26-53.46c-1.45,1.54-2.96,3.09-4.53,4.67-1.57,1.57-3.13,3.08-4.67,4.54l53.46,44.25Z"/>
    </g>
  </g>
  <g id="Secondary_Radial_Roads" data-name="Secondary Radial Roads">
    <g id="_7:45" data-name="7:45">
      <line class="cls-1" x1="291.78" y1="524.43" x2="197" y2="597.16"/>
    </g>
    <g id="_7:15" data-name="7:15">
      <line class="cls-1" x1="368.45" y1="601.48" x2="296.27" y2="695.54"/>
    </g>
    <g id="_6:45" data-name="6:45">
      <line class="cls-1" x1="462.48" y1="656.15" x2="417.17" y2="765.54"/>
    </g>
    <g id="_6:15" data-name="6:15">
      <line class="cls-1" x1="567.58" y1="684.44" x2="552.16" y2="801.54"/>
    </g>
    <g id="_5:45" data-name="5:45">
      <line class="cls-1" x1="691.84" y1="801.54" x2="676.44" y2="684.57"/>
    </g>
    <g id="_5:15" data-name="5:15">
      <line class="cls-1" x1="826.83" y1="765.54" x2="781.66" y2="656.5"/>
    </g>
    <g id="_4:45" data-name="4:45">
      <line class="cls-1" x1="948" y1="695.89" x2="875.93" y2="601.96"/>
    </g>
    <g id="_4:15" data-name="4:15">
      <line class="cls-1" x1="1047" y1="597.16" x2="952.85" y2="524.91"/>
    </g>
    <g id="_3:45-9:45" data-name="3:45-9:45">
      <line class="cls-1" x1="238.35" y1="112.13" x2="126" y2="65.59"/>
      <line class="cls-1" x1="1117" y1="476.08" x2="1007.21" y2="430.6"/>
    </g>
    <g id="_3:15-9:15" data-name="3:15-9:15">
      <line class="cls-1" x1="210.14" y1="216.82" x2="90" y2="201.01"/>
      <line class="cls-1" x1="1154" y1="341.08" x2="1035.11" y2="325.42"/>
    </g>
    <g id="_2:45-8:45" data-name="2:45-8:45">
      <line class="cls-1" x1="209.88" y1="325.29" x2="90" y2="341.08"/>
      <line class="cls-1" x1="1154" y1="201.01" x2="1034.84" y2="216.69"/>
    </g>
    <g id="_2:15-8:15" data-name="2:15-8:15">
      <line class="cls-1" x1="237.64" y1="430.25" x2="127" y2="476.08"/>
      <line class="cls-1" x1="1118" y1="66.22" x2="1007" y2="112.19"/>
    </g>
  </g>
  <g id="Main_Radial_Roads" data-name="Main Radial Roads">
    <g id="_7:30" data-name="7:30">
      <line class="cls-1" x1="462.65" y1="430.39" x2="243.5" y2="649.54"/>
    </g>
    <g id="_7:00" data-name="7:00">
      <line class="cls-1" x1="509.18" y1="466.45" x2="354.4" y2="734.54"/>
    </g>
    <g id="_6:30" data-name="6:30">
      <polyline class="cls-1" points="471.57 835.31 474.15 825.65 564.01 489.36"/>
    </g>
    <g id="_6:00" data-name="6:00">
      <line class="cls-1" x1="622.5" y1="569.54" x2="622" y2="806.54"/>
      <polyline class="cls-1" points="622.21 476.04 622.35 271.04 622.5 45.04"/>
    </g>
    <g id="_5:30" data-name="5:30">
      <polyline class="cls-1" points="680.68 489.45 770.84 825.66 773.43 835.31"/>
      <polyline class="cls-1" points="622.08 270.91 622.15 271.19 622.21 271.4 622.22 271.42 622.24 271.5 622.24 271.51"/>
    </g>
    <g id="_5:00" data-name="5:00">
      <line class="cls-1" x1="889.6" y1="734.54" x2="735.07" y2="466.89"/>
      <polyline class="cls-1" points="622 271.04 622.21 271.4 622.22 271.42 622.25 271.47"/>
    </g>
    <g id="_4:30" data-name="4:30">
      <line class="cls-1" x1="1000.5" y1="649.54" x2="781.85" y2="430.89"/>
      <polyline class="cls-1" points="622 271.04 622.15 271.19 622.28 271.32"/>
    </g>
    <g id="_3:30-9:30" data-name="3:30-9:30">
      <line class="cls-1" x1="1140" y1="409.84" x2="840.1" y2="329.48"/>
      <line class="cls-1" x1="405.33" y1="212.98" x2="51.28" y2="118.12"/>
      <polyline class="cls-1" points="51.28 118.12 36.05 114.04 26.38 111.44"/>
    </g>
    <g id="_3:00-9:00" data-name="3:00-9:00">
      <line class="cls-1" x1="85.5" y1="271.04" x2="1158.5" y2="271.04"/>
    </g>
    <g id="_2:30-8:30" data-name="2:30-8:30">
      <line class="cls-1" x1="1141" y1="131.98" x2="839.6" y2="212.74"/>
      <line class="cls-1" x1="404.83" y1="329.23" x2="104" y2="409.84"/>
    </g>
  </g>
  <g id="Ring_Roads" data-name="Ring Roads">
    <g id="A">
      <path class="cls-1" d="M636.56,539.57c4.5-.27,8.8-.64,12.89-1.08,87.31-9.38,162.07-60.69,203.73-133.4,22.47-39.2,35.32-84.63,35.32-133.05,0-27.71-4.21-54.44-12.02-79.59-7.18-23.09-16.38-41.57-24.17-54.96"/>
      <path class="cls-1" d="M388.94,137.06c-23.17,39.64-36.44,85.76-36.44,134.98s12.94,94.19,35.57,133.49c41.94,72.88,117.17,124.17,204.93,133.12,4.44.45,9.13.82,14.05,1.07"/>
    </g>
    <g id="B">
      <path class="cls-1" d="M368.16,124.48c-25.22,43.37-39.66,93.78-39.66,147.56s14.11,103.03,38.79,146.06c39.41,68.7,105.76,119.98,184.64,139.4,18.99,4.1,42.29,8.62,70.57,8.54,27.15-.08,51.57-4.45,70.06-8.4,78.95-19.3,145.38-70.48,184.9-139.11,24.83-43.13,39.04-93.15,39.04-146.49,0-29.97-4.49-58.89-12.82-86.13-8-26.15-18.39-46.96-27.09-61.86"/>
    </g>
    <g id="C">
      <path class="cls-1" d="M345.21,111.23c-27.79,47.51-43.71,102.8-43.71,161.81s15.26,111.98,41.98,158.81c46.15,80.91,126.47,139.79,221.3,157,15.99,2.9,35.49,5.19,57.72,5.19,21.98,0,41.28-2.24,57.15-5.09,94.92-17.05,175.35-75.83,221.63-156.67,26.86-46.93,42.22-101.29,42.22-159.24,0-32.91-4.95-64.66-14.15-94.56-8.82-28.64-20.25-51.4-29.81-67.68"/>
    </g>
    <g id="D">
      <path class="cls-1" d="M324.97,99.55c-30.16,51.15-47.47,110.8-47.47,174.49s16.31,119.85,44.87,169.99c59.18,103.93,170.97,174.01,299.13,174.01s240.26-70.28,299.38-174.44c28.4-50.04,44.62-107.91,44.62-169.56s-17.21-123-47.22-174.06"/>
    </g>
    <g id="E">
      <path class="cls-1" d="M302.33,86.48c-31.69,54.54-49.83,117.93-49.83,185.56s17.81,129.86,48.96,184.07c63.84,111.1,183.7,185.93,321.04,185.93s256.89-74.63,320.79-185.5c31.31-54.31,49.21-117.31,49.21-184.5s-18.24-131.35-50.08-185.99"/>
    </g>
    <g id="F">
      <path class="cls-1" d="M262.48,63.47c-35.6,61.31-55.98,132.56-55.98,208.57s20.05,146.09,55.11,207.07c71.8,124.85,206.53,208.93,360.89,208.93s288.78-83.88,360.64-208.5c35.21-61.07,55.36-131.93,55.36-207.5s-20.48-147.59-56.23-209"/>
    </g>
    <g id="G">
      <path class="cls-1" d="M241.28,51.23c-38.63,65.64-60.78,142.14-60.78,223.81s20.83,153.53,57.31,217.81c75.95,133.87,219.77,224.19,384.69,224.19s308.43-90.12,384.44-223.76c36.64-64.38,57.56-138.87,57.56-218.24s-22.25-158.51-61.03-224.24"/>
    </g>
    <g id="H">
      <path class="cls-1" d="M218,37.79c-40.99,69.57-64.5,150.66-64.5,237.25s22.19,163.04,61.03,231.25c80.52,141.4,232.61,236.75,406.97,236.75s326.76-95.54,407.22-237.18c38.69-68.11,60.78-146.88,60.78-230.82s-23.42-167.35-64.25-236.82"/>
    </g>
    <g id="I">
      <path class="cls-1" d="M195.91,25.04c-42.23,72.59-66.41,156.97-66.41,247s23.85,173.25,65.54,245.51c85,147.33,244.15,246.49,426.46,246.49s341.77-99.36,426.72-246.92c41.52-72.16,65.28-155.85,65.28-245.08s-24.09-174.07-66.16-246.57"/>
    </g>
    <g id="J">
      <path class="cls-1" d="M178.04,14.72c-44.22,75.9-69.54,164.15-69.54,258.32s24.66,180.1,67.81,255.32c88.63,154.56,255.25,258.68,446.19,258.68s357.25-103.92,445.95-258.24c43.29-75.32,68.05-162.65,68.05-255.76s-25.42-182.75-69.79-258.75"/>
    </g>
  </g>
  <g id="Joined_Borders" data-name="Joined Borders">
    <line class="cls-1" x1="1086" y1="538.93" x2="817.69" y2="384.02"/>
    <path class="cls-3" d="M157,2.58l270.93,156.42c-19.35,33.22-30.43,71.84-30.43,113.05s10.75,78.67,29.56,111.55c31.5,55.08,83.6,95.55,147.66,108.78,12.33-10.28,30.21-16.48,47.53-16.48s35.28,6.23,47.63,16.56c64.06-13.11,116.21-53.47,147.81-108.43,18.97-32.97,29.81-71.21,29.81-111.98s-11.17-80.17-30.68-113.48L1087,2.57l.5-.29c45.28,78.69,71.17,169.93,71.17,267.22s-26.06,189.14-71.61,268c-92.74,160.59-266.28,268.67-465.06,268.67s-372.32-108.08-465.06-268.67c-45.55-78.86-71.61-170.38-71.61-268S111.56,79.79,157.39.75"/>
    <line class="cls-1" x1="427.06" y1="383.59" x2="158" y2="538.93"/>
  </g>
  <g id="Outposts">
    <g id="DPW">
      <path class="cls-2" d="M469.5,825.04c-9.94,0-18,8.06-18,18s8.06,18,18,18,18-8.06,18-18-8.06-18-18-18ZM469.5,851.04c-4.42,0-8-3.58-8-8s3.58-8,8-8,8,3.58,8,8-3.58,8-8,8Z"/>
    </g>
    <g id="Fire_Services_copy" data-name="Fire/Services copy">
      <path class="cls-2" d="M775.5,825.04c-9.94,0-18,8.06-18,18s8.06,18,18,18,18-8.06,18-18-8.06-18-18-18ZM775.5,851.04c-4.42,0-8-3.58-8-8s3.58-8,8-8,8,3.58,8,8-3.58,8-8,8Z"/>
    </g>
    <g id="_" data-name="??">
      <path class="cls-2" d="M18.5,92.04c-9.94,0-18,8.06-18,18s8.06,18,18,18,18-8.06,18-18-8.06-18-18-18ZM18.5,118.04c-4.42,0-8-3.58-8-8s3.58-8,8-8,8,3.58,8,8-3.58,8-8,8Z"/>
    </g>
  </g>
  <g id="The_Man" data-name="The Man">
    <circle class="cls-2" cx="622.5" cy="272.04" r="36"/>
  </g>
  <g id="The_Temple" data-name="The Temple">
    <circle class="cls-2" cx="622.5" cy="45.04" r="13"/>
  </g>
</svg>