  0
SECTION
  2
HEADER
  9
$ACADVER
  1
AC1032
  9
$ACADMAINTVER
 90
      228
  9
$DWGCODEPAGE
  3
ANSI_1252
  9
$REQUIREDVERSIONS
160
                 0
  9
$INSBASE
 10
0.0
 20
0.0
 30
0.0
  9
$EXTMIN
 10
1.000000000000000E+20
 20
1.000000000000000E+20
 30
1.000000000000000E+20
  9
$EXTMAX
 10
-1.000000000000000E+20
 20
-1.000000000000000E+20
 30
-1.000000000000000E+20
  9
$LIMMIN
 10
0.0
 20
0.0
  9
$LIMMAX
 10
12.0
 20
9.0
  9
$ORTHOMODE
 70
     0
  9
$REGENMODE
 70
     1
  9
$FILLMODE
 70
     1
  9
$QTEXTMODE
 70
     0
  9
$MIRRTEXT
 70
     0
  9
$LTSCALE
 40
1.0
  9
$ATTMODE
 70
     1
  9
$TEXTSIZE
 40
0.2
  9
$TRACEWID
 40
0.05
  9
$TEXTSTYLE
  7
Standard
  9
$CLAYER
  8
0
  9
$CELTYPE
  6
ByLayer
  9
$CECOLOR
 62
   256
  9
$CELTSCALE
 40
1.0
  9
$DISPSILH
 70
     0
  9
$DIMSCALE
 40
1.0
  9
$DIMASZ
 40
0.18
  9
$DIMEXO
 40
0.0625
  9
$DIMDLI
 40
0.38
  9
$DIMRND
 40
0.0
  9
$DIMDLE
 40
0.0
  9
$DIMEXE
 40
0.18
  9
$DIMTP
 40
0.0
  9
$DIMTM
 40
0.0
  9
$DIMTXT
 40
0.18
  9
$DIMCEN
 40
0.09
  9
$DIMTSZ
 40
0.0
  9
$DIMTOL
 70
     0
  9
$DIMLIM
 70
     0
  9
$DIMTIH
 70
     1
  9
$DIMTOH
 70
     1
  9
$DIMSE1
 70
     0
  9
$DIMSE2
 70
     0
  9
$DIMTAD
 70
     0
  9
$DIMZIN
 70
     0
  9
$DIMBLK
  1

  9
$DIMASO
 70
     1
  9
$DIMSHO
 70
     1
  9
$DIMPOST
  1

  9
$DIMAPOST
  1

  9
$DIMALT
 70
     0
  9
$DIMALTD
 70
     2
  9
$DIMALTF
 40
25.4
  9
$DIMLFAC
 40
1.0
  9
$DIMTOFL
 70
     0
  9
$DIMTVP
 40
0.0
  9
$DIMTIX
 70
     0
  9
$DIMSOXD
 70
     0
  9
$DIMSAH
 70
     0
  9
$DIMBLK1
  1

  9
$DIMBLK2
  1

  9
$DIMSTYLE
  2
Standard
  9
$DIMCLRD
 70
     0
  9
$DIMCLRE
 70
     0
  9
$DIMCLRT
 70
     0
  9
$DIMTFAC
 40
1.0
  9
$DIMGAP
 40
0.09
  9
$DIMJUST
 70
     0
  9
$DIMSD1
 70
     0
  9
$DIMSD2
 70
     0
  9
$DIMTOLJ
 70
     1
  9
$DIMTZIN
 70
     0
  9
$DIMALTZ
 70
     0
  9
$DIMALTTZ
 70
     0
  9
$DIMUPT
 70
     0
  9
$DIMDEC
 70
     4
  9
$DIMTDEC
 70
     4
  9
$DIMALTU
 70
     2
  9
$DIMALTTD
 70
     2
  9
$DIMTXSTY
  7
Standard
  9
$DIMAUNIT
 70
     0
  9
$DIMADEC
 70
     0
  9
$DIMALTRND
 40
0.0
  9
$DIMAZIN
 70
     0
  9
$DIMDSEP
 70
    46
  9
$DIMATFIT
 70
     3
  9
$DIMFRAC
 70
     0
  9
$DIMLDRBLK
  1

  9
$DIMLUNIT
 70
     2
  9
$DIMLWD
 70
    -2
  9
$DIMLWE
 70
    -2
  9
$DIMTMOVE
 70
     0
  9
$DIMFXL
 40
1.0
  9
$DIMFXLON
 70
     0
  9
$DIMJOGANG
 40
0.7853981633974483
  9
$DIMTFILL
 70
     0
  9
$DIMTFILLCLR
 70
     0
  9
$DIMARCSYM
 70
     0
  9
$DIMLTYPE
  6

  9
$DIMLTEX1
  6

  9
$DIMLTEX2
  6

  9
$DIMTXTDIRECTION
 70
     0
  9
$LUNITS
 70
     2
  9
$LUPREC
 70
     4
  9
$SKETCHINC
 40
0.1
  9
$FILLETRAD
 40
0.0
  9
$AUNITS
 70
     0
  9
$AUPREC
 70
     0
  9
$MENU
  1
.
  9
$ELEVATION
 40
0.0
  9
$PELEVATION
 40
0.0
  9
$THICKNESS
 40
0.0
  9
$LIMCHECK
 70
     0
  9
$CHAMFERA
 40
0.0
  9
$CHAMFERB
 40
0.0
  9
$CHAMFERC
 40
0.0
  9
$CHAMFERD
 40
0.0
  9
$SKPOLY
 70
     0
  9
$TDCREATE
 40
2460450.809988426
  9
$TDUCREATE
 40
2460451.018321759
  9
$TDUPDATE
 40
2460450.809988426
  9
$TDUUPDATE
 40
2460451.018321759
  9
$TDINDWG
 40
0.0000000000
  9
$TDUSRTIMER
 40
0.0000000000
  9
$USRTIMER
 70
     1
  9
$ANGBASE
 50
0.0
  9
$ANGDIR
 70
     0
  9
$PDMODE
 70
     0
  9
$PDSIZE
 40
0.0
  9
$PLINEWID
 40
0.0
  9
$SPLFRAME
 70
     0
  9
$SPLINETYPE
 70
     6
  9
$SPLINESEGS
 70
     8
  9
$HANDSEED
  5
103
  9
$SURFTAB1
 70
     6
  9
$SURFTAB2
 70
     6
  9
$SURFTYPE
 70
     6
  9
$SURFU
 70
     6
  9
$SURFV
 70
     6
  9
$UCSBASE
  2

  9
$UCSNAME
  2

  9
$UCSORG
 10
0.0
 20
0.0
 30
0.0
  9
$UCSXDIR
 10
1.0
 20
0.0
 30
0.0
  9
$UCSYDIR
 10
0.0
 20
1.0
 30
0.0
  9
$UCSORTHOREF
  2

  9
$UCSORTHOVIEW
 70
     0
  9
$UCSORGTOP
 10
0.0
 20
0.0
 30
0.0
  9
$UCSORGBOTTOM
 10
0.0
 20
0.0
 30
0.0
  9
$UCSORGLEFT
 10
0.0
 20
0.0
 30
0.0
  9
$UCSORGRIGHT
 10
0.0
 20
0.0
 30
0.0
  9
$UCSORGFRONT
 10
0.0
 20
0.0
 30
0.0
  9
$UCSORGBACK
 10
0.0
 20
0.0
 30
0.0
  9
$PUCSBASE
  2

  9
$PUCSNAME
  2

  9
$PUCSORG
 10
0.0
 20
0.0
 30
0.0
  9
$PUCSXDIR
 10
1.0
 20
0.0
 30
0.0
  9
$PUCSYDIR
 10
0.0
 20
1.0
 30
0.0
  9
$PUCSORTHOREF
  2

  9
$PUCSORTHOVIEW
 70
     0
  9
$PUCSORGTOP
 10
0.0
 20
0.0
 30
0.0
  9
$PUCSORGBOTTOM
 10
0.0
 20
0.0
 30
0.0
  9
$PUCSORGLEFT
 10
0.0
 20
0.0
 30
0.0
  9
$PUCSORGRIGHT
 10
0.0
 20
0.0
 30
0.0
  9
$PUCSORGFRONT
 10
0.0
 20
0.0
 30
0.0
  9
$PUCSORGBACK
 10
0.0
 20
0.0
 30
0.0
  9
$USERI1
 70
     0
  9
$USERI2
 70
     0
  9
$USERI3
 70
     0
  9
$USERI4
 70
     0
  9
$USERI5
 70
     0
  9
$USERR1
 40
0.0
  9
$USERR2
 40
0.0
  9
$USERR3
 40
0.0
  9
$USERR4
 40
0.0
  9
$USERR5
 40
0.0
  9
$WORLDVIEW
 70
     1
  9
$SHADEDGE
 70
     3
  9
$SHADEDIF
 70
    70
  9
$TILEMODE
 70
     1
  9
$MAXACTVP
 70
    64
  9
$PINSBASE
 10
0.0
 20
0.0
 30
0.0
  9
$PLIMCHECK
 70
     0
  9
$PEXTMIN
 10
1.000000000000000E+20
 20
1.000000000000000E+20
 30
1.000000000000000E+20
  9
$PEXTMAX
 10
-1.000000000000000E+20
 20
-1.000000000000000E+20
 30
-1.000000000000000E+20
  9
$PLIMMIN
 10
0.0
 20
0.0
  9
$PLIMMAX
 10
12.0
 20
9.0
  9
$UNITMODE
 70
     0
  9
$VISRETAIN
 70
     1
  9
$PLINEGEN
 70
     0
  9
$PSLTSCALE
 70
     1
  9
$TREEDEPTH
 70
  3020
  9
$CMLSTYLE
  2
Standard
  9
$CMLJUST
 70
     0
  9
$CMLSCALE
 40
1.0
  9
$PROXYGRAPHICS
 70
     1
  9
$MEASUREMENT
 70
     0
  9
$CELWEIGHT
370
    -1
  9
$ENDCAPS
280
     0
  9
$JOINSTYLE
280
     0
  9
$LWDISPLAY
290
     1
  9
$INSUNITS
 70
     1
  9
$HYPERLINKBASE
  1

  9
$STYLESHEET
  1

  9
$XEDIT
290
     1
  9
$CEPSNTYPE
380
     0
  9
$PSTYLEMODE
290
     1
  9
$FINGERPRINTGUID
  2
{129EFDC3-7AEB-9C4C-83F1-C9A2C95906B3}
  9
$VERSIONGUID
  2
{C6142539-682E-D942-B1F0-86DB0AB70582}
  9
$EXTNAMES
290
     1
  9
$PSVPSCALE
 40
0.0
  9
$OLESTARTUP
290
     0
  9
$SORTENTS
280
   127
  9
$INDEXCTL
280
     0
  9
$HIDETEXT
280
     1
  9
$XCLIPFRAME
280
     2
  9
$HALOGAP
280
     0
  9
$OBSCOLOR
 70
   257
  9
$OBSLTYPE
280
     0
  9
$INTERSECTIONDISPLAY
280
     0
  9
$INTERSECTIONCOLOR
 70
   257
  9
$DIMASSOC
280
     2
  9
$PROJECTNAME
  1

  9
$CAMERADISPLAY
290
     0
  9
$LENSLENGTH
 40
50.0
  9
$CAMERAHEIGHT
 40
0.0
  9
$STEPSPERSEC
 40
2.0
  9
$STEPSIZE
 40
6.0
  9
$3DDWFPREC
 40
2.0
  9
$PSOLWIDTH
 40
0.25
  9
$PSOLHEIGHT
 40
4.0
  9
$LOFTANG1
 40
1.570796326794896
  9
$LOFTANG2
 40
1.570796326794896
  9
$LOFTMAG1
 40
0.0
  9
$LOFTMAG2
 40
0.0
  9
$LOFTPARAM
 70
     7
  9
$LOFTNORMALS
280
     1
  9
$LATITUDE
 40
37.795
  9
$LONGITUDE
 40
-122.394
  9
$NORTHDIRECTION
 40
0.0
  9
$TIMEZONE
 70
 -8000
  9
$LIGHTGLYPHDISPLAY
280
     1
  9
$TILEMODELIGHTSYNCH
280
     1
  9
$CMATERIAL
347
11
  9
$SOLIDHIST
280
     0
  9
$SHOWHIST
280
     1
  9
$DWFFRAME
280
     2
  9
$DGNFRAME
280
     0
  9
$REALWORLDSCALE
290
     1
  9
$INTERFERECOLOR
 62
     1
  9
$INTERFEREOBJVS
345
33
  9
$INTERFEREVPVS
346
30
  9
$CSHADOW
280
     0
  9
$SHADOWPLANELOCATION
 40
0.0
  0
ENDSEC
  0
SECTION
  2
CLASSES
  0
CLASS
  1
ACDBDICTIONARYWDFLT
  2
AcDbDictionaryWithDefault
  3
ObjectDBX Classes
 90
        0
 91
        1
280
     0
281
     0
  0
CLASS
  1
MATERIAL
  2
AcDbMaterial
  3
ObjectDBX Classes
 90
     1153
 91
        3
280
     0
281
     0
  0
CLASS
  1
VISUALSTYLE
  2
AcDbVisualStyle
  3
ObjectDBX Classes
 90
     4095
 91
       24
280
     0
281
     0
  0
CLASS
  1
SCALE
  2
AcDbScale
  3
ObjectDBX Classes
 90
     1153
 91
       17
280
     0
281
     0
  0
CLASS
  1
TABLESTYLE
  2
AcDbTableStyle
  3
ObjectDBX Classes
 90
     4095
 91
        1
280
     0
281
     0
  0
CLASS
  1
MLEADERSTYLE
  2
AcDbMLeaderStyle
  3
ACDB_MLEADERSTYLE_CLASS
 90
     4095
 91
        1
280
     0
281
     0
  0
CLASS
  1
ACDBSECTIONVIEWSTYLE
  2
AcDbSectionViewStyle
  3
ObjectDBX Classes
 90
     1025
 91
        1
280
     0
281
     0
  0
CLASS
  1
ACDBDETAILVIEWSTYLE
  2
AcDbDetailViewStyle
  3
ObjectDBX Classes
 90
     1025
 91
        1
280
     0
281
     0
  0
CLASS
  1
DICTIONARYVAR
  2
AcDbDictionaryVar
  3
ObjectDBX Classes
 90
        0
 91
        5
280
     0
281
     0
  0
CLASS
  1
CELLSTYLEMAP
  2
AcDbCellStyleMap
  3
ObjectDBX Classes
 90
     1152
 91
        1
280
     0
281
     0
  0
ENDSEC
  0
SECTION
  2
TABLES
  0
TABLE
  2
VPORT
  5
8
330
0
100
AcDbSymbolTable
 70
     1
  0
VPORT
  5
57
330
8
100
AcDbSymbolTableRecord
100
AcDbViewportTableRecord
  2
*Active
 70
     0
 10
0.0
 20
0.0
 11
1.0
 21
1.0
 12
0.0
 22
0.0
 13
0.0
 23
0.0
 14
1.0
 24
1.0
 15
0.0
 25
0.0
 16
0.0
 26
0.0
 36
1.0
 17
14.01506944444444
 27
-7.586506222431807
 37
0.0
 40
12.20519397290577
 41
1.346618636553606
 42
50.0
 43
0.0
 44
0.0
 50
0.0
 51
0.0
 71
     0
 72
   100
 73
     1
 74
     1
 75
     0
 76
     0
 77
     0
 78
     0
281
     0
 65
     1
110
0.0
120
0.0
130
0.0
111
1.0
121
0.0
131
0.0
112
0.0
122
1.0
132
0.0
 79
     0
146
0.0
 60
     3
 61
     5
292
     1
282
     1
141
0.0
142
0.0
 63
   250
421
  3355443
  0
ENDTAB
  0
TABLE
  2
LTYPE
  5
5
330
0
100
AcDbSymbolTable
 70
     1
  0
LTYPE
  5
5B
330
5
100
AcDbSymbolTableRecord
100
AcDbLinetypeTableRecord
  2
ByBlock
 70
     0
  3

 72
    65
 73
     0
 40
0.0
  0
LTYPE
  5
5C
330
5
100
AcDbSymbolTableRecord
100
AcDbLinetypeTableRecord
  2
ByLayer
 70
     0
  3

 72
    65
 73
     0
 40
0.0
  0
LTYPE
  5
5D
330
5
100
AcDbSymbolTableRecord
100
AcDbLinetypeTableRecord
  2
Continuous
 70
     0
  3
Solid line
 72
    65
 73
     0
 40
0.0
  0
ENDTAB
  0
TABLE
  2
LAYER
  5
2
330
0
100
AcDbSymbolTable
 70
    12
  0
LAYER
  5
54
330
2
100
AcDbSymbolTableRecord
100
AcDbLayerTableRecord
  2
0
 70
     0
 62
     7
  6
Continuous
370
    -3
390
F
347
21
348
0
  0
LAYER
  5
78
330
2
100
AcDbSymbolTableRecord
100
AcDbLayerTableRecord
  2
Plazas
 70
     0
 62
     7
  6
Continuous
370
     0
390
F
347
21
348
0
  0
LAYER
  5
94
330
2
100
AcDbSymbolTableRecord
100
AcDbLayerTableRecord
  2
2022 Center Camp
 70
     1
 62
     7
  6
Continuous
370
     0
390
F
347
21
348
0
  0
LAYER
  5
9D
330
2
100
AcDbSymbolTableRecord
100
AcDbLayerTableRecord
  2
2024 Center Camp
 70
     0
 62
     7
  6
Continuous
370
     0
390
F
347
21
348
0
  0
LAYER
  5
A7
330
2
100
AcDbSymbolTableRecord
100
AcDbLayerTableRecord
  2
Portals
 70
     0
 62
     7
  6
Continuous
370
     0
390
F
347
21
348
0
  0
LAYER
  5
B0
330
2
100
AcDbSymbolTableRecord
100
AcDbLayerTableRecord
  2
Secondary Radial Roads
 70
     0
 62
     7
  6
Continuous
370
     0
390
F
347
21
348
0
  0
LAYER
  5
C1
330
2
100
AcDbSymbolTableRecord
100
AcDbLayerTableRecord
  2
Main Radial Roads
 70
     0
 62
     7
  6
Continuous
370
     0
390
F
347
21
348
0
  0
LAYER
  5
D7
330
2
100
AcDbSymbolTableRecord
100
AcDbLayerTableRecord
  2
Ring Roads
 70
     0
 62
     7
  6
Continuous
370
     0
390
F
347
21
348
0
  0
LAYER
  5
E6
330
2
100
AcDbSymbolTableRecord
100
AcDbLayerTableRecord
  2
Joined Borders
 70
     0
 62
     7
  6
Continuous
370
     0
390
F
347
21
348
0
  0
LAYER
  5
EA
330
2
100
AcDbSymbolTableRecord
100
AcDbLayerTableRecord
  2
Outposts
 70
     0
 62
     7
  6
Continuous
370
     0
390
F
347
21
348
0
  0
LAYER
  5
F4
330
2
100
AcDbSymbolTableRecord
100
AcDbLayerTableRecord
  2
The Man
 70
     0
 62
     7
  6
Continuous
370
     0
390
F
347
21
348
0
  0
LAYER
  5
F7
330
2
100
AcDbSymbolTableRecord
100
AcDbLayerTableRecord
  2
The Temple
 70
     0
 62
     7
  6
Continuous
370
     0
390
F
347
21
348
0
  0
ENDTAB
  0
TABLE
  2
STYLE
  5
3
330
0
100
AcDbSymbolTable
 70
     2
  0
STYLE
  5
55
330
3
100
AcDbSymbolTableRecord
100
AcDbTextStyleTableRecord
  2
Standard
 70
     0
 40
0.0
 41
1.0
 50
0.0
 71
     0
 42
0.2
  3
txt
  4

  0
STYLE
  5
5A
330
3
100
AcDbSymbolTableRecord
100
AcDbTextStyleTableRecord
  2
Annotative
 70
     0
 40
0.0
 41
1.0
 50
0.0
 71
     0
 42
0.2
  3
txt
  4

1001
AcadAnnotative
1000
AnnotativeData
1002
{
1070
     1
1070
     1
1002
}
  0
ENDTAB
  0
TABLE
  2
VIEW
  5
6
330
0
100
AcDbSymbolTable
 70
     0
  0
ENDTAB
  0
TABLE
  2
UCS
  5
7
330
0
100
AcDbSymbolTable
 70
     0
  0
ENDTAB
  0
TABLE
  2
APPID
  5
9
330
0
100
AcDbSymbolTable
 70
     2
  0
APPID
  5
56
330
9
100
AcDbSymbolTableRecord
100
AcDbRegAppTableRecord
  2
ACAD
 70
     0
  0
APPID
  5
5E
330
9
100
AcDbSymbolTableRecord
100
AcDbRegAppTableRecord
  2
AcadAnnotative
 70
     0
  0
ENDTAB
  0
TABLE
  2
DIMSTYLE
  5
A
330
0
100
AcDbSymbolTable
 70
     2
100
AcDbDimStyleTable
 71
     0
  0
DIMSTYLE
105
58
330
A
100
AcDbSymbolTableRecord
100
AcDbDimStyleTableRecord
  2
Standard
 70
     0
340
55
  0
DIMSTYLE
105
59
330
A
100
AcDbSymbolTableRecord
100
AcDbDimStyleTableRecord
  2
Annotative
 70
     0
340
55
1001
AcadAnnotative
1000
AnnotativeData
1002
{
1070
     1
1070
     1
1002
}
  0
ENDTAB
  0
TABLE
  2
BLOCK_RECORD
  5
1
330
0
100
AcDbSymbolTable
 70
     1
  0
BLOCK_RECORD
  5
70
330
1
100
AcDbSymbolTableRecord
100
AcDbBlockTableRecord
  2
*Model_Space
340
73
 70
     0
280
     1
281
     0
  0
BLOCK_RECORD
  5
6C
330
1
100
AcDbSymbolTableRecord
100
AcDbBlockTableRecord
  2
*Paper_Space
340
6F
 70
     0
280
     1
281
     0
  0
BLOCK_RECORD
  5
74
330
1
100
AcDbSymbolTableRecord
100
AcDbBlockTableRecord
  2
*Paper_Space0
340
77
 70
     0
280
     1
281
     0
  0
ENDTAB
  0
ENDSEC
  0
SECTION
  2
BLOCKS
  0
BLOCK
  5
71
330
70
100
AcDbEntity
  8
0
100
AcDbBlockBegin
  2
*Model_Space
 70
     0
 10
0.0
 20
0.0
 30
0.0
  3
*Model_Space
  1

  0
ENDBLK
  5
72
330
70
100
AcDbEntity
  8
0
100
AcDbBlockEnd
  0
BLOCK
  5
6D
330
6C
100
AcDbEntity
 67
     1
  8
0
100
AcDbBlockBegin
  2
*Paper_Space
 70
     0
 10
0.0
 20
0.0
 30
0.0
  3
*Paper_Space
  1

  0
ENDBLK
  5
6E
330
6C
100
AcDbEntity
 67
     1
  8
0
100
AcDbBlockEnd
  0
BLOCK
  5
75
330
74
100
AcDbEntity
 67
     1
  8
0
100
AcDbBlockBegin
  2
*Paper_Space0
 70
     0
 10
0.0
 20
0.0
 30
0.0
  3
*Paper_Space0
  1

  0
ENDBLK
  5
76
330
74
100
AcDbEntity
 67
     1
  8
0
100
AcDbBlockEnd
  0
ENDSEC
  0
SECTION
  2
ENTITIES
  0
CIRCLE
  5
79
330
70
100
AcDbEntity
  8
Plazas
 62
    18
420
        0
370
    35
100
AcDbCircle
 10
18.6875
 20
-5.381944444444443
 30
0.0
 40
0.3680555555555554
  0
CIRCLE
  5
7A
330
70
100
AcDbEntity
  8
Plazas
 62
    18
420
        0
370
    35
100
AcDbCircle
 10
18.6875
 20
-5.381944444444443
 30
0.0
 40
0.1472222222222273
  0
HATCH
  5
7B
330
70
100
AcDbEntity
  8
Plazas
 62
    18
420
        0
440
 33554687
100
AcDbHatch
 10
0.0
 20
0.0
 30
0.0
210
0.0
220
0.0
230
1.0
  2
SOLID
 70
     1
 71
     1
 91
        1
 92
        1
 93
        1
 72
     2
 10
18.6875
 20
-5.381944444444443
 40
0.1472222222222273
 50
0.0
 51
360.0
 73
     1
 97
        1
330
7A
 75
     2
 76
     1
 98
        1
 10
0.0
 20
0.0
450
        0
451
        0
460
0.0
461
0.0
452
        0
462
0.0
453
        0
470

  0
CIRCLE
  5
7C
330
70
100
AcDbEntity
  8
Plazas
 62
    18
420
        0
370
    35
100
AcDbCircle
 10
20.73333333333333
 20
-5.381944444444443
 30
0.0
 40
0.3506924485245153
  0
CIRCLE
  5
7D
330
70
100
AcDbEntity
  8
Plazas
 62
    18
420
        0
370
    35
100
AcDbCircle
 10
20.73333333333333
 20
-5.381944444444443
 30
0.0
 40
0.1402769794097891
  0
HATCH
  5
7E
330
70
100
AcDbEntity
  8
Plazas
 62
    18
420
        0
440
 33554687
100
AcDbHatch
 10
0.0
 20
0.0
 30
0.0
210
0.0
220
0.0
230
1.0
  2
SOLID
 70
     1
 71
     1
 91
        1
 92
        1
 93
        1
 72
     2
 10
20.73333333333333
 20
-5.381944444444443
 40
0.1402769794097891
 50
0.0
 51
360.0
 73
     1
 97
        1
330
7D
 75
     2
 76
     1
 98
        1
 10
0.0
 20
0.0
450
        0
451
        0
460
0.0
461
0.0
452
        0
462
0.0
453
        0
470

  0
CIRCLE
  5
7F
330
70
100
AcDbEntity
  8
Plazas
 62
    18
420
        0
370
    35
100
AcDbCircle
 10
18.95138888888889
 20
-9.729166666666666
 30
0.0
 40
0.3611111111111111
  0
CIRCLE
  5
80
330
70
100
AcDbEntity
  8
Plazas
 62
    18
420
        0
370
    35
100
AcDbCircle
 10
18.95138888888889
 20
-9.729166666666666
 30
0.0
 40
0.1444444444444394
  0
HATCH
  5
81
330
70
100
AcDbEntity
  8
Plazas
 62
    18
420
        0
440
 33554687
100
AcDbHatch
 10
0.0
 20
0.0
 30
0.0
210
0.0
220
0.0
230
1.0
  2
SOLID
 70
     1
 71
     1
 91
        1
 92
        1
 93
        1
 72
     2
 10
18.95138888888889
 20
-9.729166666666666
 40
0.1444444444444394
 50
0.0
 51
360.0
 73
     1
 97
        1
330
80
 75
     2
 76
     1
 98
        1
 10
0.0
 20
0.0
450
        0
451
        0
460
0.0
461
0.0
452
        0
462
0.0
453
        0
470

  0
CIRCLE
  5
82
330
70
100
AcDbEntity
  8
Plazas
 62
    18
420
        0
370
    35
100
AcDbCircle
 10
17.49305555555555
 20
-8.270833333333339
 30
0.0
 40
0.3680555555555587
  0
CIRCLE
  5
83
330
70
100
AcDbEntity
  8
Plazas
 62
    18
420
        0
370
    35
100
AcDbCircle
 10
17.49305555555555
 20
-8.270833333333332
 30
0.0
 40
0.1472222222222273
  0
HATCH
  5
84
330
70
100
AcDbEntity
  8
Plazas
 62
    18
420
        0
440
 33554687
100
AcDbHatch
 10
0.0
 20
0.0
 30
0.0
210
0.0
220
0.0
230
1.0
  2
SOLID
 70
     1
 71
     1
 91
        1
 92
        1
 93
        1
 72
     2
 10
17.49305555555555
 20
-8.270833333333332
 40
0.1472222222222273
 50
0.0
 51
360.0
 73
     1
 97
        1
330
83
 75
     2
 76
     1
 98
        1
 10
0.0
 20
0.0
450
        0
451
        0
460
0.0
461
0.0
452
        0
462
0.0
453
        0
470

  0
CIRCLE
  5
85
330
70
100
AcDbEntity
  8
Plazas
 62
    18
420
        0
370
    35
100
AcDbCircle
 10
14.59722222222222
 20
-11.54166666666666
 30
0.0
 40
0.3715257256008802
  0
CIRCLE
  5
86
330
70
100
AcDbEntity
  8
Plazas
 62
    18
420
        0
370
    35
100
AcDbCircle
 10
14.59722222222222
 20
-11.54166666666666
 30
0.0
 40
0.1486102902403495
  0
HATCH
  5
87
330
70
100
AcDbEntity
  8
Plazas
 62
    18
420
        0
440
 33554687
100
AcDbHatch
 10
0.0
 20
0.0
 30
0.0
210
0.0
220
0.0
230
1.0
  2
SOLID
 70
     1
 71
     1
 91
        1
 92
        1
 93
        1
 72
     2
 10
14.59722222222222
 20
-11.54166666666666
 40
0.1486102902403495
 50
0.0
 51
360.0
 73
     1
 97
        1
330
86
 75
     2
 76
     1
 98
        1
 10
0.0
 20
0.0
450
        0
451
        0
460
0.0
461
0.0
452
        0
462
0.0
453
        0
470

  0
CIRCLE
  5
88
330
70
100
AcDbEntity
  8
Plazas
 62
    18
420
        0
370
    35
100
AcDbCircle
 10
10.24027777777778
 20
-9.726388888888878
 30
0.0
 40
0.3715277777777777
  0
CIRCLE
  5
89
330
70
100
AcDbEntity
  8
Plazas
 62
    18
420
        0
370
    35
100
AcDbCircle
 10
10.24027777777778
 20
-9.726388888888871
 30
0.0
 40
0.1486111111111117
  0
HATCH
  5
8A
330
70
100
AcDbEntity
  8
Plazas
 62
    18
420
        0
440
 33554687
100
AcDbHatch
 10
0.0
 20
0.0
 30
0.0
210
0.0
220
0.0
230
1.0
  2
SOLID
 70
     1
 71
     1
 91
        1
 92
        1
 93
        1
 72
     2
 10
10.24027777777778
 20
-9.726388888888871
 40
0.1486111111111117
 50
0.0
 51
360.0
 73
     1
 97
        1
330
89
 75
     2
 76
     1
 98
        1
 10
0.0
 20
0.0
450
        0
451
        0
460
0.0
461
0.0
452
        0
462
0.0
453
        0
470

  0
CIRCLE
  5
8B
330
70
100
AcDbEntity
  8
Plazas
 62
    18
420
        0
370
    35
100
AcDbCircle
 10
11.70138888888889
 20
-8.270833333333332
 30
0.0
 40
0.3645833333333333
  0
CIRCLE
  5
8C
330
70
100
AcDbEntity
  8
Plazas
 62
    18
420
        0
370
    35
100
AcDbCircle
 10
11.70138888888889
 20
-8.270833333333332
 30
0.0
 40
0.1458333333333333
  0
HATCH
  5
8D
330
70
100
AcDbEntity
  8
Plazas
 62
    18
420
        0
440
 33554687
100
AcDbHatch
 10
0.0
 20
0.0
 30
0.0
210
0.0
220
0.0
230
1.0
  2
SOLID
 70
     1
 71
     1
 91
        1
 92
        1
 93
        1
 72
     2
 10
11.70138888888889
 20
-8.270833333333332
 40
0.1458333333333333
 50
0.0
 51
360.0
 73
     1
 97
        1
330
8C
 75
     2
 76
     1
 98
        1
 10
0.0
 20
0.0
450
        0
451
        0
460
0.0
461
0.0
452
        0
462
0.0
453
        0
470

  0
CIRCLE
  5
8E
330
70
100
AcDbEntity
  8
Plazas
 62
    18
420
        0
370
    35
100
AcDbCircle
 10
8.461111111111112
 20
-5.381944444444443
 30
0.0
 40
0.3611090559064536
  0
CIRCLE
  5
8F
330
70
100
AcDbEntity
  8
Plazas
 62
    18
420
        0
370
    35
100
AcDbCircle
 10
8.461111111111108
 20
-5.381944444444443
 30
0.0
 40
0.1444436223625745
  0
HATCH
  5
90
330
70
100
AcDbEntity
  8
Plazas
 62
    18
420
        0
440
 33554687
100
AcDbHatch
 10
0.0
 20
0.0
 30
0.0
210
0.0
220
0.0
230
1.0
  2
SOLID
 70
     1
 71
     1
 91
        1
 92
        1
 93
        1
 72
     2
 10
8.461111111111108
 20
-5.381944444444443
 40
0.1444436223625745
 50
0.0
 51
360.0
 73
     1
 97
        1
330
8F
 75
     2
 76
     1
 98
        1
 10
0.0
 20
0.0
450
        0
451
        0
460
0.0
461
0.0
452
        0
462
0.0
453
        0
470

  0
CIRCLE
  5
91
330
70
100
AcDbEntity
  8
Plazas
 62
    18
420
        0
370
    35
100
AcDbCircle
 10
10.50694444444444
 20
-5.381944444444443
 30
0.0
 40
0.3541666666666666
  0
CIRCLE
  5
92
330
70
100
AcDbEntity
  8
Plazas
 62
    18
420
        0
370
    35
100
AcDbCircle
 10
10.50694444444444
 20
-5.381944444444443
 30
0.0
 40
0.1416666666666641
  0
HATCH
  5
93
330
70
100
AcDbEntity
  8
Plazas
 62
    18
420
        0
440
 33554687
100
AcDbHatch
 10
0.0
 20
0.0
 30
0.0
210
0.0
220
0.0
230
1.0
  2
SOLID
 70
     1
 71
     1
 91
        1
 92
        1
 93
        1
 72
     2
 10
10.50694444444444
 20
-5.381944444444443
 40
0.1416666666666641
 50
0.0
 51
360.0
 73
     1
 97
        1
330
92
 75
     2
 76
     1
 98
        1
 10
0.0
 20
0.0
450
        0
451
        0
460
0.0
461
0.0
452
        0
462
0.0
453
        0
470

  0
CIRCLE
  5
95
330
70
100
AcDbEntity
  8
2022 Center Camp
 62
    18
420
        0
370
    35
100
AcDbCircle
 10
14.60069444444445
 20
-9.200694574046021
 30
0.0
 40
0.9875172315095646
  0
LWPOLYLINE
  5
96
330
70
100
AcDbEntity
  8
2022 Center Camp
 62
    18
420
        0
370
    35
100
AcDbPolyline
 90
        1
 70
     0
 43
0.0
 10
14.39459859584819
 20
-8.234780753416037
  0
HATCH
  5
97
330
70
100
AcDbEntity
  8
2022 Center Camp
 62
     1
420
 16711680
440
 33554687
100
AcDbHatch
 10
0.0
 20
0.0
 30
0.0
210
0.0
220
0.0
230
1.0
  2
SOLID
 70
     1
 71
     1
 91
        1
 92
        3
 72
     0
 73
     1
 93
        1
 10
14.39459859584819
 20
-8.234780753416037
 97
        0
 75
     2
 76
     1
 98
        1
 10
0.0
 20
0.0
450
        0
451
        0
460
0.0
461
0.0
452
        0
462
0.0
453
        0
470

  0
SPLINE
  5
98
330
70
100
AcDbEntity
  8
2022 Center Camp
 62
    18
420
        0
370
    35
100
AcDbSpline
210
0.0
220
0.0
230
1.0
 70
     9
 71
     3
 72
    29
 73
    25
 74
     0
 42
0.0000000001
 43
0.0000000001
 40
0.0
 40
0.0
 40
0.0
 40
0.0
 40
1.0
 40
1.0
 40
1.0
 40
2.0
 40
2.0
 40
2.0
 40
3.0
 40
3.0
 40
3.0
 40
4.0
 40
4.0
 40
4.0
 40
5.0
 40
5.0
 40
5.0
 40
6.0
 40
6.0
 40
6.0
 40
7.0
 40
7.0
 40
7.0
 40
8.0
 40
8.0
 40
8.0
 40
8.0
 10
14.80694440305597
 20
-8.234761199995165
 30
0.0
 10
14.80694440305597
 20
-8.234761199995165
 30
0.0
 10
14.68618604852001
 20
-8.800609228045635
 30
0.0
 10
14.68618604852001
 20
-8.800609228045635
 30
0.0
 10
14.68618604852001
 20
-8.800609228045635
 30
0.0
 10
14.63568049368291
 20
-9.036907994156813
 30
0.0
 10
14.63568049368291
 20
-9.036907994156813
 30
0.0
 10
14.62439389362834
 20
-9.034086344143183
 30
0.0
 10
14.61268538069417
 20
-9.032533876955337
 30
0.0
 10
14.60069444444444
 20
-9.032533876955337
 30
0.0
 10
14.58870350819471
 20
-9.032533876955337
 30
0.0
 10
14.57699499526054
 20
-9.034086344143183
 30
0.0
 10
14.56570839520597
 20
-9.036907994156813
 30
0.0
 10
14.56570839520597
 20
-9.036907994156813
 30
0.0
 10
14.51534405202667
 20
-8.800609228045635
 30
0.0
 10
14.51534405202667
 20
-8.800609228045635
 30
0.0
 10
14.51534405202667
 20
-8.800609228045635
 30
0.0
 10
14.39458569749068
 20
-8.234761199995165
 30
0.0
 10
14.39458569749068
 20
-8.234761199995165
 30
0.0
 10
14.44847516583195
 20
-8.223334249329557
 30
0.0
 10
14.51576768699973
 20
-8.213741328120502
 30
0.0
 10
14.5936407499336
 20
-8.213177342536457
 30
0.0
 10
14.67786144909001
 20
-8.212612495905709
 30
0.0
 10
14.7502324236543
 20
-8.222770263745511
 30
0.0
 10
14.80694440305597
 20
-8.234761199995165
 30
0.0
  0
HATCH
  5
99
330
70
100
AcDbEntity
  8
2022 Center Camp
 62
    18
420
        0
440
 33554687
100
AcDbHatch
 10
0.0
 20
0.0
 30
0.0
210
0.0
220
0.0
230
1.0
  2
SOLID
 70
     1
 71
     1
 91
        1
 92
        1
 93
        1
 72
     4
 94
        3
 73
     0
 74
     0
 95
       29
 96
       25
 40
0.0
 40
0.0
 40
0.0
 40
0.0
 40
1.0
 40
1.0
 40
1.0
 40
2.0
 40
2.0
 40
2.0
 40
3.0
 40
3.0
 40
3.0
 40
4.0
 40
4.0
 40
4.0
 40
5.0
 40
5.0
 40
5.0
 40
6.0
 40
6.0
 40
6.0
 40
7.0
 40
7.0
 40
7.0
 40
8.0
 40
8.0
 40
8.0
 40
8.0
 10
14.80694440305597
 20
-8.234761199995165
 10
14.80694440305597
 20
-8.234761199995165
 10
14.68618604852001
 20
-8.800609228045635
 10
14.68618604852001
 20
-8.800609228045635
 10
14.68618604852001
 20
-8.800609228045635
 10
14.63568049368291
 20
-9.036907994156813
 10
14.63568049368291
 20
-9.036907994156813
 10
14.62439389362834
 20
-9.034086344143183
 10
14.61268538069417
 20
-9.032533876955337
 10
14.60069444444444
 20
-9.032533876955337
 10
14.58870350819471
 20
-9.032533876955337
 10
14.57699499526054
 20
-9.034086344143183
 10
14.56570839520597
 20
-9.036907994156813
 10
14.56570839520597
 20
-9.036907994156813
 10
14.51534405202667
 20
-8.800609228045635
 10
14.51534405202667
 20
-8.800609228045635
 10
14.51534405202667
 20
-8.800609228045635
 10
14.39458569749068
 20
-8.234761199995165
 10
14.39458569749068
 20
-8.234761199995165
 10
14.44847516583195
 20
-8.223334249329557
 10
14.51576768699973
 20
-8.213741328120502
 10
14.5936407499336
 20
-8.213177342536457
 10
14.67786144909001
 20
-8.212612495905709
 10
14.7502324236543
 20
-8.222770263745511
 10
14.80694440305597
 20
-8.234761199995165
 97
        0
 97
        1
330
98
 75
     2
 76
     1
 98
        1
 10
0.0
 20
0.0
450
        0
451
        0
460
0.0
461
0.0
452
        0
462
0.0
453
        0
470

  0
SPLINE
  5
9A
330
70
100
AcDbEntity
  8
2022 Center Camp
 62
    18
420
        0
370
    35
100
AcDbSpline
210
0.0
220
0.0
230
1.0
 70
    11
 71
     3
 72
    23
 73
    19
 74
     0
 42
0.0000000001
 43
0.0000000001
 40
0.0
 40
0.0
 40
0.0
 40
0.0
 40
1.0
 40
1.0
 40
1.0
 40
2.0
 40
2.0
 40
2.0
 40
3.0
 40
3.0
 40
3.0
 40
4.0
 40
4.0
 40
4.0
 40
5.0
 40
5.0
 40
5.0
 40
6.0
 40
6.0
 40
6.0
 40
6.0
 10
14.60069444444444
 20
-9.368854410089978
 30
0.0
 10
14.51492041705362
 20
-9.368854410089978
 30
0.0
 10
14.44551316520723
 20
-9.293520573854266
 30
0.0
 10
14.44551316520723
 20
-9.200694574046034
 30
0.0
 10
14.44551316520723
 20
-9.120846269997803
 30
0.0
 10
14.49686426789695
 20
-9.053977383803031
 30
0.0
 10
14.56570839520597
 20
-9.036907994156813
 30
0.0
 10
14.57699499526054
 20
-9.034086344143183
 30
0.0
 10
14.58870350819471
 20
-9.032533876955337
 30
0.0
 10
14.60069444444444
 20
-9.032533876955337
 30
0.0
 10
14.61268538069417
 20
-9.032533876955337
 30
0.0
 10
14.62439389362834
 20
-9.034086344143183
 30
0.0
 10
14.63568049368291
 20
-9.036907994156813
 30
0.0
 10
14.70452462099193
 20
-9.053977383803031
 30
0.0
 10
14.75587572368166
 20
-9.120846269997803
 30
0.0
 10
14.75587572368166
 20
-9.200694574046034
 30
0.0
 10
14.75587572368166
 20
-9.293520573854266
 30
0.0
 10
14.68646847183527
 20
-9.368854410089978
 30
0.0
 10
14.60069444444444
 20
-9.368854410089978
 30
0.0
  0
SPLINE
  5
9B
330
70
100
AcDbEntity
  8
2022 Center Camp
 62
    18
420
        0
370
    35
100
AcDbSpline
210
0.0
220
0.0
230
1.0
 70
     9
 71
     3
 72
    23
 73
    19
 74
     0
 42
0.0000000001
 43
0.0000000001
 40
0.0
 40
0.0
 40
0.0
 40
0.0
 40
1.0
 40
1.0
 40
1.0
 40
2.0
 40
2.0
 40
2.0
 40
3.0
 40
3.0
 40
3.0
 40
4.0
 40
4.0
 40
4.0
 40
5.0
 40
5.0
 40
5.0
 40
6.0
 40
6.0
 40
6.0
 40
6.0
 10
14.68618604852001
 20
-8.800609228045635
 30
0.0
 10
14.65853439501415
 20
-8.794683504702964
 30
0.0
 10
14.63003891574903
 20
-8.791580292420626
 30
0.0
 10
14.60069444444444
 20
-8.791580292420626
 30
0.0
 10
14.57149118479749
 20
-8.791580292420626
 30
0.0
 10
14.54285449387473
 20
-8.794683504702964
 30
0.0
 10
14.51534405202667
 20
-8.800609228045635
 30
0.0
 10
14.33039811069847
 20
-8.839686110123617
 30
0.0
 10
14.19158016281904
 20
-9.003896324985841
 30
0.0
 10
14.19158016281904
 20
-9.200694574046034
 30
0.0
 10
14.19158016281904
 20
-9.426694360659716
 30
0.0
 10
14.37469379678403
 20
-9.609808855671365
 30
0.0
 10
14.60069444444444
 20
-9.609808855671365
 30
0.0
 10
14.82669509210485
 20
-9.609808855671365
 30
0.0
 10
15.00980872606985
 20
-9.426694360659716
 30
0.0
 10
15.00980872606985
 20
-9.200694574046034
 30
0.0
 10
15.00980872606985
 20
-9.004037536643483
 30
0.0
 10
14.87113198984805
 20
-8.839827321781285
 30
0.0
 10
14.68618604852001
 20
-8.800609228045635
 30
0.0
  0
HATCH
  5
9C
330
70
100
AcDbEntity
  8
2022 Center Camp
 62
    18
420
        0
440
 33554687
100
AcDbHatch
 10
0.0
 20
0.0
 30
0.0
210
0.0
220
0.0
230
1.0
  2
SOLID
 70
     1
 71
     1
 91
        2
 92
        1
 93
        1
 72
     4
 94
        3
 73
     0
 74
     0
 95
       23
 96
       19
 40
0.0
 40
0.0
 40
0.0
 40
0.0
 40
1.0
 40
1.0
 40
1.0
 40
2.0
 40
2.0
 40
2.0
 40
3.0
 40
3.0
 40
3.0
 40
4.0
 40
4.0
 40
4.0
 40
5.0
 40
5.0
 40
5.0
 40
6.0
 40
6.0
 40
6.0
 40
6.0
 10
14.60069444444444
 20
-9.368854410089978
 10
14.51492041705362
 20
-9.368854410089978
 10
14.44551316520723
 20
-9.293520573854266
 10
14.44551316520723
 20
-9.200694574046034
 10
14.44551316520723
 20
-9.120846269997803
 10
14.49686426789695
 20
-9.053977383803031
 10
14.56570839520597
 20
-9.036907994156813
 10
14.57699499526054
 20
-9.034086344143183
 10
14.58870350819471
 20
-9.032533876955337
 10
14.60069444444444
 20
-9.032533876955337
 10
14.61268538069417
 20
-9.032533876955337
 10
14.62439389362834
 20
-9.034086344143183
 10
14.63568049368291
 20
-9.036907994156813
 10
14.70452462099193
 20
-9.053977383803031
 10
14.75587572368166
 20
-9.120846269997803
 10
14.75587572368166
 20
-9.200694574046034
 10
14.75587572368166
 20
-9.293520573854266
 10
14.68646847183527
 20
-9.368854410089978
 10
14.60069444444444
 20
-9.368854410089978
 97
        0
 97
        1
330
9A
 92
        1
 93
        1
 72
     4
 94
        3
 73
     0
 74
     0
 95
       23
 96
       19
 40
0.0
 40
0.0
 40
0.0
 40
0.0
 40
1.0
 40
1.0
 40
1.0
 40
2.0
 40
2.0
 40
2.0
 40
3.0
 40
3.0
 40
3.0
 40
4.0
 40
4.0
 40
4.0
 40
5.0
 40
5.0
 40
5.0
 40
6.0
 40
6.0
 40
6.0
 40
6.0
 10
14.68618604852001
 20
-8.800609228045635
 10
14.65853439501415
 20
-8.794683504702964
 10
14.63003891574903
 20
-8.791580292420626
 10
14.60069444444444
 20
-8.791580292420626
 10
14.57149118479749
 20
-8.791580292420626
 10
14.54285449387473
 20
-8.794683504702964
 10
14.51534405202667
 20
-8.800609228045635
 10
14.33039811069847
 20
-8.839686110123617
 10
14.19158016281904
 20
-9.003896324985841
 10
14.19158016281904
 20
-9.200694574046034
 10
14.19158016281904
 20
-9.426694360659716
 10
14.37469379678403
 20
-9.609808855671365
 10
14.60069444444444
 20
-9.609808855671365
 10
14.82669509210485
 20
-9.609808855671365
 10
15.00980872606985
 20
-9.426694360659716
 10
15.00980872606985
 20
-9.200694574046034
 10
15.00980872606985
 20
-9.004037536643483
 10
14.87113198984805
 20
-8.839827321781285
 10
14.68618604852001
 20
-8.800609228045635
 97
        0
 97
        1
330
9B
 75
     2
 76
     1
 98
        1
 10
0.0
 20
0.0
450
        0
451
        0
460
0.0
461
0.0
452
        0
462
0.0
453
        0
470

  0
LWPOLYLINE
  5
9E
330
70
100
AcDbEntity
  8
2024 Center Camp
 62
    18
420
        0
370
    35
100
AcDbPolyline
 90
        1
 70
     0
 43
0.0
 10
14.61111111111111
 20
-10.18866015946504
  0
SPLINE
  5
9F
330
70
100
AcDbEntity
  8
2024 Center Camp
 62
    18
420
        0
370
    35
100
AcDbSpline
210
0.0
220
0.0
230
1.0
 70
     8
 71
     3
 72
    11
 73
     7
 74
     0
 42
0.0000000001
 43
0.0000000001
 40
0.0
 40
0.0
 40
0.0
 40
0.0
 40
1.0
 40
1.0
 40
1.0
 40
2.0
 40
2.0
 40
2.0
 40
2.0
 10
13.63888888888889
 20
-8.972222222222221
 30
0.0
 10
13.79111972951472
 20
-8.449331275720169
 30
0.0
 10
14.19245558207371
 20
-8.229166666666666
 30
0.0
 10
14.59379143463272
 20
-8.229166666666666
 30
0.0
 10
14.9812881198621
 20
-8.229166666666666
 30
0.0
 10
15.42410832670379
 20
-8.456147119341569
 30
0.0
 10
15.5625
 20
-8.965277777777776
 30
0.0
  0
LWPOLYLINE
  5
A0
330
70
100
AcDbEntity
  8
2024 Center Camp
 62
    18
420
        0
370
    35
100
AcDbPolyline
 90
        1
 70
     0
 43
0.0
 10
14.40501526251485
 20
-8.235229107325519
  0
HATCH
  5
A1
330
70
100
AcDbEntity
  8
2024 Center Camp
 62
     1
420
 16711680
440
 33554687
100
AcDbHatch
 10
0.0
 20
0.0
 30
0.0
210
0.0
220
0.0
230
1.0
  2
SOLID
 70
     1
 71
     1
 91
        1
 92
        3
 72
     0
 73
     1
 93
        1
 10
14.40501526251485
 20
-8.235229107325519
 97
        0
 75
     2
 76
     1
 98
        1
 10
0.0
 20
0.0
450
        0
451
        0
460
0.0
461
0.0
452
        0
462
0.0
453
        0
470

  0
SPLINE
  5
A2
330
70
100
AcDbEntity
  8
2024 Center Camp
 62
    18
420
        0
370
    35
100
AcDbSpline
210
0.0
220
0.0
230
1.0
 70
     9
 71
     3
 72
    29
 73
    25
 74
     0
 42
0.0000000001
 43
0.0000000001
 40
0.0
 40
0.0
 40
0.0
 40
0.0
 40
1.0
 40
1.0
 40
1.0
 40
2.0
 40
2.0
 40
2.0
 40
3.0
 40
3.0
 40
3.0
 40
4.0
 40
4.0
 40
4.0
 40
5.0
 40
5.0
 40
5.0
 40
6.0
 40
6.0
 40
6.0
 40
7.0
 40
7.0
 40
7.0
 40
8.0
 40
8.0
 40
8.0
 40
8.0
 10
14.81736106972264
 20
-8.235209553904647
 30
0.0
 10
14.81736106972264
 20
-8.235209553904647
 30
0.0
 10
14.69660271518667
 20
-8.801057581955117
 30
0.0
 10
14.69660271518667
 20
-8.801057581955117
 30
0.0
 10
14.69660271518667
 20
-8.801057581955117
 30
0.0
 10
14.64609716034957
 20
-9.037356348066294
 30
0.0
 10
14.64609716034957
 20
-9.037356348066294
 30
0.0
 10
14.63481056029501
 20
-9.034534698052665
 30
0.0
 10
14.62310204736084
 20
-9.032982230864819
 30
0.0
 10
14.61111111111111
 20
-9.032982230864819
 30
0.0
 10
14.59912017486138
 20
-9.032982230864819
 30
0.0
 10
14.58741166192721
 20
-9.034534698052665
 30
0.0
 10
14.57612506187264
 20
-9.037356348066294
 30
0.0
 10
14.57612506187264
 20
-9.037356348066294
 30
0.0
 10
14.52576071869334
 20
-8.801057581955117
 30
0.0
 10
14.52576071869334
 20
-8.801057581955117
 30
0.0
 10
14.52576071869334
 20
-8.801057581955117
 30
0.0
 10
14.40500236415735
 20
-8.235209553904647
 30
0.0
 10
14.40500236415735
 20
-8.235209553904647
 30
0.0
 10
14.45889183249861
 20
-8.223782603239037
 30
0.0
 10
14.52618435366639
 20
-8.214189682029983
 30
0.0
 10
14.60405741660027
 20
-8.213625696445937
 30
0.0
 10
14.68827811575667
 20
-8.213060849815191
 30
0.0
 10
14.76064909032096
 20
-8.223218617654993
 30
0.0
 10
14.81736106972264
 20
-8.235209553904647
 30
0.0
  0
HATCH
  5
A3
330
70
100
AcDbEntity
  8
2024 Center Camp
 62
    18
420
        0
440
 33554687
100
AcDbHatch
 10
0.0
 20
0.0
 30
0.0
210
0.0
220
0.0
230
1.0
  2
SOLID
 70
     1
 71
     1
 91
        1
 92
        1
 93
        1
 72
     4
 94
        3
 73
     0
 74
     0
 95
       29
 96
       25
 40
0.0
 40
0.0
 40
0.0
 40
0.0
 40
1.0
 40
1.0
 40
1.0
 40
2.0
 40
2.0
 40
2.0
 40
3.0
 40
3.0
 40
3.0
 40
4.0
 40
4.0
 40
4.0
 40
5.0
 40
5.0
 40
5.0
 40
6.0
 40
6.0
 40
6.0
 40
7.0
 40
7.0
 40
7.0
 40
8.0
 40
8.0
 40
8.0
 40
8.0
 10
14.81736106972264
 20
-8.235209553904647
 10
14.81736106972264
 20
-8.235209553904647
 10
14.69660271518667
 20
-8.801057581955117
 10
14.69660271518667
 20
-8.801057581955117
 10
14.69660271518667
 20
-8.801057581955117
 10
14.64609716034957
 20
-9.037356348066294
 10
14.64609716034957
 20
-9.037356348066294
 10
14.63481056029501
 20
-9.034534698052665
 10
14.62310204736084
 20
-9.032982230864819
 10
14.61111111111111
 20
-9.032982230864819
 10
14.59912017486138
 20
-9.032982230864819
 10
14.58741166192721
 20
-9.034534698052665
 10
14.57612506187264
 20
-9.037356348066294
 10
14.57612506187264
 20
-9.037356348066294
 10
14.52576071869334
 20
-8.801057581955117
 10
14.52576071869334
 20
-8.801057581955117
 10
14.52576071869334
 20
-8.801057581955117
 10
14.40500236415735
 20
-8.235209553904647
 10
14.40500236415735
 20
-8.235209553904647
 10
14.45889183249861
 20
-8.223782603239037
 10
14.52618435366639
 20
-8.214189682029983
 10
14.60405741660027
 20
-8.213625696445937
 10
14.68827811575667
 20
-8.213060849815191
 10
14.76064909032096
 20
-8.223218617654993
 10
14.81736106972264
 20
-8.235209553904647
 97
        0
 97
        1
330
A2
 75
     2
 76
     1
 98
        1
 10
0.0
 20
0.0
450
        0
451
        0
460
0.0
461
0.0
452
        0
462
0.0
453
        0
470

  0
SPLINE
  5
A4
330
70
100
AcDbEntity
  8
2024 Center Camp
 62
    18
420
        0
370
    35
100
AcDbSpline
210
0.0
220
0.0
230
1.0
 70
    11
 71
     3
 72
    23
 73
    19
 74
     0
 42
0.0000000001
 43
0.0000000001
 40
0.0
 40
0.0
 40
0.0
 40
0.0
 40
1.0
 40
1.0
 40
1.0
 40
2.0
 40
2.0
 40
2.0
 40
3.0
 40
3.0
 40
3.0
 40
4.0
 40
4.0
 40
4.0
 40
5.0
 40
5.0
 40
5.0
 40
6.0
 40
6.0
 40
6.0
 40
6.0
 10
14.61111111111111
 20
-9.369302763999458
 30
0.0
 10
14.52533708372028
 20
-9.369302763999458
 30
0.0
 10
14.45592983187389
 20
-9.293968927763746
 30
0.0
 10
14.45592983187389
 20
-9.201142927955515
 30
0.0
 10
14.45592983187389
 20
-9.121294623907285
 30
0.0
 10
14.50728093456362
 20
-9.054425737712511
 30
0.0
 10
14.57612506187264
 20
-9.037356348066294
 30
0.0
 10
14.58741166192721
 20
-9.034534698052665
 30
0.0
 10
14.59912017486138
 20
-9.032982230864819
 30
0.0
 10
14.61111111111111
 20
-9.032982230864819
 30
0.0
 10
14.62310204736084
 20
-9.032982230864819
 30
0.0
 10
14.63481056029501
 20
-9.034534698052665
 30
0.0
 10
14.64609716034957
 20
-9.037356348066294
 30
0.0
 10
14.7149412876586
 20
-9.054425737712511
 30
0.0
 10
14.76629239034832
 20
-9.121294623907285
 30
0.0
 10
14.76629239034832
 20
-9.201142927955515
 30
0.0
 10
14.76629239034832
 20
-9.293968927763746
 30
0.0
 10
14.69688513850193
 20
-9.369302763999458
 30
0.0
 10
14.61111111111111
 20
-9.369302763999458
 30
0.0
  0
SPLINE
  5
A5
330
70
100
AcDbEntity
  8
2024 Center Camp
 62
    18
420
        0
370
    35
100
AcDbSpline
210
0.0
220
0.0
230
1.0
 70
     9
 71
     3
 72
    23
 73
    19
 74
     0
 42
0.0000000001
 43
0.0000000001
 40
0.0
 40
0.0
 40
0.0
 40
0.0
 40
1.0
 40
1.0
 40
1.0
 40
2.0
 40
2.0
 40
2.0
 40
3.0
 40
3.0
 40
3.0
 40
4.0
 40
4.0
 40
4.0
 40
5.0
 40
5.0
 40
5.0
 40
6.0
 40
6.0
 40
6.0
 40
6.0
 10
14.67786463010361
 20
-8.888748453297491
 30
0.0
 10
14.65627367743127
 20
-8.884121532443966
 30
0.0
 10
14.63402384907805
 20
-8.881698483511071
 30
0.0
 10
14.61111111111111
 20
-8.881698483511071
 30
0.0
 10
14.58830863397239
 20
-8.881698483511071
 30
0.0
 10
14.56594854479095
 20
-8.884121532443966
 30
0.0
 10
14.54446785294693
 20
-8.888748453297491
 30
0.0
 10
14.40005843940821
 20
-8.919260448225713
 30
0.0
 10
14.29166666666666
 20
-9.047479000387637
 30
0.0
 10
14.29166666666666
 20
-9.201142927955515
 30
0.0
 10
14.29166666666666
 20
-9.377607988017794
 30
0.0
 10
14.43464537872665
 20
-9.520587372399884
 30
0.0
 10
14.61111111111111
 20
-9.520587372399884
 30
0.0
 10
14.78757684349557
 20
-9.520587372399884
 30
0.0
 10
14.93055555555555
 20
-9.377607988017794
 30
0.0
 10
14.93055555555555
 20
-9.201142927955515
 30
0.0
 10
14.93055555555555
 20
-9.047589261215836
 30
0.0
 10
14.82227404364221
 20
-8.919370709053964
 30
0.0
 10
14.67786463010361
 20
-8.888748453297491
 30
0.0
  0
HATCH
  5
A6
330
70
100
AcDbEntity
  8
2024 Center Camp
 62
    18
420
        0
440
 33554687
100
AcDbHatch
 10
0.0
 20
0.0
 30
0.0
210
0.0
220
0.0
230
1.0
  2
SOLID
 70
     1
 71
     1
 91
        2
 92
        1
 93
        1
 72
     4
 94
        3
 73
     0
 74
     0
 95
       23
 96
       19
 40
0.0
 40
0.0
 40
0.0
 40
0.0
 40
1.0
 40
1.0
 40
1.0
 40
2.0
 40
2.0
 40
2.0
 40
3.0
 40
3.0
 40
3.0
 40
4.0
 40
4.0
 40
4.0
 40
5.0
 40
5.0
 40
5.0
 40
6.0
 40
6.0
 40
6.0
 40
6.0
 10
14.61111111111111
 20
-9.369302763999458
 10
14.52533708372028
 20
-9.369302763999458
 10
14.45592983187389
 20
-9.293968927763746
 10
14.45592983187389
 20
-9.201142927955515
 10
14.45592983187389
 20
-9.121294623907285
 10
14.50728093456362
 20
-9.054425737712511
 10
14.57612506187264
 20
-9.037356348066294
 10
14.58741166192721
 20
-9.034534698052665
 10
14.59912017486138
 20
-9.032982230864819
 10
14.61111111111111
 20
-9.032982230864819
 10
14.62310204736084
 20
-9.032982230864819
 10
14.63481056029501
 20
-9.034534698052665
 10
14.64609716034957
 20
-9.037356348066294
 10
14.7149412876586
 20
-9.054425737712511
 10
14.76629239034832
 20
-9.121294623907285
 10
14.76629239034832
 20
-9.201142927955515
 10
14.76629239034832
 20
-9.293968927763746
 10
14.69688513850193
 20
-9.369302763999458
 10
14.61111111111111
 20
-9.369302763999458
 97
        0
 97
        1
330
A4
 92
        1
 93
        1
 72
     4
 94
        3
 73
     0
 74
     0
 95
       23
 96
       19
 40
0.0
 40
0.0
 40
0.0
 40
0.0
 40
1.0
 40
1.0
 40
1.0
 40
2.0
 40
2.0
 40
2.0
 40
3.0
 40
3.0
 40
3.0
 40
4.0
 40
4.0
 40
4.0
 40
5.0
 40
5.0
 40
5.0
 40
6.0
 40
6.0
 40
6.0
 40
6.0
 10
14.67786463010361
 20
-8.888748453297491
 10
14.65627367743127
 20
-8.884121532443966
 10
14.63402384907805
 20
-8.881698483511071
 10
14.61111111111111
 20
-8.881698483511071
 10
14.58830863397239
 20
-8.881698483511071
 10
14.56594854479095
 20
-8.884121532443966
 10
14.54446785294693
 20
-8.888748453297491
 10
14.40005843940821
 20
-8.919260448225713
 10
14.29166666666666
 20
-9.047479000387637
 10
14.29166666666666
 20
-9.201142927955515
 10
14.29166666666666
 20
-9.377607988017794
 10
14.43464537872665
 20
-9.520587372399884
 10
14.61111111111111
 20
-9.520587372399884
 10
14.78757684349557
 20
-9.520587372399884
 10
14.93055555555555
 20
-9.377607988017794
 10
14.93055555555555
 20
-9.201142927955515
 10
14.93055555555555
 20
-9.047589261215836
 10
14.82227404364221
 20
-8.919370709053964
 10
14.67786463010361
 20
-8.888748453297491
 97
        0
 97
        1
330
A5
 75
     2
 76
     1
 98
        1
 10
0.0
 20
0.0
450
        0
451
        0
460
0.0
461
0.0
452
        0
462
0.0
453
        0
470

  0
SPLINE
  5
A8
330
70
100
AcDbEntity
  8
Portals
 62
    18
420
        0
370
    35
100
AcDbSpline
210
0.0
220
0.0
230
1.0
 70
    11
 71
     3
 72
    17
 73
    13
 74
     0
 42
0.0000000001
 43
0.0000000001
 40
0.0
 40
0.0
 40
0.0
 40
0.0
 40
1.0
 40
1.0
 40
1.0
 40
2.0
 40
2.0
 40
2.0
 40
3.0
 40
3.0
 40
3.0
 40
4.0
 40
4.0
 40
4.0
 40
4.0
 10
10.52083333333333
 20
-5.368055555555555
 30
0.0
 10
10.52083333333333
 20
-5.368055555555555
 30
0.0
 10
11.48045857747395
 20
-5.277704874674491
 30
0.0
 10
11.48045857747395
 20
-5.277704874674491
 30
0.0
 10
11.47961934407552
 20
-5.307064904106987
 30
0.0
 10
11.47916666666666
 20
-5.337193383110894
 30
0.0
 10
11.47916666666666
 20
-5.368055555555555
 30
0.0
 10
11.47916666666666
 20
-5.398944854736328
 30
0.0
 10
11.47961849636502
 20
-5.429099612765841
 30
0.0
 10
11.48045857747395
 20
-5.458484225802963
 30
0.0
 10
11.48045857747395
 20
-5.458484225802963
 30
0.0
 10
10.52083333333333
 20
-5.368055555555555
 30
0.0
 10
10.52083333333333
 20
-5.368055555555555
 30
0.0
  0
HATCH
  5
A9
330
70
100
AcDbEntity
  8
Portals
 62
    18
420
        0
440
 33554687
100
AcDbHatch
 10
0.0
 20
0.0
 30
0.0
210
0.0
220
0.0
230
1.0
  2
SOLID
 70
     1
 71
     1
 91
        1
 92
        1
 93
        1
 72
     4
 94
        3
 73
     0
 74
     0
 95
       17
 96
       13
 40
0.0
 40
0.0
 40
0.0
 40
0.0
 40
1.0
 40
1.0
 40
1.0
 40
2.0
 40
2.0
 40
2.0
 40
3.0
 40
3.0
 40
3.0
 40
4.0
 40
4.0
 40
4.0
 40
4.0
 10
10.52083333333333
 20
-5.368055555555555
 10
10.52083333333333
 20
-5.368055555555555
 10
11.48045857747395
 20
-5.277704874674491
 10
11.48045857747395
 20
-5.277704874674491
 10
11.47961934407552
 20
-5.307064904106987
 10
11.47916666666666
 20
-5.337193383110894
 10
11.47916666666666
 20
-5.368055555555555
 10
11.47916666666666
 20
-5.398944854736328
 10
11.47961849636502
 20
-5.429099612765841
 10
11.48045857747395
 20
-5.458484225802963
 10
11.48045857747395
 20
-5.458484225802963
 10
10.52083333333333
 20
-5.368055555555555
 10
10.52083333333333
 20
-5.368055555555555
 97
        0
 97
        1
330
A8
 75
     2
 76
     1
 98
        1
 10
0.0
 20
0.0
450
        0
451
        0
460
0.0
461
0.0
452
        0
462
0.0
453
        0
470

  0
SPLINE
  5
AA
330
70
100
AcDbEntity
  8
Portals
 62
    18
420
        0
370
    35
100
AcDbSpline
210
0.0
220
0.0
230
1.0
 70
    11
 71
     3
 72
    17
 73
    13
 74
     0
 42
0.0000000001
 43
0.0000000001
 40
0.0
 40
0.0
 40
0.0
 40
0.0
 40
1.0
 40
1.0
 40
1.0
 40
2.0
 40
2.0
 40
2.0
 40
3.0
 40
3.0
 40
3.0
 40
4.0
 40
4.0
 40
4.0
 40
4.0
 10
11.70300632052951
 20
-8.262901306152343
 30
0.0
 10
11.70300632052951
 20
-8.262901306152343
 30
0.0
 10
12.3176761203342
 20
-7.520456102159287
 30
0.0
 10
12.3176761203342
 20
-7.520456102159287
 30
0.0
 10
12.3378431532118
 20
-7.541809929741752
 30
0.0
 10
12.35882737901476
 20
-7.563434176974825
 30
0.0
 10
12.38064999050564
 20
-7.585257636176215
 30
0.0
 10
12.4024920993381
 20
-7.60709974500868
 30
0.0
 10
12.42413414849175
 20
-7.628102620442708
 30
0.0
 10
12.44550662570529
 20
-7.648286607530381
 30
0.0
 10
12.44550662570529
 20
-7.648286607530381
 30
0.0
 10
11.70300632052951
 20
-8.262901306152343
 30
0.0
 10
11.70300632052951
 20
-8.262901306152343
 30
0.0
  0
HATCH
  5
AB
330
70
100
AcDbEntity
  8
Portals
 62
    18
420
        0
440
 33554687
100
AcDbHatch
 10
0.0
 20
0.0
 30
0.0
210
0.0
220
0.0
230
1.0
  2
SOLID
 70
     1
 71
     1
 91
        1
 92
        1
 93
        1
 72
     4
 94
        3
 73
     0
 74
     0
 95
       17
 96
       13
 40
0.0
 40
0.0
 40
0.0
 40
0.0
 40
1.0
 40
1.0
 40
1.0
 40
2.0
 40
2.0
 40
2.0
 40
3.0
 40
3.0
 40
3.0
 40
4.0
 40
4.0
 40
4.0
 40
4.0
 10
11.70300632052951
 20
-8.262901306152343
 10
11.70300632052951
 20
-8.262901306152343
 10
12.3176761203342
 20
-7.520456102159287
 10
12.3176761203342
 20
-7.520456102159287
 10
12.3378431532118
 20
-7.541809929741752
 10
12.35882737901476
 20
-7.563434176974825
 10
12.38064999050564
 20
-7.585257636176215
 10
12.4024920993381
 20
-7.60709974500868
 10
12.42413414849175
 20
-7.628102620442708
 10
12.44550662570529
 20
-7.648286607530381
 10
12.44550662570529
 20
-7.648286607530381
 10
11.70300632052951
 20
-8.262901306152343
 10
11.70300632052951
 20
-8.262901306152343
 97
        0
 97
        1
330
AA
 75
     2
 76
     1
 98
        1
 10
0.0
 20
0.0
450
        0
451
        0
460
0.0
461
0.0
452
        0
462
0.0
453
        0
470

  0
SPLINE
  5
AC
330
70
100
AcDbEntity
  8
Portals
 62
    18
420
        0
370
    35
100
AcDbSpline
210
0.0
220
0.0
230
1.0
 70
    11
 71
     3
 72
    17
 73
    13
 74
     0
 42
0.0000000001
 43
0.0000000001
 40
0.0
 40
0.0
 40
0.0
 40
0.0
 40
1.0
 40
1.0
 40
1.0
 40
2.0
 40
2.0
 40
2.0
 40
3.0
 40
3.0
 40
3.0
 40
4.0
 40
4.0
 40
4.0
 40
4.0
 10
18.69550662576792
 20
-5.368055555599071
 30
0.0
 10
18.69550662576792
 20
-5.368055555599071
 30
0.0
 10
17.73588138163139
 20
-5.277704874674908
 30
0.0
 10
17.73588138163139
 20
-5.277704874674908
 30
0.0
 10
17.73672061502846
 20
-5.307064904107455
 30
0.0
 10
17.73717329243598
 20
-5.337193383111386
 30
0.0
 10
17.73717329243459
 20
-5.36805555555606
 30
0.0
 10
17.7371732924332
 20
-5.39894485473682
 30
0.0
 10
17.73672146273348
 20
-5.429099612766308
 30
0.0
 10
17.73588138162318
 20
-5.45848422580338
 30
0.0
 10
17.73588138162318
 20
-5.45848422580338
 30
0.0
 10
18.69550662576792
 20
-5.368055555599071
 30
0.0
 10
18.69550662576792
 20
-5.368055555599071
 30
0.0
  0
HATCH
  5
AD
330
70
100
AcDbEntity
  8
Portals
 62
    18
420
        0
440
 33554687
100
AcDbHatch
 10
0.0
 20
0.0
 30
0.0
210
0.0
220
0.0
230
1.0
  2
SOLID
 70
     1
 71
     1
 91
        1
 92
        1
 93
        1
 72
     4
 94
        3
 73
     0
 74
     0
 95
       17
 96
       13
 40
0.0
 40
0.0
 40
0.0
 40
0.0
 40
1.0
 40
1.0
 40
1.0
 40
2.0
 40
2.0
 40
2.0
 40
3.0
 40
3.0
 40
3.0
 40
4.0
 40
4.0
 40
4.0
 40
4.0
 10
18.69550662576792
 20
-5.368055555599071
 10
18.69550662576792
 20
-5.368055555599071
 10
17.73588138163139
 20
-5.277704874674908
 10
17.73588138163139
 20
-5.277704874674908
 10
17.73672061502846
 20
-5.307064904107455
 10
17.73717329243598
 20
-5.337193383111386
 10
17.73717329243459
 20
-5.36805555555606
 10
17.7371732924332
 20
-5.39894485473682
 10
17.73672146273348
 20
-5.429099612766308
 10
17.73588138162318
 20
-5.45848422580338
 10
17.73588138162318
 20
-5.45848422580338
 10
18.69550662576792
 20
-5.368055555599071
 10
18.69550662576792
 20
-5.368055555599071
 97
        0
 97
        1
330
AC
 75
     2
 76
     1
 98
        1
 10
0.0
 20
0.0
450
        0
451
        0
460
0.0
461
0.0
452
        0
462
0.0
453
        0
470

  0
SPLINE
  5
AE
330
70
100
AcDbEntity
  8
Portals
 62
    18
420
        0
370
    35
100
AcDbSpline
210
0.0
220
0.0
230
1.0
 70
    11
 71
     3
 72
    17
 73
    13
 74
     0
 42
0.0000000001
 43
0.0000000001
 40
0.0
 40
0.0
 40
0.0
 40
0.0
 40
1.0
 40
1.0
 40
1.0
 40
2.0
 40
2.0
 40
2.0
 40
3.0
 40
3.0
 40
3.0
 40
4.0
 40
4.0
 40
4.0
 40
4.0
 10
17.49944474955348
 20
-8.262901306142161
 30
0.0
 10
17.49944474955348
 20
-8.262901306142161
 30
0.0
 10
16.88477494978221
 20
-7.520456102121518
 30
0.0
 10
16.88477494978221
 20
-7.520456102121518
 30
0.0
 10
16.8646079169036
 20
-7.541809929703074
 30
0.0
 10
16.84362369109971
 20
-7.563434176935212
 30
0.0
 10
16.82180107960776
 20
-7.585257636135615
 30
0.0
 10
16.79995897077429
 20
-7.607099744967095
 30
0.0
 10
16.77831692161971
 20
-7.628102620400138
 30
0.0
 10
16.75694444440528
 20
-7.648286607486852
 30
0.0
 10
16.75694444440528
 20
-7.648286607486852
 30
0.0
 10
17.49944474955348
 20
-8.262901306142161
 30
0.0
 10
17.49944474955348
 20
-8.262901306142161
 30
0.0
  0
HATCH
  5
AF
330
70
100
AcDbEntity
  8
Portals
 62
    18
420
        0
440
 33554687
100
AcDbHatch
 10
0.0
 20
0.0
 30
0.0
210
0.0
220
0.0
230
1.0
  2
SOLID
 70
     1
 71
     1
 91
        1
 92
        1
 93
        1
 72
     4
 94
        3
 73
     0
 74
     0
 95
       17
 96
       13
 40
0.0
 40
0.0
 40
0.0
 40
0.0
 40
1.0
 40
1.0
 40
1.0
 40
2.0
 40
2.0
 40
2.0
 40
3.0
 40
3.0
 40
3.0
 40
4.0
 40
4.0
 40
4.0
 40
4.0
 10
17.49944474955348
 20
-8.262901306142161
 10
17.49944474955348
 20
-8.262901306142161
 10
16.88477494978221
 20
-7.520456102121518
 10
16.88477494978221
 20
-7.520456102121518
 10
16.8646079169036
 20
-7.541809929703074
 10
16.84362369109971
 20
-7.563434176935212
 10
16.82180107960776
 20
-7.585257636135615
 10
16.79995897077429
 20
-7.607099744967095
 10
16.77831692161971
 20
-7.628102620400138
 10
16.75694444440528
 20
-7.648286607486852
 10
16.75694444440528
 20
-7.648286607486852
 10
17.49944474955348
 20
-8.262901306142161
 10
17.49944474955348
 20
-8.262901306142161
 97
        0
 97
        1
330
AE
 75
     2
 76
     1
 98
        1
 10
0.0
 20
0.0
450
        0
451
        0
460
0.0
461
0.0
452
        0
462
0.0
453
        0
470

  0
LINE
  5
B1
330
70
100
AcDbEntity
  8
Secondary Radial Roads
 62
    18
420
        0
370
    35
100
AcDbLine
 10
10.01083333333333
 20
-8.887361111111102
 30
0.0
 11
8.694444444444444
 21
-9.897432487573269
 31
0.0
  0
LINE
  5
B2
330
70
100
AcDbEntity
  8
Secondary Radial Roads
 62
    18
420
        0
370
    35
100
AcDbLine
 10
11.07569444444444
 20
-9.957500000000006
 30
0.0
 11
10.07316776364718
 21
-11.26388888888889
 31
0.0
  0
LINE
  5
B3
330
70
100
AcDbEntity
  8
Secondary Radial Roads
 62
    18
420
        0
370
    35
100
AcDbLine
 10
12.38166666666668
 20
-10.71680555555556
 30
0.0
 11
11.75236937131693
 21
-12.23611111111111
 31
0.0
  0
LINE
  5
B4
330
70
100
AcDbEntity
  8
Secondary Radial Roads
 62
    18
420
        0
370
    35
100
AcDbLine
 10
13.84138888888889
 20
-11.10972222222222
 30
0.0
 11
13.62724841404997
 21
-12.73611111111111
 31
0.0
  0
LINE
  5
B5
330
70
100
AcDbEntity
  8
Secondary Radial Roads
 62
    18
420
        0
370
    35
100
AcDbLine
 10
15.56719404313235
 20
-12.73611111111111
 30
0.0
 11
15.35333333333334
 21
-11.11152777777778
 31
0.0
  0
LINE
  5
B6
330
70
100
AcDbEntity
  8
Secondary Radial Roads
 62
    18
420
        0
370
    35
100
AcDbLine
 10
17.44207860685333
 20
-12.23611111111111
 30
0.0
 11
16.81472222222222
 21
-10.72166666666668
 31
0.0
  0
LINE
  5
B7
330
70
100
AcDbEntity
  8
Secondary Radial Roads
 62
    18
420
        0
370
    35
100
AcDbLine
 10
19.125
 20
-11.26875200994004
 30
0.0
 11
18.12402777777778
 21
-9.964166666666667
 31
0.0
  0
LINE
  5
B8
330
70
100
AcDbEntity
  8
Secondary Radial Roads
 62
    18
420
        0
370
    35
100
AcDbLine
 10
20.5
 20
-9.897435092831274
 30
0.0
 11
19.19236111111111
 21
-8.894027777777788
 31
0.0
  0
LINE
  5
B9
330
70
100
AcDbEntity
  8
Secondary Radial Roads
 62
    18
420
        0
370
    35
100
AcDbLine
 10
9.268750000000004
 20
-3.160972222222223
 30
0.0
 11
7.708333333333333
 21
-2.514568804876502
 31
0.0
  0
LINE
  5
BA
330
70
100
AcDbEntity
  8
Secondary Radial Roads
 62
    18
420
        0
370
    35
100
AcDbLine
 10
21.47222222222222
 20
-8.215785901669152
 30
0.0
 11
19.94736111111109
 21
-7.584166666666659
 31
0.0
  0
LINE
  5
BB
330
70
100
AcDbEntity
  8
Secondary Radial Roads
 62
    18
420
        0
370
    35
100
AcDbLine
 10
8.876944444444449
 20
-4.614999999999995
 30
0.0
 11
7.208333333333333
 21
-4.395341088812263
 31
0.0
  0
LINE
  5
BC
330
70
100
AcDbEntity
  8
Secondary Radial Roads
 62
    18
420
        0
370
    35
100
AcDbLine
 10
21.98611111111111
 20
-6.340773995768535
 30
0.0
 11
20.33486111111112
 21
-6.123333333333334
 31
0.0
  0
LINE
  5
BD
330
70
100
AcDbEntity
  8
Secondary Radial Roads
 62
    18
420
        0
370
    35
100
AcDbLine
 10
8.873333333333334
 20
-6.121527777777777
 30
0.0
 11
7.208333333333333
 21
-6.340773679417136
 31
0.0
  0
LINE
  5
BE
330
70
100
AcDbEntity
  8
Secondary Radial Roads
 62
    18
420
        0
370
    35
100
AcDbLine
 10
21.98611111111111
 20
-4.395341951801975
 30
0.0
 11
20.33111111111111
 21
-4.613194444444464
 31
0.0
  0
LINE
  5
BF
330
70
100
AcDbEntity
  8
Secondary Radial Roads
 62
    18
420
        0
370
    35
100
AcDbLine
 10
9.258888888888892
 20
-7.579305555555568
 30
0.0
 11
7.722222222222221
 21
-8.215784298917848
 31
0.0
  0
LINE
  5
C0
330
70
100
AcDbEntity
  8
Secondary Radial Roads
 62
    18
420
        0
370
    35
100
AcDbLine
 10
21.48611111111111
 20
-2.523285116006806
 30
0.0
 11
19.94444444444444
 21
-3.161805191149305
 31
0.0
  0
LINE
  5
C2
330
70
100
AcDbEntity
  8
Main Radial Roads
 62
    18
420
        0
370
    35
100
AcDbLine
 10
12.38402777777781
 20
-7.581250000000004
 30
0.0
 11
9.340277777777776
 21
-10.625
 31
0.0
  0
LINE
  5
C3
330
70
100
AcDbEntity
  8
Main Radial Roads
 62
    18
420
        0
370
    35
100
AcDbLine
 10
13.03027777777778
 20
-8.082083333333331
 30
0.0
 11
10.8805261732852
 21
-11.80555555555555
 31
0.0
  0
LWPOLYLINE
  5
C4
330
70
100
AcDbEntity
  8
Main Radial Roads
 62
    18
420
        0
370
    35
100
AcDbPolyline
 90
        3
 70
     0
 43
0.0
 10
12.50791666666667
 20
-13.20513888888889
 10
12.54375000000003
 20
-13.07097222222223
 10
13.79180555555556
 20
-8.400277777777773
  0
LINE
  5
C5
330
70
100
AcDbEntity
  8
Main Radial Roads
 62
    18
420
        0
370
    35
100
AcDbLine
 10
14.60416666666666
 20
-9.513888888888887
 30
0.0
 11
14.59722222222222
 21
-12.80555555555555
 31
0.0
  0
LWPOLYLINE
  5
C6
330
70
100
AcDbEntity
  8
Main Radial Roads
 62
    18
420
        0
370
    35
100
AcDbPolyline
 90
        3
 70
     0
 43
0.0
 10
14.60013888888888
 20
-8.215277777777776
 10
14.60208333333334
 20
-5.368055555555555
 10
14.60416666666666
 20
-2.229166666666666
  0
LWPOLYLINE
  5
C7
330
70
100
AcDbEntity
  8
Main Radial Roads
 62
    18
420
        0
370
    35
100
AcDbPolyline
 90
        3
 70
     0
 43
0.0
 10
15.41222222222222
 20
-8.401527777777776
 10
16.66444444444444
 20
-13.07111111111112
 10
16.70041666666667
 20
-13.20513888888889
  0
LWPOLYLINE
  5
C8
330
70
100
AcDbEntity
  8
Main Radial Roads
 62
    18
420
        0
370
    35
100
AcDbPolyline
 90
        6
 70
     0
 43
0.0
 10
14.59833333333333
 20
-5.366249999999998
 10
14.59930555555555
 20
-5.370138888888909
 10
14.60013888888888
 20
-5.373055555555563
 10
14.60027777777777
 20
-5.373333333333334
 10
14.60055555555555
 20
-5.374444444444444
 10
14.60055555555555
 20
-5.374583333333336
  0
LINE
  5
C9
330
70
100
AcDbEntity
  8
Main Radial Roads
 62
    18
420
        0
370
    35
100
AcDbLine
 10
18.31391932485763
 20
-11.80555555555555
 30
0.0
 11
16.16763888888888
 21
-8.088194444444448
 31
0.0
  0
LWPOLYLINE
  5
CA
330
70
100
AcDbEntity
  8
Main Radial Roads
 62
    18
420
        0
370
    35
100
AcDbPolyline
 90
        4
 70
     0
 43
0.0
 10
14.59722222222222
 20
-5.368055555555555
 10
14.60013888888888
 20
-5.373055555555563
 10
14.60027777777777
 20
-5.373333333333334
 10
14.60069444444444
 20
-5.374027777777781
  0
LINE
  5
CB
330
70
100
AcDbEntity
  8
Main Radial Roads
 62
    18
420
        0
370
    35
100
AcDbLine
 10
19.85416666666666
 20
-10.625
 30
0.0
 11
16.81736111111111
 21
-7.588194444444448
 31
0.0
  0
LWPOLYLINE
  5
CC
330
70
100
AcDbEntity
  8
Main Radial Roads
 62
    18
420
        0
370
    35
100
AcDbPolyline
 90
        3
 70
     0
 43
0.0
 10
14.59722222222222
 20
-5.368055555555555
 10
14.59930555555555
 20
-5.370138888888909
 10
14.60111111111112
 20
-5.37194444444444
  0
LINE
  5
CD
330
70
100
AcDbEntity
  8
Main Radial Roads
 62
     1
420
 16711680
370
    35
100
AcDbLine
 10
21.04166666666666
 20
-9.088761465320859
 30
0.0
 11
17.31513888888889
 21
-6.93722222222224
 31
0.0
  0
LINE
  5
CE
330
70
100
AcDbEntity
  8
Main Radial Roads
 62
     1
420
 16711680
370
   106
100
AcDbLine
 10
11.90180555555556
 20
-3.811805555555552
 30
0.0
 11
8.138888888888889
 21
-1.639332588713702
 31
0.0
  0
LINE
  5
CF
330
70
100
AcDbEntity
  8
Main Radial Roads
 62
    18
420
        0
370
    35
100
AcDbLine
 10
21.79166666666667
 20
-7.295725880980512
 30
0.0
 11
17.62638888888889
 21
-6.179722222222241
 31
0.0
  0
LINE
  5
D0
330
70
100
AcDbEntity
  8
Main Radial Roads
 62
    18
420
        0
370
    35
100
AcDbLine
 10
11.58791666666666
 20
-4.561666666666686
 30
0.0
 11
6.670555555555552
 21
-3.244166666666665
 31
0.0
  0
LWPOLYLINE
  5
D1
330
70
100
AcDbEntity
  8
Main Radial Roads
 62
    18
420
        0
370
    35
100
AcDbPolyline
 90
        3
 70
     0
 43
0.0
 10
6.670555555555552
 20
-3.244166666666665
 10
6.459027777777779
 20
-3.1875
 10
6.324722222222223
 20
-3.151388888888909
  0
LINE
  5
D2
330
70
100
AcDbEntity
  8
Main Radial Roads
 62
    18
420
        0
370
    35
100
AcDbLine
 10
7.145833333333333
 20
-5.368055555555542
 30
0.0
 11
22.04861111111111
 21
-5.368055555555542
 31
0.0
  0
LINE
  5
D3
330
70
100
AcDbEntity
  8
Main Radial Roads
 62
    18
420
        0
370
    35
100
AcDbLine
 10
21.80555555555555
 20
-3.436661826871449
 30
0.0
 11
17.61944444444444
 21
-4.55833333333333
 31
0.0
  0
LINE
  5
D4
330
70
100
AcDbEntity
  8
Main Radial Roads
 62
    18
420
        0
370
    35
100
AcDbLine
 10
11.58097222222222
 20
-6.176250000000019
 30
0.0
 11
7.402777777777777
 21
-7.29572613559565
 31
0.0
  0
LINE
  5
D5
330
70
100
AcDbEntity
  8
Main Radial Roads
 62
     1
420
 16711680
370
   106
100
AcDbLine
 10
21.05555555555556
 20
-1.639331570233315
 30
0.0
 11
17.30305555555555
 21
-3.805833333333339
 31
0.0
  0
LINE
  5
D6
330
70
100
AcDbEntity
  8
Main Radial Roads
 62
     1
420
 16711680
370
    35
100
AcDbLine
 10
11.88972222222222
 20
-6.931250000000002
 30
0.0
 11
8.152777777777776
 21
-9.088760600274806
 31
0.0
  0
SPLINE
  5
D8
330
70
100
AcDbEntity
  8
Ring Roads
 62
     1
420
 16711680
370
   106
100
AcDbSpline
210
0.0
220
0.0
230
1.0
 70
     8
 71
     3
 72
    14
 73
    10
 74
     0
 42
0.0000000001
 43
0.0000000001
 40
0.0
 40
0.0
 40
0.0
 40
0.0
 40
1.0
 40
1.0
 40
1.0
 40
2.0
 40
2.0
 40
2.0
 40
3.0
 40
3.0
 40
3.0
 40
3.0
 10
17.30305555555555
 20
-3.805833333333339
 30
0.0
 10
17.57402777777777
 20
-4.268472222222221
 30
0.0
 10
17.72916666666666
 20
-4.80708333333334
 30
0.0
 10
17.72916666666666
 20
-5.381944444444443
 30
0.0
 10
17.72916666666666
 20
-5.94819444444445
 30
0.0
 10
17.57861111111111
 20
-6.479305555555558
 30
0.0
 10
17.31513888888889
 20
-6.93722222222224
 30
0.0
 10
16.87569444444443
 20
-7.701666666666672
 30
0.0
 10
16.12208333333334
 20
-8.262638888888886
 30
0.0
 10
15.23069444444445
 20
-8.444027777777767
 30
0.0
  0
SPLINE
  5
D9
330
70
100
AcDbEntity
  8
Ring Roads
 62
     1
420
 16711680
370
   106
100
AcDbSpline
210
0.0
220
0.0
230
1.0
 70
     8
 71
     3
 72
    14
 73
    10
 74
     0
 42
0.0000000001
 43
0.0000000001
 40
0.0
 40
0.0
 40
0.0
 40
0.0
 40
1.0
 40
1.0
 40
1.0
 40
2.0
 40
2.0
 40
2.0
 40
3.0
 40
3.0
 40
3.0
 40
3.0
 10
11.90180555555556
 20
-3.811805555555552
 30
0.0
 10
11.63305555555555
 20
-4.273194444444444
 30
0.0
 10
11.47916666666666
 20
-4.809583333333332
 30
0.0
 10
11.47916666666666
 20
-5.381944444444443
 30
0.0
 10
11.47916666666666
 20
-5.945694444444446
 30
0.0
 10
11.62847222222222
 20
-6.474583333333334
 30
0.0
 10
11.88972222222222
 20
-6.931250000000002
 30
0.0
 10
12.32875
 20
-7.698888888888884
 30
0.0
 10
13.08388888888889
 20
-8.262222222222236
 30
0.0
 10
13.97763888888888
 20
-8.444027777777767
 30
0.0
  0
SPLINE
  5
DA
330
70
100
AcDbEntity
  8
Ring Roads
 62
    18
420
        0
370
    35
100
AcDbSpline
210
0.0
220
0.0
230
1.0
 70
     8
 71
     3
 72
    20
 73
    16
 74
     0
 42
0.0000000001
 43
0.0000000001
 40
0.0
 40
0.0
 40
0.0
 40
0.0
 40
1.0
 40
1.0
 40
1.0
 40
2.0
 40
2.0
 40
2.0
 40
3.0
 40
3.0
 40
3.0
 40
4.0
 40
4.0
 40
4.0
 40
5.0
 40
5.0
 40
5.0
 40
5.0
 10
14.79946339468572
 20
-9.097613339982217
 30
0.0
 10
14.86191425984442
 20
-9.093889877122515
 30
0.0
 10
14.92165032962212
 20
-9.088762922028156
 30
0.0
 10
14.97847154405382
 20
-9.082639058430988
 30
0.0
 10
16.19111124674479
 20
-8.95236121283637
 30
0.0
 10
17.2294447157118
 20
-8.239722357855901
 30
0.0
 10
17.8080563015408
 20
-7.229860941569009
 30
0.0
 10
18.12013922797309
 20
-6.685416751437716
 30
0.0
 10
18.29861111111111
 20
-6.054444630940754
 30
0.0
 10
18.29861111111111
 20
-5.381944444444443
 30
0.0
 10
18.29861111111111
 20
-4.997050815158419
 30
0.0
 10
18.24015638563368
 20
-4.625773111979166
 30
0.0
 10
18.13163926866319
 20
-4.276532914903429
 30
0.0
 10
18.03197394476996
 20
-3.955780029296875
 30
0.0
 10
17.90419006347656
 20
-3.699192470974391
 30
0.0
 10
17.7959730360243
 20
-3.513194402058918
 30
0.0
  0
SPLINE
  5
DB
330
70
100
AcDbEntity
  8
Ring Roads
 62
    18
420
        0
370
    35
100
AcDbSpline
210
0.0
220
0.0
230
1.0
 70
     8
 71
     3
 72
    17
 73
    13
 74
     0
 42
0.0000000001
 43
0.0000000001
 40
0.0
 40
0.0
 40
0.0
 40
0.0
 40
1.0
 40
1.0
 40
1.0
 40
2.0
 40
2.0
 40
2.0
 40
3.0
 40
3.0
 40
3.0
 40
4.0
 40
4.0
 40
4.0
 40
4.0
 10
11.36027781168619
 20
-3.507222281561957
 30
0.0
 10
11.03847249348958
 20
-4.057777828640407
 30
0.0
 10
10.85416666666666
 20
-4.698333316379122
 30
0.0
 10
10.85416666666666
 20
-5.381944444444443
 30
0.0
 10
10.85416666666666
 20
-6.056944529215494
 30
0.0
 10
11.03388892279731
 20
-6.690138922797308
 30
0.0
 10
11.3481945461697
 20
-7.235972086588541
 30
0.0
 10
11.93069458007812
 20
-8.248194376627603
 30
0.0
 10
12.97555541992187
 20
-8.960555182562933
 30
0.0
 10
14.19444444444444
 20
-9.084860907660589
 30
0.0
 10
14.25609161828227
 20
-9.091151340452091
 30
0.0
 10
14.32123771388635
 20
-9.096258582436751
 30
0.0
 10
14.38961421933881
 20
-9.099652815307813
 30
0.0
  0
SPLINE
  5
DC
330
70
100
AcDbEntity
  8
Ring Roads
 62
    18
420
        0
370
    35
100
AcDbSpline
210
0.0
220
0.0
230
1.0
 70
     8
 71
     3
 72
    32
 73
    28
 74
     0
 42
0.0000000001
 43
0.0000000001
 40
0.0
 40
0.0
 40
0.0
 40
0.0
 40
1.0
 40
1.0
 40
1.0
 40
2.0
 40
2.0
 40
2.0
 40
3.0
 40
3.0
 40
3.0
 40
4.0
 40
4.0
 40
4.0
 40
5.0
 40
5.0
 40
5.0
 40
6.0
 40
6.0
 40
6.0
 40
7.0
 40
7.0
 40
7.0
 40
8.0
 40
8.0
 40
8.0
 40
9.0
 40
9.0
 40
9.0
 40
9.0
 10
11.07166629367404
 20
-3.33250003390842
 30
0.0
 10
10.72138892279731
 20
-3.93486107720269
 30
0.0
 10
10.52083333333333
 20
-4.635000016954209
 30
0.0
 10
10.52083333333333
 20
-5.381944444444443
 30
0.0
 10
10.52083333333333
 20
-6.120277828640407
 30
0.0
 10
10.71680535210503
 20
-6.812916649712455
 30
0.0
 10
11.05958302815755
 20
-7.410555521647134
 30
0.0
 10
11.60694461398654
 20
-8.364722357855901
 30
0.0
 10
12.52847205268012
 20
-9.076944139268663
 30
0.0
 10
13.62402767605251
 20
-9.346666971842447
 30
0.0
 10
13.88783518473307
 20
-9.403629726833766
 30
0.0
 10
14.21145290798611
 20
-9.452479044596353
 30
0.0
 10
14.60416666666666
 20
-9.451388888888887
 30
0.0
 10
14.98123677571614
 20
-9.4503419664171
 30
0.0
 10
15.32036675347222
 20
-9.403539021809894
 30
0.0
 10
15.5772230360243
 20
-9.348610772026908
 30
0.0
 10
16.67375013563368
 20
-9.080555386013454
 30
0.0
 10
17.5963880750868
 20
-8.369722154405382
 30
0.0
 10
18.14527723524305
 20
-7.416527642144096
 30
0.0
 10
18.49013943142361
 20
-6.817499796549478
 30
0.0
 10
18.6875
 20
-6.122777726915146
 30
0.0
 10
18.6875
 20
-5.381944444444443
 30
0.0
 10
18.6875
 20
-4.965685950385199
 30
0.0
 10
18.62520005967882
 20
-4.563995361328125
 30
0.0
 10
18.50943162706163
 20
-4.185653686523437
 30
0.0
 10
18.39829338921441
 20
-3.822444491916232
 30
0.0
 10
18.25396219889323
 20
-3.533455318874782
 30
0.0
 10
18.13319396972656
 20
-3.326527701483832
 30
0.0
  0
SPLINE
  5
DD
330
70
100
AcDbEntity
  8
Ring Roads
 62
    18
420
        0
370
    35
100
AcDbSpline
210
0.0
220
0.0
230
1.0
 70
     8
 71
     3
 72
    32
 73
    28
 74
     0
 42
0.0000000001
 43
0.0000000001
 40
0.0
 40
0.0
 40
0.0
 40
0.0
 40
1.0
 40
1.0
 40
1.0
 40
2.0
 40
2.0
 40
2.0
 40
3.0
 40
3.0
 40
3.0
 40
4.0
 40
4.0
 40
4.0
 40
5.0
 40
5.0
 40
5.0
 40
6.0
 40
6.0
 40
6.0
 40
7.0
 40
7.0
 40
7.0
 40
8.0
 40
8.0
 40
8.0
 40
9.0
 40
9.0
 40
9.0
 40
9.0
 10
10.75291697184244
 20
-3.148472256130641
 30
0.0
 10
10.3669442070855
 20
-3.808333502875433
 30
0.0
 10
10.14583333333333
 20
-4.576249864366318
 30
0.0
 10
10.14583333333333
 20
-5.395833333333333
 30
0.0
 10
10.14583333333333
 20
-6.198194291856553
 30
0.0
 10
10.35777791341145
 20
-6.951111263699001
 30
0.0
 10
10.72888861762153
 20
-7.601527743869357
 30
0.0
 10
11.36986117892795
 20
-8.725277370876735
 30
0.0
 10
12.48541683620876
 20
-9.543055216471353
 30
0.0
 10
13.80250040690104
 20
-9.782083299424913
 30
0.0
 10
14.02460055881076
 20
-9.82235378689236
 30
0.0
 10
14.29542711046007
 20
-9.854174296061197
 30
0.0
 10
14.60416666666666
 20
-9.854166666666666
 30
0.0
 10
14.90944756401909
 20
-9.854159037272134
 30
0.0
 10
15.17753431532118
 20
-9.823035346137151
 30
0.0
 10
15.39791700575087
 20
-9.7834718492296
 30
0.0
 10
16.71624925401475
 20
-9.546666463216144
 30
0.0
 10
17.83333333333333
 20
-8.730278015136718
 30
0.0
 10
18.47611151801215
 20
-7.607499864366318
 30
0.0
 10
18.84916687011719
 20
-6.955694410536024
 30
0.0
 10
19.0625
 20
-6.200694613986544
 30
0.0
 10
19.0625
 20
-5.395833333333333
 30
0.0
 10
19.0625
 20
-4.938723246256509
 30
0.0
 10
18.99370829264323
 20
-4.497716267903645
 30
0.0
 10
18.86591254340277
 20
-4.08255386352539
 30
0.0
 10
18.7434811062283
 20
-3.684820810953775
 30
0.0
 10
18.58465406629774
 20
-3.368636873033311
 30
0.0
 10
18.45194498697916
 20
-3.142499923706054
 30
0.0
  0
SPLINE
  5
DE
330
70
100
AcDbEntity
  8
Ring Roads
 62
    18
420
        0
370
    35
100
AcDbSpline
210
0.0
220
0.0
230
1.0
 70
     8
 71
     3
 72
    23
 73
    19
 74
     0
 42
0.0000000001
 43
0.0000000001
 40
0.0
 40
0.0
 40
0.0
 40
0.0
 40
1.0
 40
1.0
 40
1.0
 40
2.0
 40
2.0
 40
2.0
 40
3.0
 40
3.0
 40
3.0
 40
4.0
 40
4.0
 40
4.0
 40
5.0
 40
5.0
 40
5.0
 40
6.0
 40
6.0
 40
6.0
 40
6.0
 10
10.47180555555556
 20
-2.986250000000002
 30
0.0
 10
10.05291666666667
 20
-3.696666666666664
 30
0.0
 10
9.8125
 20
-4.525138888888894
 30
0.0
 10
9.8125
 20
-5.409722222222222
 30
0.0
 10
9.8125
 20
-6.268472222222221
 30
0.0
 10
10.03902777777778
 20
-7.07430555555556
 30
0.0
 10
10.43569444444444
 20
-7.770694444444441
 30
0.0
 10
11.25763888888889
 20
-9.214166666666667
 30
0.0
 10
12.81027777777778
 20
-10.1875
 30
0.0
 10
14.59027777777778
 20
-10.1875
 30
0.0
 10
16.37277777777778
 20
-10.1875
 30
0.0
 10
17.92722222222222
 20
-9.211388888888878
 30
0.0
 10
18.74833333333334
 20
-7.764722222222214
 30
0.0
 10
19.14277777777778
 20
-7.069722222222227
 30
0.0
 10
19.36805555555555
 20
-6.265972222222242
 30
0.0
 10
19.36805555555555
 20
-5.409722222222222
 30
0.0
 10
19.36805555555555
 20
-4.527638888888885
 30
0.0
 10
19.12902777777779
 20
-3.701388888888888
 30
0.0
 10
18.71222222222223
 20
-2.992222222222241
 30
0.0
  0
SPLINE
  5
DF
330
70
100
AcDbEntity
  8
Ring Roads
 62
    18
420
        0
370
    35
100
AcDbSpline
210
0.0
220
0.0
230
1.0
 70
     8
 71
     3
 72
    23
 73
    19
 74
     0
 42
0.0000000001
 43
0.0000000001
 40
0.0
 40
0.0
 40
0.0
 40
0.0
 40
1.0
 40
1.0
 40
1.0
 40
2.0
 40
2.0
 40
2.0
 40
3.0
 40
3.0
 40
3.0
 40
4.0
 40
4.0
 40
4.0
 40
5.0
 40
5.0
 40
5.0
 40
6.0
 40
6.0
 40
6.0
 40
6.0
 10
10.15736111111111
 20
-2.804722222222241
 30
0.0
 10
9.717222222222225
 20
-3.562222222222215
 30
0.0
 10
9.465277777777776
 20
-4.442638888888887
 30
0.0
 10
9.465277777777776
 20
-5.381944444444443
 30
0.0
 10
9.465277777777776
 20
-6.312638888888891
 30
0.0
 10
9.712638888888893
 20
-7.185555555555563
 30
0.0
 10
10.14527777777778
 20
-7.938472222222217
 30
0.0
 10
11.03194444444445
 20
-9.481527777777777
 30
0.0
 10
12.69666666666666
 20
-10.52083333333333
 30
0.0
 10
14.60416666666666
 20
-10.52083333333333
 30
0.0
 10
16.50916666666666
 20
-10.52083333333333
 30
0.0
 10
18.17208333333332
 20
-9.484305555555566
 30
0.0
 10
19.05958333333334
 20
-7.944444444444443
 30
0.0
 10
19.49444444444445
 20
-7.190138888888895
 30
0.0
 10
19.74305555555555
 20
-6.315138888888908
 30
0.0
 10
19.74305555555555
 20
-5.381944444444443
 30
0.0
 10
19.74305555555555
 20
-4.440138888888908
 30
0.0
 10
19.48972222222222
 20
-3.557638888888909
 30
0.0
 10
19.0475
 20
-2.798750000000002
 30
0.0
  0
SPLINE
  5
E0
330
70
100
AcDbEntity
  8
Ring Roads
 62
    18
420
        0
370
    35
100
AcDbSpline
210
0.0
220
0.0
230
1.0
 70
     8
 71
     3
 72
    23
 73
    19
 74
     0
 42
0.0000000001
 43
0.0000000001
 40
0.0
 40
0.0
 40
0.0
 40
0.0
 40
1.0
 40
1.0
 40
1.0
 40
2.0
 40
2.0
 40
2.0
 40
3.0
 40
3.0
 40
3.0
 40
4.0
 40
4.0
 40
4.0
 40
5.0
 40
5.0
 40
5.0
 40
6.0
 40
6.0
 40
6.0
 40
6.0
 10
9.603888888888906
 20
-2.485138888888892
 30
0.0
 10
9.109444444444445
 20
-3.336666666666663
 30
0.0
 10
8.826388888888889
 20
-4.326249999999996
 30
0.0
 10
8.826388888888889
 20
-5.381944444444443
 30
0.0
 10
8.826388888888889
 20
-6.429027777777782
 30
0.0
 10
9.104861111111112
 20
-7.410972222222223
 30
0.0
 10
9.591805555555563
 20
-8.257916666666663
 30
0.0
 10
10.58902777777777
 20
-9.991944444444444
 30
0.0
 10
12.46027777777778
 20
-11.15972222222222
 30
0.0
 10
14.60416666666666
 20
-11.15972222222222
 30
0.0
 10
16.74569444444445
 20
-11.15972222222222
 30
0.0
 10
18.61500000000001
 20
-9.994722222222232
 30
0.0
 10
19.61305555555554
 20
-8.263888888888889
 30
0.0
 10
20.10208333333334
 20
-7.415694444444447
 30
0.0
 10
20.38194444444444
 20
-6.431527777777786
 30
0.0
 10
20.38194444444444
 20
-5.381944444444443
 30
0.0
 10
20.38194444444444
 20
-4.323750000000005
 30
0.0
 10
20.0975
 20
-3.332083333333331
 30
0.0
 10
19.60097222222223
 20
-2.479166666666666
 30
0.0
  0
SPLINE
  5
E1
330
70
100
AcDbEntity
  8
Ring Roads
 62
    18
420
        0
370
    35
100
AcDbSpline
210
0.0
220
0.0
230
1.0
 70
     8
 71
     3
 72
    23
 73
    19
 74
     0
 42
0.0000000001
 43
0.0000000001
 40
0.0
 40
0.0
 40
0.0
 40
0.0
 40
1.0
 40
1.0
 40
1.0
 40
2.0
 40
2.0
 40
2.0
 40
3.0
 40
3.0
 40
3.0
 40
4.0
 40
4.0
 40
4.0
 40
5.0
 40
5.0
 40
5.0
 40
6.0
 40
6.0
 40
6.0
 40
6.0
 10
9.309444444444439
 20
-2.315138888888908
 30
0.0
 10
8.772916666666699
 20
-3.226805555555554
 30
0.0
 10
8.465277777777776
 20
-4.289305555555554
 30
0.0
 10
8.465277777777776
 20
-5.42361111111111
 30
0.0
 10
8.465277777777776
 20
-6.523611111111108
 30
0.0
 10
8.754583333333332
 20
-7.55597222222223
 30
0.0
 10
9.261250000000005
 20
-8.448749999999993
 30
0.0
 10
10.31611111111111
 20
-10.30805555555556
 30
0.0
 10
12.31361111111111
 20
-11.5625
 30
0.0
 10
14.60416666666666
 20
-11.5625
 30
0.0
 10
16.89222222222222
 20
-11.5625
 30
0.0
 10
18.88791666666667
 20
-10.31083333333334
 30
0.0
 10
19.94361111111112
 20
-8.454722222222219
 30
0.0
 10
20.4525
 20
-7.560555555555563
 30
0.0
 10
20.74305555555556
 20
-6.52597222222222
 30
0.0
 10
20.74305555555556
 20
-5.42361111111111
 30
0.0
 10
20.74305555555556
 20
-4.286805555555575
 30
0.0
 10
20.43402777777778
 20
-3.22208333333333
 30
0.0
 10
19.89541666666665
 20
-2.309166666666669
 30
0.0
  0
SPLINE
  5
E2
330
70
100
AcDbEntity
  8
Ring Roads
 62
    18
420
        0
370
    35
100
AcDbSpline
210
0.0
220
0.0
230
1.0
 70
     8
 71
     3
 72
    23
 73
    19
 74
     0
 42
0.0000000001
 43
0.0000000001
 40
0.0
 40
0.0
 40
0.0
 40
0.0
 40
1.0
 40
1.0
 40
1.0
 40
2.0
 40
2.0
 40
2.0
 40
3.0
 40
3.0
 40
3.0
 40
4.0
 40
4.0
 40
4.0
 40
5.0
 40
5.0
 40
5.0
 40
6.0
 40
6.0
 40
6.0
 40
6.0
 10
8.98611111111111
 20
-2.128472222222222
 30
0.0
 10
8.416805555555558
 20
-3.09472222222223
 30
0.0
 10
8.090277777777776
 20
-4.220972222222219
 30
0.0
 10
8.090277777777776
 20
-5.42361111111111
 30
0.0
 10
8.090277777777776
 20
-6.591805555555563
 30
0.0
 10
8.398472222222228
 20
-7.688055555555567
 30
0.0
 10
8.937916666666662
 20
-8.635416666666666
 30
0.0
 10
10.05625
 20
-10.59930555555555
 30
0.0
 10
12.16861111111111
 20
-11.92361111111111
 30
0.0
 10
14.59027777777778
 20
-11.92361111111111
 30
0.0
 10
17.01444444444446
 20
-11.92361111111111
 30
0.0
 10
19.12861111111111
 20
-10.59666666666668
 30
0.0
 10
20.2461111111111
 20
-8.629444444444439
 30
0.0
 10
20.78347222222222
 20
-7.683472222222235
 30
0.0
 10
21.09027777777777
 20
-6.589444444444463
 30
0.0
 10
21.09027777777777
 20
-5.42361111111111
 30
0.0
 10
21.09027777777777
 20
-4.223472222222223
 30
0.0
 10
20.765
 20
-3.099305555555575
 30
0.0
 10
20.19791666666666
 20
-2.134444444444448
 30
0.0
  0
SPLINE
  5
E3
330
70
100
AcDbEntity
  8
Ring Roads
 62
    18
420
        0
370
    35
100
AcDbSpline
210
0.0
220
0.0
230
1.0
 70
     8
 71
     3
 72
    23
 73
    19
 74
     0
 42
0.0000000001
 43
0.0000000001
 40
0.0
 40
0.0
 40
0.0
 40
0.0
 40
1.0
 40
1.0
 40
1.0
 40
2.0
 40
2.0
 40
2.0
 40
3.0
 40
3.0
 40
3.0
 40
4.0
 40
4.0
 40
4.0
 40
5.0
 40
5.0
 40
5.0
 40
6.0
 40
6.0
 40
6.0
 40
6.0
 10
8.679305555555552
 20
-1.951388888888888
 30
0.0
 10
8.092777777777781
 20
-2.959583333333334
 30
0.0
 10
7.756944444444443
 20
-4.131527777777781
 30
0.0
 10
7.756944444444443
 20
-5.381944444444443
 30
0.0
 10
7.756944444444443
 20
-6.623749999999997
 30
0.0
 10
8.088194444444448
 20
-7.788194444444443
 30
0.0
 10
8.667222222222221
 20
-8.791805555555558
 30
0.0
 10
9.847777777777777
 20
-10.83805555555556
 30
0.0
 10
12.05819444444445
 20
-12.21527777777777
 30
0.0
 10
14.59027777777778
 20
-12.21527777777777
 30
0.0
 10
17.12486111111111
 20
-12.21527777777777
 30
0.0
 10
19.33708333333334
 20
-10.83527777777777
 30
0.0
 10
20.51694444444443
 20
-8.785833333333332
 30
0.0
 10
21.09361111111111
 20
-7.783611111111111
 30
0.0
 10
21.42361111111111
 20
-6.621250000000018
 30
0.0
 10
21.42361111111111
 20
-5.381944444444443
 30
0.0
 10
21.42361111111111
 20
-4.134027777777797
 30
0.0
 10
21.08902777777778
 20
-2.964305555555559
 30
0.0
 10
20.50472222222222
 20
-1.957361111111115
 30
0.0
  0
SPLINE
  5
E4
330
70
100
AcDbEntity
  8
Ring Roads
 62
    18
420
        0
370
    35
100
AcDbSpline
210
0.0
220
0.0
230
1.0
 70
     8
 71
     3
 72
    23
 73
    19
 74
     0
 42
0.0000000001
 43
0.0000000001
 40
0.0
 40
0.0
 40
0.0
 40
0.0
 40
1.0
 40
1.0
 40
1.0
 40
2.0
 40
2.0
 40
2.0
 40
3.0
 40
3.0
 40
3.0
 40
4.0
 40
4.0
 40
4.0
 40
5.0
 40
5.0
 40
5.0
 40
6.0
 40
6.0
 40
6.0
 40
6.0
 10
8.431111111111111
 20
-1.808055555555559
 30
0.0
 10
7.816944444444439
 20
-2.862222222222221
 30
0.0
 10
7.465277777777777
 20
-4.087916666666665
 30
0.0
 10
7.465277777777777
 20
-5.395833333333333
 30
0.0
 10
7.465277777777777
 20
-6.686527777777781
 30
0.0
 10
7.807777777777775
 20
-7.897222222222226
 30
0.0
 10
8.407083333333337
 20
-8.941944444444439
 30
0.0
 10
9.638055555555562
 20
-11.08861111111112
 30
0.0
 10
11.95222222222223
 20
-12.53472222222222
 30
0.0
 10
14.60416666666666
 20
-12.53472222222222
 30
0.0
 10
17.25361111111111
 20
-12.53472222222222
 30
0.0
 10
19.56597222222222
 20
-11.09138888888889
 30
0.0
 10
20.79791666666668
 20
-8.948055555555557
 30
0.0
 10
21.39916666666666
 20
-7.901944444444451
 30
0.0
 10
21.74305555555555
 20
-6.689027777777785
 30
0.0
 10
21.74305555555555
 20
-5.395833333333333
 30
0.0
 10
21.74305555555555
 20
-4.085416666666686
 30
0.0
 10
21.39
 20
-2.857638888888888
 30
0.0
 10
20.77374999999999
 20
-1.802083333333333
 30
0.0
  0
SPLINE
  5
E5
330
70
100
AcDbEntity
  8
Ring Roads
 62
     1
420
 16711680
370
   106
100
AcDbSpline
210
0.0
220
0.0
230
1.0
 70
     8
 71
     3
 72
    23
 73
    19
 74
     0
 42
0.0000000001
 43
0.0000000001
 40
0.0
 40
0.0
 40
0.0
 40
0.0
 40
1.0
 40
1.0
 40
1.0
 40
2.0
 40
2.0
 40
2.0
 40
3.0
 40
3.0
 40
3.0
 40
4.0
 40
4.0
 40
4.0
 40
5.0
 40
5.0
 40
5.0
 40
6.0
 40
6.0
 40
6.0
 40
6.0
 10
8.144263329128534
 20
-1.614018485230733
 30
0.0
 10
7.50776808314937
 20
-2.711701290339533
 30
0.0
 10
7.143472222222207
 20
-3.986666285609165
 30
0.0
 10
7.143472222222207
 20
-5.346675959213698
 30
0.0
 10
7.143472222222207
 20
-6.702454554294123
 30
0.0
 10
7.505370471985694
 20
-7.973611578892031
 30
0.0
 10
8.138057747293183
 20
-9.068896772837154
 30
0.0
 10
9.426139085987591
 20
-11.29938033480498
 30
0.0
 10
11.83644348523072
 20
-12.8004259592137
 30
0.0
 10
14.59722222222222
 20
-12.8004259592137
 30
0.0
 10
17.35800095921374
 20
-12.8004259592137
 30
0.0
 10
19.7683053584568
 20
-11.29938033480498
 30
0.0
 10
21.05638669715126
 20
-9.068896772837154
 30
0.0
 10
21.68907397245875
 20
-7.973611578892031
 30
0.0
 10
22.05097222222222
 20
-6.702454554294123
 30
0.0
 10
22.05097222222222
 20
-5.346675959213698
 30
0.0
 10
22.05097222222222
 20
-3.986666285609165
 30
0.0
 10
21.68667636129501
 20
-2.711701290339533
 30
0.0
 10
21.05018111531583
 20
-1.614018485230733
 30
0.0
  0
LINE
  5
E7
330
70
100
AcDbEntity
  8
Joined Borders
 62
    18
420
        0
370
    35
100
AcDbLine
 10
21.04166666666666
 20
-9.088761465320859
 30
0.0
 11
17.31513888888889
 21
-6.93722222222224
 31
0.0
  0
SPLINE
  5
E8
330
70
100
AcDbEntity
  8
Joined Borders
 62
    18
420
        0
370
   106
100
AcDbSpline
210
0.0
220
0.0
230
1.0
 70
     8
 71
     3
 72
    56
 73
    52
 74
     0
 42
0.0000000001
 43
0.0000000001
 40
0.0
 40
0.0
 40
0.0
 40
0.0
 40
1.0
 40
1.0
 40
1.0
 40
2.0
 40
2.0
 40
2.0
 40
3.0
 40
3.0
 40
3.0
 40
4.0
 40
4.0
 40
4.0
 40
5.0
 40
5.0
 40
5.0
 40
6.0
 40
6.0
 40
6.0
 40
7.0
 40
7.0
 40
7.0
 40
8.0
 40
8.0
 40
8.0
 40
9.0
 40
9.0
 40
9.0
 40
10.0
 40
10.0
 40
10.0
 40
11.0
 40
11.0
 40
11.0
 40
12.0
 40
12.0
 40
12.0
 40
13.0
 40
13.0
 40
13.0
 40
14.0
 40
14.0
 40
14.0
 40
15.0
 40
15.0
 40
15.0
 40
16.0
 40
16.0
 40
16.0
 40
17.0
 40
17.0
 40
17.0
 40
17.0
 10
8.138888888888889
 20
-1.639332588713702
 30
0.0
 10
8.138888888888889
 20
-1.639332588713702
 30
0.0
 10
11.90180555555556
 20
-3.811805555555552
 30
0.0
 10
11.90180555555556
 20
-3.811805555555552
 30
0.0
 10
11.63305555555555
 20
-4.273194444444444
 30
0.0
 10
11.47916666666666
 20
-4.809583333333332
 30
0.0
 10
11.47916666666666
 20
-5.381944444444443
 30
0.0
 10
11.47916666666666
 20
-5.945694444444446
 30
0.0
 10
11.62847222222222
 20
-6.474583333333334
 30
0.0
 10
11.88972222222222
 20
-6.931250000000002
 30
0.0
 10
12.32722499522151
 20
-7.696222422134471
 30
0.0
 10
13.05086883163566
 20
-8.258306173181836
 30
0.0
 10
13.9405525588275
 20
-8.442119418107646
 30
0.0
 10
14.11180555555554
 20
-8.299305555555545
 30
0.0
 10
14.36013888888889
 20
-8.213194444444448
 30
0.0
 10
14.60069444444444
 20
-8.213194444444448
 30
0.0
 10
14.84195106453055
 20
-8.213194444444448
 30
0.0
 10
15.0907065717257
 20
-8.299726971065309
 30
0.0
 10
15.26223634267416
 20
-8.443206255538445
 30
0.0
 10
16.151952194945
 20
-8.261081487902957
 30
0.0
 10
16.87630429550098
 20
-7.700605787963947
 30
0.0
 10
17.31513888888889
 20
-6.93722222222224
 30
0.0
 10
17.57861111111111
 20
-6.479305555555558
 30
0.0
 10
17.72916666666666
 20
-5.94819444444445
 30
0.0
 10
17.72916666666666
 20
-5.381944444444443
 30
0.0
 10
17.72916666666666
 20
-4.80708333333334
 30
0.0
 10
17.57402777777777
 20
-4.268472222222221
 30
0.0
 10
17.30305555555555
 20
-3.805833333333339
 30
0.0
 10
17.30305555555555
 20
-3.805833333333339
 30
0.0
 10
21.05555555555556
 20
-1.639331570233315
 30
0.0
 10
21.05555555555556
 20
-1.639331570233315
 30
0.0
 10
21.05555555555556
 20
-1.639331570233315
 30
0.0
 10
21.05816208346944
 20
-1.637826694198426
 30
0.0
 10
21.06248620734542
 20
-1.63533016601688
 30
0.0
 10
21.6913707272393
 20
-2.728187487411282
 30
0.0
 10
22.05097222222222
 20
-3.995457332783125
 30
0.0
 10
22.05097222222222
 20
-5.346675959213698
 30
0.0
 10
22.05097222222222
 20
-6.702454554294123
 30
0.0
 10
21.68907397245875
 20
-7.973611578892031
 30
0.0
 10
21.05638669715126
 20
-9.068896772837154
 30
0.0
 10
19.7683053584568
 20
-11.29938033480498
 30
0.0
 10
17.35800095921374
 20
-12.8004259592137
 30
0.0
 10
14.59722222222222
 20
-12.8004259592137
 30
0.0
 10
11.83644348523072
 20
-12.8004259592137
 30
0.0
 10
9.426139085987591
 20
-11.29938033480498
 30
0.0
 10
8.138057747293183
 20
-9.068896772837154
 30
0.0
 10
7.505370471985694
 20
-7.973611578892031
 30
0.0
 10
7.143472222222207
 20
-6.702454554294123
 30
0.0
 10
7.143472222222207
 20
-5.346675959213698
 30
0.0
 10
7.143472222222207
 20
-3.986666285609165
 30
0.0
 10
7.50776808314937
 20
-2.711701290339533
 30
0.0
 10
8.144263329128534
 20
-1.614018485230733
 30
0.0
  0
LINE
  5
E9
330
70
100
AcDbEntity
  8
Joined Borders
 62
    18
420
        0
370
    35
100
AcDbLine
 10
11.88972222222222
 20
-6.931250000000002
 30
0.0
 11
8.152777777777776
 21
-9.088760600274806
 31
0.0
  0
SPLINE
  5
EB
330
70
100
AcDbEntity
  8
Outposts
 62
    18
420
        0
370
    35
100
AcDbSpline
210
0.0
220
0.0
230
1.0
 70
    11
 71
     3
 72
    17
 73
    13
 74
     0
 42
0.0000000001
 43
0.0000000001
 40
0.0
 40
0.0
 40
0.0
 40
0.0
 40
1.0
 40
1.0
 40
1.0
 40
2.0
 40
2.0
 40
2.0
 40
3.0
 40
3.0
 40
3.0
 40
4.0
 40
4.0
 40
4.0
 40
4.0
 10
12.47916666666667
 20
-13.42361111111111
 30
0.0
 10
12.41777801513672
 20
-13.42361111111111
 30
0.0
 10
12.36805555555555
 20
-13.37388865152995
 30
0.0
 10
12.36805555555555
 20
-13.3125
 30
0.0
 10
12.36805555555555
 20
-13.25111050075955
 30
0.0
 10
12.41777801513672
 20
-13.20138888888888
 30
0.0
 10
12.47916666666667
 20
-13.20138888888888
 30
0.0
 10
12.54055531819661
 20
-13.20138888888888
 30
0.0
 10
12.59027777777778
 20
-13.25111050075955
 30
0.0
 10
12.59027777777778
 20
-13.3125
 30
0.0
 10
12.59027777777778
 20
-13.37388865152995
 30
0.0
 10
12.54055531819661
 20
-13.42361111111111
 30
0.0
 10
12.47916666666667
 20
-13.42361111111111
 30
0.0
  0
SPLINE
  5
EC
330
70
100
AcDbEntity
  8
Outposts
 62
    18
420
        0
370
    35
100
AcDbSpline
210
0.0
220
0.0
230
1.0
 70
    11
 71
     3
 72
    17
 73
    13
 74
     0
 42
0.0000000001
 43
0.0000000001
 40
0.0
 40
0.0
 40
0.0
 40
0.0
 40
1.0
 40
1.0
 40
1.0
 40
2.0
 40
2.0
 40
2.0
 40
3.0
 40
3.0
 40
3.0
 40
4.0
 40
4.0
 40
4.0
 40
4.0
 10
12.47916666666667
 20
-13.0625
 30
0.0
 10
12.34111107720269
 20
-13.0625
 30
0.0
 10
12.22916666666666
 20
-13.17444441053602
 30
0.0
 10
12.22916666666666
 20
-13.3125
 30
0.0
 10
12.22916666666666
 20
-13.45055558946397
 30
0.0
 10
12.34111107720269
 20
-13.5625
 30
0.0
 10
12.47916666666667
 20
-13.5625
 30
0.0
 10
12.61722225613064
 20
-13.5625
 30
0.0
 10
12.72916666666666
 20
-13.45055558946397
 30
0.0
 10
12.72916666666666
 20
-13.3125
 30
0.0
 10
12.72916666666666
 20
-13.17444441053602
 30
0.0
 10
12.61722225613064
 20
-13.0625
 30
0.0
 10
12.47916666666667
 20
-13.0625
 30
0.0
  0
HATCH
  5
ED
330
70
100
AcDbEntity
  8
Outposts
 62
    18
420
        0
440
 33554687
100
AcDbHatch
 10
0.0
 20
0.0
 30
0.0
210
0.0
220
0.0
230
1.0
  2
SOLID
 70
     1
 71
     1
 91
        2
 92
        1
 93
        1
 72
     4
 94
        3
 73
     0
 74
     0
 95
       17
 96
       13
 40
0.0
 40
0.0
 40
0.0
 40
0.0
 40
1.0
 40
1.0
 40
1.0
 40
2.0
 40
2.0
 40
2.0
 40
3.0
 40
3.0
 40
3.0
 40
4.0
 40
4.0
 40
4.0
 40
4.0
 10
12.47916666666667
 20
-13.42361111111111
 10
12.41777801513672
 20
-13.42361111111111
 10
12.36805555555555
 20
-13.37388865152995
 10
12.36805555555555
 20
-13.3125
 10
12.36805555555555
 20
-13.25111050075955
 10
12.41777801513672
 20
-13.20138888888888
 10
12.47916666666667
 20
-13.20138888888888
 10
12.54055531819661
 20
-13.20138888888888
 10
12.59027777777778
 20
-13.25111050075955
 10
12.59027777777778
 20
-13.3125
 10
12.59027777777778
 20
-13.37388865152995
 10
12.54055531819661
 20
-13.42361111111111
 10
12.47916666666667
 20
-13.42361111111111
 97
        0
 97
        1
330
EB
 92
        1
 93
        1
 72
     4
 94
        3
 73
     0
 74
     0
 95
       17
 96
       13
 40
0.0
 40
0.0
 40
0.0
 40
0.0
 40
1.0
 40
1.0
 40
1.0
 40
2.0
 40
2.0
 40
2.0
 40
3.0
 40
3.0
 40
3.0
 40
4.0
 40
4.0
 40
4.0
 40
4.0
 10
12.47916666666667
 20
-13.0625
 10
12.34111107720269
 20
-13.0625
 10
12.22916666666666
 20
-13.17444441053602
 10
12.22916666666666
 20
-13.3125
 10
12.22916666666666
 20
-13.45055558946397
 10
12.34111107720269
 20
-13.5625
 10
12.47916666666667
 20
-13.5625
 10
12.61722225613064
 20
-13.5625
 10
12.72916666666666
 20
-13.45055558946397
 10
12.72916666666666
 20
-13.3125
 10
12.72916666666666
 20
-13.17444441053602
 10
12.61722225613064
 20
-13.0625
 10
12.47916666666667
 20
-13.0625
 97
        0
 97
        1
330
EC
 75
     2
 76
     1
 98
        1
 10
0.0
 20
0.0
450
        0
451
        0
460
0.0
461
0.0
452
        0
462
0.0
453
        0
470

  0
SPLINE
  5
EE
330
70
100
AcDbEntity
  8
Outposts
 62
    18
420
        0
370
    35
100
AcDbSpline
210
0.0
220
0.0
230
1.0
 70
    11
 71
     3
 72
    17
 73
    13
 74
     0
 42
0.0000000001
 43
0.0000000001
 40
0.0
 40
0.0
 40
0.0
 40
0.0
 40
1.0
 40
1.0
 40
1.0
 40
2.0
 40
2.0
 40
2.0
 40
3.0
 40
3.0
 40
3.0
 40
4.0
 40
4.0
 40
4.0
 40
4.0
 10
16.72916666666666
 20
-13.42361111111111
 30
0.0
 10
16.66777801513667
 20
-13.42361111111111
 30
0.0
 10
16.61805555555555
 20
-13.37388865152995
 30
0.0
 10
16.61805555555555
 20
-13.3125
 30
0.0
 10
16.61805555555555
 20
-13.25111050075955
 30
0.0
 10
16.66777801513667
 20
-13.20138888888888
 30
0.0
 10
16.72916666666666
 20
-13.20138888888888
 30
0.0
 10
16.79055531819666
 20
-13.20138888888888
 30
0.0
 10
16.84027777777778
 20
-13.25111050075955
 30
0.0
 10
16.84027777777778
 20
-13.3125
 30
0.0
 10
16.84027777777778
 20
-13.37388865152995
 30
0.0
 10
16.79055531819666
 20
-13.42361111111111
 30
0.0
 10
16.72916666666666
 20
-13.42361111111111
 30
0.0
  0
SPLINE
  5
EF
330
70
100
AcDbEntity
  8
Outposts
 62
    18
420
        0
370
    35
100
AcDbSpline
210
0.0
220
0.0
230
1.0
 70
    11
 71
     3
 72
    17
 73
    13
 74
     0
 42
0.0000000001
 43
0.0000000001
 40
0.0
 40
0.0
 40
0.0
 40
0.0
 40
1.0
 40
1.0
 40
1.0
 40
2.0
 40
2.0
 40
2.0
 40
3.0
 40
3.0
 40
3.0
 40
4.0
 40
4.0
 40
4.0
 40
4.0
 10
16.72916666666666
 20
-13.0625
 30
0.0
 10
16.59111107720264
 20
-13.0625
 30
0.0
 10
16.47916666666666
 20
-13.17444441053602
 30
0.0
 10
16.47916666666666
 20
-13.3125
 30
0.0
 10
16.47916666666666
 20
-13.45055558946397
 30
0.0
 10
16.59111107720264
 20
-13.5625
 30
0.0
 10
16.72916666666666
 20
-13.5625
 30
0.0
 10
16.86722225613069
 20
-13.5625
 30
0.0
 10
16.97916666666666
 20
-13.45055558946397
 30
0.0
 10
16.97916666666666
 20
-13.3125
 30
0.0
 10
16.97916666666666
 20
-13.17444441053602
 30
0.0
 10
16.86722225613069
 20
-13.0625
 30
0.0
 10
16.72916666666666
 20
-13.0625
 30
0.0
  0
HATCH
  5
F0
330
70
100
AcDbEntity
  8
Outposts
 62
    18
420
        0
440
 33554687
100
AcDbHatch
 10
0.0
 20
0.0
 30
0.0
210
0.0
220
0.0
230
1.0
  2
SOLID
 70
     1
 71
     1
 91
        2
 92
        1
 93
        1
 72
     4
 94
        3
 73
     0
 74
     0
 95
       17
 96
       13
 40
0.0
 40
0.0
 40
0.0
 40
0.0
 40
1.0
 40
1.0
 40
1.0
 40
2.0
 40
2.0
 40
2.0
 40
3.0
 40
3.0
 40
3.0
 40
4.0
 40
4.0
 40
4.0
 40
4.0
 10
16.72916666666666
 20
-13.42361111111111
 10
16.66777801513667
 20
-13.42361111111111
 10
16.61805555555555
 20
-13.37388865152995
 10
16.61805555555555
 20
-13.3125
 10
16.61805555555555
 20
-13.25111050075955
 10
16.66777801513667
 20
-13.20138888888888
 10
16.72916666666666
 20
-13.20138888888888
 10
16.79055531819666
 20
-13.20138888888888
 10
16.84027777777778
 20
-13.25111050075955
 10
16.84027777777778
 20
-13.3125
 10
16.84027777777778
 20
-13.37388865152995
 10
16.79055531819666
 20
-13.42361111111111
 10
16.72916666666666
 20
-13.42361111111111
 97
        0
 97
        1
330
EE
 92
        1
 93
        1
 72
     4
 94
        3
 73
     0
 74
     0
 95
       17
 96
       13
 40
0.0
 40
0.0
 40
0.0
 40
0.0
 40
1.0
 40
1.0
 40
1.0
 40
2.0
 40
2.0
 40
2.0
 40
3.0
 40
3.0
 40
3.0
 40
4.0
 40
4.0
 40
4.0
 40
4.0
 10
16.72916666666666
 20
-13.0625
 10
16.59111107720264
 20
-13.0625
 10
16.47916666666666
 20
-13.17444441053602
 10
16.47916666666666
 20
-13.3125
 10
16.47916666666666
 20
-13.45055558946397
 10
16.59111107720264
 20
-13.5625
 10
16.72916666666666
 20
-13.5625
 10
16.86722225613069
 20
-13.5625
 10
16.97916666666666
 20
-13.45055558946397
 10
16.97916666666666
 20
-13.3125
 10
16.97916666666666
 20
-13.17444441053602
 10
16.86722225613069
 20
-13.0625
 10
16.72916666666666
 20
-13.0625
 97
        0
 97
        1
330
EF
 75
     2
 76
     1
 98
        1
 10
0.0
 20
0.0
450
        0
451
        0
460
0.0
461
0.0
452
        0
462
0.0
453
        0
470

  0
SPLINE
  5
F1
330
70
100
AcDbEntity
  8
Outposts
 62
    18
420
        0
370
    35
100
AcDbSpline
210
0.0
220
0.0
230
1.0
 70
    11
 71
     3
 72
    17
 73
    13
 74
     0
 42
0.0000000001
 43
0.0000000001
 40
0.0
 40
0.0
 40
0.0
 40
0.0
 40
1.0
 40
1.0
 40
1.0
 40
2.0
 40
2.0
 40
2.0
 40
3.0
 40
3.0
 40
3.0
 40
4.0
 40
4.0
 40
4.0
 40
4.0
 10
6.215277777777777
 20
-3.243055555555555
 30
0.0
 10
6.153889126247829
 20
-3.243055555555555
 30
0.0
 10
6.104166666666666
 20
-3.193333095974391
 30
0.0
 10
6.104166666666666
 20
-3.131944444444444
 30
0.0
 10
6.104166666666666
 20
-3.070554945204005
 30
0.0
 10
6.153889126247829
 20
-3.020833333333333
 30
0.0
 10
6.215277777777777
 20
-3.020833333333333
 30
0.0
 10
6.276666429307725
 20
-3.020833333333333
 30
0.0
 10
6.326388888888888
 20
-3.070554945204005
 30
0.0
 10
6.326388888888888
 20
-3.131944444444444
 30
0.0
 10
6.326388888888888
 20
-3.193333095974391
 30
0.0
 10
6.276666429307725
 20
-3.243055555555555
 30
0.0
 10
6.215277777777777
 20
-3.243055555555555
 30
0.0
  0
SPLINE
  5
F2
330
70
100
AcDbEntity
  8
Outposts
 62
    18
420
        0
370
    35
100
AcDbSpline
210
0.0
220
0.0
230
1.0
 70
    11
 71
     3
 72
    17
 73
    13
 74
     0
 42
0.0000000001
 43
0.0000000001
 40
0.0
 40
0.0
 40
0.0
 40
0.0
 40
1.0
 40
1.0
 40
1.0
 40
2.0
 40
2.0
 40
2.0
 40
3.0
 40
3.0
 40
3.0
 40
4.0
 40
4.0
 40
4.0
 40
4.0
 10
6.215277777777777
 20
-2.881944444444444
 30
0.0
 10
6.077222188313801
 20
-2.881944444444444
 30
0.0
 10
5.965277777777777
 20
-2.993888854980468
 30
0.0
 10
5.965277777777777
 20
-3.131944444444444
 30
0.0
 10
5.965277777777777
 20
-3.27000003390842
 30
0.0
 10
6.077222188313801
 20
-3.381944444444444
 30
0.0
 10
6.215277777777777
 20
-3.381944444444444
 30
0.0
 10
6.353333367241752
 20
-3.381944444444444
 30
0.0
 10
6.465277777777777
 20
-3.27000003390842
 30
0.0
 10
6.465277777777777
 20
-3.131944444444444
 30
0.0
 10
6.465277777777777
 20
-2.993888854980468
 30
0.0
 10
6.353333367241752
 20
-2.881944444444444
 30
0.0
 10
6.215277777777777
 20
-2.881944444444444
 30
0.0
  0
HATCH
  5
F3
330
70
100
AcDbEntity
  8
Outposts
 62
    18
420
        0
440
 33554687
100
AcDbHatch
 10
0.0
 20
0.0
 30
0.0
210
0.0
220
0.0
230
1.0
  2
SOLID
 70
     1
 71
     1
 91
        2
 92
        1
 93
        1
 72
     4
 94
        3
 73
     0
 74
     0
 95
       17
 96
       13
 40
0.0
 40
0.0
 40
0.0
 40
0.0
 40
1.0
 40
1.0
 40
1.0
 40
2.0
 40
2.0
 40
2.0
 40
3.0
 40
3.0
 40
3.0
 40
4.0
 40
4.0
 40
4.0
 40
4.0
 10
6.215277777777777
 20
-3.243055555555555
 10
6.153889126247829
 20
-3.243055555555555
 10
6.104166666666666
 20
-3.193333095974391
 10
6.104166666666666
 20
-3.131944444444444
 10
6.104166666666666
 20
-3.070554945204005
 10
6.153889126247829
 20
-3.020833333333333
 10
6.215277777777777
 20
-3.020833333333333
 10
6.276666429307725
 20
-3.020833333333333
 10
6.326388888888888
 20
-3.070554945204005
 10
6.326388888888888
 20
-3.131944444444444
 10
6.326388888888888
 20
-3.193333095974391
 10
6.276666429307725
 20
-3.243055555555555
 10
6.215277777777777
 20
-3.243055555555555
 97
        0
 97
        1
330
F1
 92
        1
 93
        1
 72
     4
 94
        3
 73
     0
 74
     0
 95
       17
 96
       13
 40
0.0
 40
0.0
 40
0.0
 40
0.0
 40
1.0
 40
1.0
 40
1.0
 40
2.0
 40
2.0
 40
2.0
 40
3.0
 40
3.0
 40
3.0
 40
4.0
 40
4.0
 40
4.0
 40
4.0
 10
6.215277777777777
 20
-2.881944444444444
 10
6.077222188313801
 20
-2.881944444444444
 10
5.965277777777777
 20
-2.993888854980468
 10
5.965277777777777
 20
-3.131944444444444
 10
5.965277777777777
 20
-3.27000003390842
 10
6.077222188313801
 20
-3.381944444444444
 10
6.215277777777777
 20
-3.381944444444444
 10
6.353333367241752
 20
-3.381944444444444
 10
6.465277777777777
 20
-3.27000003390842
 10
6.465277777777777
 20
-3.131944444444444
 10
6.465277777777777
 20
-2.993888854980468
 10
6.353333367241752
 20
-2.881944444444444
 10
6.215277777777777
 20
-2.881944444444444
 97
        0
 97
        1
330
F2
 75
     2
 76
     1
 98
        1
 10
0.0
 20
0.0
450
        0
451
        0
460
0.0
461
0.0
452
        0
462
0.0
453
        0
470

  0
CIRCLE
  5
F5
330
70
100
AcDbEntity
  8
The Man
 62
    18
420
        0
370
    35
100
AcDbCircle
 10
14.60416666666666
 20
-5.381944444444443
 30
0.0
 40
0.5
  0
HATCH
  5
F6
330
70
100
AcDbEntity
  8
The Man
 62
    18
420
        0
440
 33554687
100
AcDbHatch
 10
0.0
 20
0.0
 30
0.0
210
0.0
220
0.0
230
1.0
  2
SOLID
 70
     1
 71
     1
 91
        1
 92
        1
 93
        1
 72
     2
 10
14.60416666666666
 20
-5.381944444444443
 40
0.5
 50
0.0
 51
360.0
 73
     1
 97
        1
330
F5
 75
     2
 76
     1
 98
        1
 10
0.0
 20
0.0
450
        0
451
        0
460
0.0
461
0.0
452
        0
462
0.0
453
        0
470

  0
CIRCLE
  5
F8
330
70
100
AcDbEntity
  8
The Temple
 62
    18
420
        0
370
    35
100
AcDbCircle
 10
14.60416666666666
 20
-2.229166666666666
 30
0.0
 40
0.1805555555555555
  0
HATCH
  5
F9
330
70
100
AcDbEntity
  8
The Temple
 62
    18
420
        0
440
 33554687
100
AcDbHatch
 10
0.0
 20
0.0
 30
0.0
210
0.0
220
0.0
230
1.0
  2
SOLID
 70
     1
 71
     1
 91
        1
 92
        1
 93
        1
 72
     2
 10
14.60416666666666
 20
-2.229166666666666
 40
0.1805555555555555
 50
0.0
 51
360.0
 73
     1
 97
        1
330
F8
 75
     2
 76
     1
 98
        1
 10
0.0
 20
0.0
450
        0
451
        0
460
0.0
461
0.0
452
        0
462
0.0
453
        0
470

  0
ENDSEC
  0
SECTION
  2
OBJECTS
  0
DICTIONARY
  5
C
330
0
100
AcDbDictionary
281
     1
  3
ACAD_COLOR
350
63
  3
ACAD_DETAILVIEWSTYLE
350
6A
  3
ACAD_GROUP
350
D
  3
ACAD_LAYOUT
350
62
  3
ACAD_MATERIAL
350
10
  3
ACAD_MLEADERSTYLE
350
66
  3
ACAD_MLINESTYLE
350
5F
  3
ACAD_PLOTSETTINGS
350
61
  3
ACAD_PLOTSTYLENAME
350
E
  3
ACAD_SCALELIST
350
42
  3
ACAD_SECTIONVIEWSTYLE
350
68
  3
ACAD_TABLESTYLE
350
64
  3
ACAD_VISUALSTYLE
350
29
  3
ACDB_RECOMPOSE_DATA
350
102
  3
AcDbVariableDictionary
350
FA
  0
DICTIONARY
  5
63
102
{ACAD_REACTORS
330
C
102
}
330
C
100
AcDbDictionary
281
     1
  0
DICTIONARY
  5
6A
102
{ACAD_REACTORS
330
C
102
}
330
C
100
AcDbDictionary
281
     1
  3
Imperial24
350
6B
  0
DICTIONARY
  5
D
102
{ACAD_REACTORS
330
C
102
}
330
C
100
AcDbDictionary
281
     1
  0
DICTIONARY
  5
62
102
{ACAD_REACTORS
330
C
102
}
330
C
100
AcDbDictionary
281
     1
  3
Layout1
350
6F
  3
Layout2
350
77
  3
Model
350
73
  0
DICTIONARY
  5
10
102
{ACAD_REACTORS
330
C
102
}
330
C
100
AcDbDictionary
281
     1
  3
ByBlock
350
19
  3
ByLayer
350
11
  3
Global
350
21
  0
DICTIONARY
  5
66
102
{ACAD_REACTORS
330
C
102
}
330
C
100
AcDbDictionary
281
     1
  3
Standard
350
67
  0
DICTIONARY
  5
5F
102
{ACAD_REACTORS
330
C
102
}
330
C
100
AcDbDictionary
281
     1
  3
Standard
350
60
  0
DICTIONARY
  5
61
102
{ACAD_REACTORS
330
C
102
}
330
C
100
AcDbDictionary
281
     1
  0
ACDBDICTIONARYWDFLT
  5
E
102
{ACAD_REACTORS
330
C
102
}
330
C
100
AcDbDictionary
281
     1
  3
Normal
350
F
100
AcDbDictionaryWithDefault
340
F
  0
DICTIONARY
  5
42
102
{ACAD_REACTORS
330
C
102
}
330
C
100
AcDbDictionary
281
     1
  3
A0
350
43
  3
A1
350
44
  3
A2
350
45
  3
A3
350
46
  3
A4
350
47
  3
A5
350
48
  3
A6
350
49
  3
A7
350
4A
  3
A8
350
4B
  3
A9
350
4C
  3
B0
350
4D
  3
B1
350
4E
  3
B2
350
4F
  3
B3
350
50
  3
B4
350
51
  3
B5
350
52
  3
B6
350
53
  0
DICTIONARY
  5
68
102
{ACAD_REACTORS
330
C
102
}
330
C
100
AcDbDictionary
281
     1
  3
Imperial24
350
69
  0
DICTIONARY
  5
64
102
{ACAD_REACTORS
330
C
102
}
330
C
100
AcDbDictionary
281
     1
  3
Standard
350
65
  0
DICTIONARY
  5
29
102
{ACAD_REACTORS
330
C
102
}
330
C
100
AcDbDictionary
281
     1
  3
2dWireframe
350
2F
  3
Basic
350
2E
  3
Brighten
350
35
  3
ColorChange
350
39
  3
Conceptual
350
32
  3
Dim
350
34
  3
EdgeColorOff
350
41
  3
Facepattern
350
38
  3
Flat
350
2A
  3
FlatWithEdges
350
2B
  3
Gouraud
350
2C
  3
GouraudWithEdges
350
2D
  3
Hidden
350
31
  3
JitterOff
350
3F
  3
Linepattern
350
37
  3
OverhangOff
350
40
  3
Realistic
350
33
  3
Shaded
350
3E
  3
Shaded with edges
350
3D
  3
Shades of Gray
350
3A
  3
Sketchy
350
3B
  3
Thicken
350
36
  3
Wireframe
350
30
  3
X-Ray
350
3C
  0
XRECORD
  5
102
102
{ACAD_REACTORS
330
C
102
}
330
C
100
AcDbXrecord
280
     1
 90
        1
330
65
  0
DICTIONARY
  5
FA
102
{ACAD_REACTORS
330
C
102
}
330
C
100
AcDbDictionary
281
     1
  3
CANNOSCALE
350
FF
  3
CMLEADERSTYLE
350
FC
  3
CTABLESTYLE
350
FB
  3
CVIEWDETAILSTYLE
350
FD
  3
CVIEWSECTIONSTYLE
350
FE
  0
ACDBDETAILVIEWSTYLE
  5
6B
102
{ACAD_REACTORS
330
6A
102
}
330
6A
100
AcDbModelDocViewStyle
 70
     0
  3
Imperial24
290
     1
300
Imperial24
 90
        0
100
AcDbDetailViewStyle
 70
     0
 71
     0
 90
        3
 71
     1
340
55
 62
   256
 40
0.24
340
0
 62
   256
 40
0.24
300

 40
0.36
280
     3
 71
     2
340
5D
 90
       25
 62
   256
 71
     3
340
55
 62
   256
 40
0.24
 90
        1
 40
0.75
 90
        1
300
%<\AcVar ViewType \f "%tc1">% %<\AcVar ViewDetailId>%\PSCALE %<\AcVar ViewScale \f "%sn">%
 71
     4
340
5D
 90
       25
 62
   256
340
5D
 90
       25
 62
   256
280
     0
  0
LAYOUT
  5
6F
102
{ACAD_REACTORS
330
62
102
}
330
62
100
AcDbPlotSettings
  1

  2

  4

  6

 40
0.0
 41
0.0
 42
0.0
 43
0.0
 44
0.0
 45
0.0
 46
0.0
 47
0.0
 48
0.0
 49
0.0
140
0.0
141
0.0
142
1.0
143
1.0
 70
   688
 72
     0
 73
     0
 74
     5
  7

 75
    16
147
1.0
 76
     0
 77
     2
 78
   300
148
0.0
149
0.0
100
AcDbLayout
  1
Layout1
 70
     1
 71
     1
 10
0.0
 20
0.0
 11
12.0
 21
9.0
 12
0.0
 22
0.0
 32
0.0
 14
0.0
 24
0.0
 34
0.0
 15
0.0
 25
0.0
 35
0.0
146
0.0
 13
0.0
 23
0.0
 33
0.0
 16
1.0
 26
0.0
 36
0.0
 17
0.0
 27
1.0
 37
0.0
 76
     0
330
6C
  0
LAYOUT
  5
77
102
{ACAD_REACTORS
330
62
102
}
330
62
100
AcDbPlotSettings
  1

  2

  4

  6

 40
0.0
 41
0.0
 42
0.0
 43
0.0
 44
0.0
 45
0.0
 46
0.0
 47
0.0
 48
0.0
 49
0.0
140
0.0
141
0.0
142
1.0
143
1.0
 70
   688
 72
     0
 73
     0
 74
     5
  7

 75
    16
147
1.0
 76
     0
 77
     2
 78
   300
148
0.0
149
0.0
100
AcDbLayout
  1
Layout2
 70
     1
 71
     2
 10
0.0
 20
0.0
 11
12.0
 21
9.0
 12
0.0
 22
0.0
 32
0.0
 14
0.0
 24
0.0
 34
0.0
 15
0.0
 25
0.0
 35
0.0
146
0.0
 13
0.0
 23
0.0
 33
0.0
 16
1.0
 26
0.0
 36
0.0
 17
0.0
 27
1.0
 37
0.0
 76
     0
330
74
  0
LAYOUT
  5
73
102
{ACAD_REACTORS
330
62
102
}
330
62
100
AcDbPlotSettings
  1

  2

  4

  6

 40
0.0
 41
0.0
 42
0.0
 43
0.0
 44
0.0
 45
0.0
 46
0.0
 47
0.0
 48
0.0
 49
0.0
140
0.0
141
0.0
142
1.0
143
1.0
 70
  1712
 72
     0
 73
     0
 74
     0
  7

 75
     0
147
1.0
 76
     0
 77
     2
 78
   300
148
0.0
149
0.0
100
AcDbLayout
  1
Model
 70
     1
 71
     0
 10
0.0
 20
0.0
 11
12.0
 21
9.0
 12
0.0
 22
0.0
 32
0.0
 14
0.0
 24
0.0
 34
0.0
 15
0.0
 25
0.0
 35
0.0
146
0.0
 13
0.0
 23
0.0
 33
0.0
 16
1.0
 26
0.0
 36
0.0
 17
0.0
 27
1.0
 37
0.0
 76
     0
330
70
  0
MATERIAL
  5
19
102
{ACAD_XDICTIONARY
360
1A
102
}
102
{ACAD_REACTORS
330
10
102
}
330
10
100
AcDbMaterial
  1
ByBlock
 72
     0
 43
0.0208333333333333
 43
0.0
 43
0.0
 43
0.0
 43
0.0
 43
0.0208333333333333
 43
0.0
 43
0.0
 43
0.0
 43
0.0
 43
1.0
 43
0.0
 43
0.0
 43
0.0
 43
0.0
 43
1.0
 77
     0
 47
0.0208333333333333
 47
0.0
 47
0.0
 47
0.0
 47
0.0
 47
0.0208333333333333
 47
0.0
 47
0.0
 47
0.0
 47
0.0
 47
1.0
 47
0.0
 47
0.0
 47
0.0
 47
0.0
 47
1.0
171
     0
 49
0.0208333333333333
 49
0.0
 49
0.0
 49
0.0
 49
0.0
 49
0.0208333333333333
 49
0.0
 49
0.0
 49
0.0
 49
0.0
 49
1.0
 49
0.0
 49
0.0
 49
0.0
 49
0.0
 49
1.0
175
     0
142
0.0208333333333333
142
0.0
142
0.0
142
0.0
142
0.0
142
0.0208333333333333
142
0.0
142
0.0
142
0.0
142
0.0
142
1.0
142
0.0
142
0.0
142
0.0
142
0.0
142
1.0
179
     0
144
0.0208333333333333
144
0.0
144
0.0
144
0.0
144
0.0
144
0.0208333333333333
144
0.0
144
0.0
144
0.0
144
0.0
144
1.0
144
0.0
144
0.0
144
0.0
144
0.0
144
1.0
147
0.0208333333333333
147
0.0
147
0.0
147
0.0
147
0.0
147
0.0208333333333333
147
0.0
147
0.0
147
0.0
147
0.0
147
1.0
147
0.0
147
0.0
147
0.0
147
0.0
147
1.0
  0
MATERIAL
  5
11
102
{ACAD_XDICTIONARY
360
12
102
}
102
{ACAD_REACTORS
330
10
102
}
330
10
100
AcDbMaterial
  1
ByLayer
 72
     0
 43
0.0208333333333333
 43
0.0
 43
0.0
 43
0.0
 43
0.0
 43
0.0208333333333333
 43
0.0
 43
0.0
 43
0.0
 43
0.0
 43
1.0
 43
0.0
 43
0.0
 43
0.0
 43
0.0
 43
1.0
 77
     0
 47
0.0208333333333333
 47
0.0
 47
0.0
 47
0.0
 47
0.0
 47
0.0208333333333333
 47
0.0
 47
0.0
 47
0.0
 47
0.0
 47
1.0
 47
0.0
 47
0.0
 47
0.0
 47
0.0
 47
1.0
171
     0
 49
0.0208333333333333
 49
0.0
 49
0.0
 49
0.0
 49
0.0
 49
0.0208333333333333
 49
0.0
 49
0.0
 49
0.0
 49
0.0
 49
1.0
 49
0.0
 49
0.0
 49
0.0
 49
0.0
 49
1.0
175
     0
142
0.0208333333333333
142
0.0
142
0.0
142
0.0
142
0.0
142
0.0208333333333333
142
0.0
142
0.0
142
0.0
142
0.0
142
1.0
142
0.0
142
0.0
142
0.0
142
0.0
142
1.0
179
     0
144
0.0208333333333333
144
0.0
144
0.0
144
0.0
144
0.0
144
0.0208333333333333
144
0.0
144
0.0
144
0.0
144
0.0
144
1.0
144
0.0
144
0.0
144
0.0
144
0.0
144
1.0
147
0.0208333333333333
147
0.0
147
0.0
147
0.0
147
0.0
147
0.0208333333333333
147
0.0
147
0.0
147
0.0
147
0.0
147
1.0
147
0.0
147
0.0
147
0.0
147
0.0
147
1.0
  0
MATERIAL
  5
21
102
{ACAD_XDICTIONARY
360
22
102
}
102
{ACAD_REACTORS
330
10
102
}
330
10
100
AcDbMaterial
  1
Global
 72
     0
 43
0.0208333333333333
 43
0.0
 43
0.0
 43
0.0
 43
0.0
 43
0.0208333333333333
 43
0.0
 43
0.0
 43
0.0
 43
0.0
 43
1.0
 43
0.0
 43
0.0
 43
0.0
 43
0.0
 43
1.0
 77
     0
 47
0.0208333333333333
 47
0.0
 47
0.0
 47
0.0
 47
0.0
 47
0.0208333333333333
 47
0.0
 47
0.0
 47
0.0
 47
0.0
 47
1.0
 47
0.0
 47
0.0
 47
0.0
 47
0.0
 47
1.0
171
     0
 49
0.0208333333333333
 49
0.0
 49
0.0
 49
0.0
 49
0.0
 49
0.0208333333333333
 49
0.0
 49
0.0
 49
0.0
 49
0.0
 49
1.0
 49
0.0
 49
0.0
 49
0.0
 49
0.0
 49
1.0
175
     0
142
0.0208333333333333
142
0.0
142
0.0
142
0.0
142
0.0
142
0.0208333333333333
142
0.0
142
0.0
142
0.0
142
0.0
142
1.0
142
0.0
142
0.0
142
0.0
142
0.0
142
1.0
179
     0
144
0.0208333333333333
144
0.0
144
0.0
144
0.0
144
0.0
144
0.0208333333333333
144
0.0
144
0.0
144
0.0
144
0.0
144
1.0
144
0.0
144
0.0
144
0.0
144
0.0
144
1.0
147
0.0208333333333333
147
0.0
147
0.0
147
0.0
147
0.0
147
0.0208333333333333
147
0.0
147
0.0
147
0.0
147
0.0
147
1.0
147
0.0
147
0.0
147
0.0
147
0.0
147
1.0
  0
MLEADERSTYLE
  5
67
102
{ACAD_REACTORS
330
66
102
}
330
66
100
AcDbMLeaderStyle
179
     2
170
     2
171
     1
172
     0
 90
        2
 40
0.0
 41
0.0
173
     1
 91
-1056964608
340
5B
 92
       -2
290
     1
 42
0.09
291
     1
 43
0.36
  3
Standard
 44
0.18
300

342
55
174
     1
178
     6
175
     1
176
     0
 93
-1056964608
 45
0.18
292
     0
297
     0
 46
0.18
 94
-1056964608
 47
1.0
 49
1.0
140
1.0
293
     1
141
0.0
294
     1
177
     0
142
1.0
295
     1
296
     0
143
0.125
271
     0
272
     9
273
     9
298
     1
  0
MLINESTYLE
  5
60
102
{ACAD_REACTORS
330
5F
102
}
330
5F
100
AcDbMlineStyle
  2
STANDARD
 70
     0
  3

 62
   256
 51
90.0
 52
90.0
 71
     2
 49
0.5
 62
   256
  6
BYLAYER
 49
-0.5
 62
   256
  6
BYLAYER
  0
ACDBPLACEHOLDER
  5
F
102
{ACAD_REACTORS
330
E
102
}
330
E
  0
SCALE
  5
43
102
{ACAD_REACTORS
330
42
102
}
330
42
100
AcDbScale
 70
     0
300
1:1
140
1.0
141
1.0
290
     1
  0
SCALE
  5
44
102
{ACAD_REACTORS
330
42
102
}
330
42
100
AcDbScale
 70
     0
300
1/128" = 1'-0"
140
0.0078125
141
12.0
290
     0
  0
SCALE
  5
45
102
{ACAD_REACTORS
330
42
102
}
330
42
100
AcDbScale
 70
     0
300
1/64" = 1'-0"
140
0.015625
141
12.0
290
     0
  0
SCALE
  5
46
102
{ACAD_REACTORS
330
42
102
}
330
42
100
AcDbScale
 70
     0
300
1/32" = 1'-0"
140
0.03125
141
12.0
290
     0
  0
SCALE
  5
47
102
{ACAD_REACTORS
330
42
102
}
330
42
100
AcDbScale
 70
     0
300
1/16" = 1'-0"
140
0.0625
141
12.0
290
     0
  0
SCALE
  5
48
102
{ACAD_REACTORS
330
42
102
}
330
42
100
AcDbScale
 70
     0
300
3/32" = 1'-0"
140
0.09375
141
12.0
290
     0
  0
SCALE
  5
49
102
{ACAD_REACTORS
330
42
102
}
330
42
100
AcDbScale
 70
     0
300
1/8" = 1'-0"
140
0.125
141
12.0
290
     0
  0
SCALE
  5
4A
102
{ACAD_REACTORS
330
42
102
}
330
42
100
AcDbScale
 70
     0
300
3/16" = 1'-0"
140
0.1875
141
12.0
290
     0
  0
SCALE
  5
4B
102
{ACAD_REACTORS
330
42
102
}
330
42
100
AcDbScale
 70
     0
300
1/4" = 1'-0"
140
0.25
141
12.0
290
     0
  0
SCALE
  5
4C
102
{ACAD_REACTORS
330
42
102
}
330
42
100
AcDbScale
 70
     0
300
3/8" = 1'-0"
140
0.375
141
12.0
290
     0
  0
SCALE
  5
4D
102
{ACAD_REACTORS
330
42
102
}
330
42
100
AcDbScale
 70
     0
300
1/2" = 1'-0"
140
0.5
141
12.0
290
     0
  0
SCALE
  5
4E
102
{ACAD_REACTORS
330
42
102
}
330
42
100
AcDbScale
 70
     0
300
3/4" = 1'-0"
140
0.75
141
12.0
290
     0
  0
SCALE
  5
4F
102
{ACAD_REACTORS
330
42
102
}
330
42
100
AcDbScale
 70
     0
300
1" = 1'-0"
140
1.0
141
12.0
290
     0
  0
SCALE
  5
50
102
{ACAD_REACTORS
330
42
102
}
330
42
100
AcDbScale
 70
     0
300
1-1/2" = 1'-0"
140
1.5
141
12.0
290
     0
  0
SCALE
  5
51
102
{ACAD_REACTORS
330
42
102
}
330
42
100
AcDbScale
 70
     0
300
3" = 1'-0"
140
3.0
141
12.0
290
     0
  0
SCALE
  5
52
102
{ACAD_REACTORS
330
42
102
}
330
42
100
AcDbScale
 70
     0
300
6" = 1'-0"
140
6.0
141
12.0
290
     0
  0
SCALE
  5
53
102
{ACAD_REACTORS
330
42
102
}
330
42
100
AcDbScale
 70
     0
300
1'-0" = 1'-0"
140
12.0
141
12.0
290
     0
  0
ACDBSECTIONVIEWSTYLE
  5
69
102
{ACAD_REACTORS
330
68
102
}
330
68
100
AcDbModelDocViewStyle
 70
     0
  3
Imperial24
290
     1
300
Imperial24
 90
        0
100
AcDbSectionViewStyle
 70
     0
 71
     0
 90
       78
 71
     1
340
55
 62
   256
 40
0.24
340
0
340
0
 62
   256
 40
0.24
300
I, O, Q, S, X, Z
 40
0.48
 90
        3
 40
0.18
 90
        1
 71
     2
340
5D
 90
       25
 62
   256
340
5D
 90
       50
 62
   256
 40
0.24
 40
0.0
 40
0.24
 71
     3
340
55
 62
   256
 40
0.24
 90
        1
 40
0.75
 90
        1
300
%<\AcVar ViewType \f "%tc1">% %<\AcVar ViewSectionStartId>%-%<\AcVar ViewSectionEndId>%\PSCALE %<\AcVar ViewScale \f "%sn">%
 71
     4
 62
   256
 62
   257
300
ANSI31
 40
1.0
 90
        0
290
     0
290
     0
 90
        6
 40
0.0
 40
1.570796326794896
 40
0.2617993877991494
 40
1.308996938995747
 40
-0.2617993877991494
 40
1.832595714594046
  0
TABLESTYLE
  5
65
102
{ACAD_XDICTIONARY
360
100
102
}
102
{ACAD_REACTORS
330
64
102
}
330
64
100
AcDbTableStyle
280
     0
  3
Standard
 70
     0
 71
     0
 40
0.06
 41
0.06
280
     0
281
     0
  7
Standard
140
0.18
170
     2
 62
     0
 63
     7
283
     0
 90
      512
 91
        0
  1

274
    -2
284
     1
 64
     0
275
    -2
285
     1
 65
     0
276
    -2
286
     1
 66
     0
277
    -2
287
     1
 67
     0
278
    -2
288
     1
 68
     0
279
    -2
289
     1
 69
     0
  7
Standard
140
0.25
170
     5
 62
     0
 63
     7
283
     0
 90
      512
 91
        0
  1

274
    -2
284
     1
 64
     0
275
    -2
285
     1
 65
     0
276
    -2
286
     1
 66
     0
277
    -2
287
     1
 67
     0
278
    -2
288
     1
 68
     0
279
    -2
289
     1
 69
     0
  7
Standard
140
0.18
170
     5
 62
     0
 63
     7
283
     0
 90
      512
 91
        0
  1

274
    -2
284
     1
 64
     0
275
    -2
285
     1
 65
     0
276
    -2
286
     1
 66
     0
277
    -2
287
     1
 67
     0
278
    -2
288
     1
 68
     0
279
    -2
289
     1
 69
     0
  0
VISUALSTYLE
  5
2F
102
{ACAD_REACTORS
330
29
102
}
330
29
100
AcDbVisualStyle
  2
2dWireframe
 70
     4
177
     3
291
     0
 70
    58
 90
        0
176
     1
 90
        2
176
     1
 90
        0
176
     1
 90
        0
176
     1
 40
0.6
176
     1
 40
30.0
176
     1
 62
     7
420
 16777215
176
     1
 90
        1
176
     1
 90
        4
176
     1
 62
     7
176
     1
 62
   257
176
     1
 90
        1
176
     1
 90
        1
176
     1
 40
1.0
176
     1
 90
        0
176
     1
 62
   257
176
     1
 40
1.0
176
     1
 90
        1
176
     1
 90
        6
176
     1
 90
        2
176
     1
 62
     7
176
     1
 90
        5
176
     1
 90
        0
176
     1
 90
        0
176
     1
290
     0
176
     1
 90
        1
176
     1
 40
0.0
176
     1
 90
        0
176
     1
290
     1
176
     1
290
     1
176
     1
290
     0
176
     1
290
     0
176
     1
290
     0
176
     1
290
     0
176
     1
290
     0
176
     1
290
     0
176
     1
290
     0
176
     1
 90
       50
176
     1
 40
0.0
176
     1
 40
1.0
176
     1
 90
        0
176
     1
 62
    18
420
        0
176
     1
 90
       50
176
     1
 90
        3
176
     1
 62
     5
420
      255
176
     1
290
     0
176
     1
 90
       50
176
     1
 90
       50
176
     1
 90
       50
176
     1
290
     0
176
     1
 90
       50
176
     1
 62
   256
176
     0
 40
1.0
176
     0
 90
        2
176
     1
  1
strokes_ogs.tif
176
     1
290
     0
176
     1
 40
1.0
176
     1
 40
1.0
176
     1
  0
VISUALSTYLE
  5
2E
102
{ACAD_REACTORS
330
29
102
}
330
29
100
AcDbVisualStyle
  2
Basic
 70
     7
177
     3
291
     1
 70
    58
 90
        1
176
     1
 90
        0
176
     1
 90
        1
176
     1
 90
        0
176
     1
 40
0.6
176
     1
 40
30.0
176
     1
 62
     7
420
 16777215
176
     1
 90
        0
176
     1
 90
        4
176
     1
 62
     7
176
     1
 62
   257
176
     1
 90
        1
176
     1
 90
        1
176
     1
 40
1.0
176
     1
 90
        8
176
     1
 62
     7
176
     1
 40
1.0
176
     1
 90
        1
176
     1
 90
        6
176
     1
 90
        2
176
     1
 62
     7
176
     1
 90
        5
176
     1
 90
        0
176
     1
 90
        0
176
     1
290
     0
176
     1
 90
        1
176
     1
 40
0.0
176
     1
 90
        0
176
     1
290
     0
176
     1
290
     1
176
     1
290
     1
176
     1
290
     0
176
     1
290
     0
176
     1
290
     0
176
     1
290
     0
176
     1
290
     0
176
     1
290
     0
176
     1
 90
       50
176
     1
 40
0.0
176
     1
 40
1.0
176
     1
 90
        0
176
     1
 62
    18
420
        0
176
     1
 90
       50
176
     1
 90
        3
176
     1
 62
     5
420
      255
176
     1
290
     0
176
     1
 90
       50
176
     1
 90
       50
176
     1
 90
       50
176
     1
290
     0
176
     1
 90
       50
176
     1
 62
   256
176
     0
 40
1.0
176
     0
 90
        2
176
     1
  1
strokes_ogs.tif
176
     1
290
     0
176
     1
 40
1.0
176
     1
 40
1.0
176
     1
  0
VISUALSTYLE
  5
35
102
{ACAD_REACTORS
330
29
102
}
330
29
100
AcDbVisualStyle
  2
Brighten
 70
    12
177
     3
291
     1
 70
    58
 90
        2
176
     1
 90
        2
176
     1
 90
        0
176
     1
 90
        0
176
     1
 40
0.6
176
     1
 40
30.0
176
     1
 62
     7
420
 16777215
176
     1
 90
        1
176
     1
 90
        4
176
     1
 62
     7
176
     1
 62
   257
176
     1
 90
        1
176
     1
 90
        1
176
     1
 40
1.0
176
     1
 90
        8
176
     1
 62
     7
176
     1
 40
1.0
176
     1
 90
        1
176
     1
 90
        6
176
     1
 90
        2
176
     1
 62
     7
176
     1
 90
        5
176
     1
 90
        0
176
     1
 90
        0
176
     1
290
     0
176
     1
 90
        1
176
     1
 40
50.0
176
     1
 90
        0
176
     1
290
     0
176
     1
290
     1
176
     1
290
     1
176
     1
290
     0
176
     1
290
     0
176
     1
290
     0
176
     1
290
     0
176
     1
290
     0
176
     1
290
     0
176
     1
 90
       50
176
     1
 40
0.0
176
     1
 40
1.0
176
     1
 90
        0
176
     1
 62
    18
420
        0
176
     1
 90
       50
176
     1
 90
        3
176
     1
 62
     5
420
      255
176
     1
290
     0
176
     1
 90
       50
176
     1
 90
       50
176
     1
 90
       50
176
     1
290
     0
176
     1
 90
       50
176
     1
 62
   256
176
     0
 40
1.0
176
     0
 90
        2
176
     1
  1
strokes_ogs.tif
176
     1
290
     0
176
     1
 40
1.0
176
     1
 40
1.0
176
     1
  0
VISUALSTYLE
  5
39
102
{ACAD_REACTORS
330
29
102
}
330
29
100
AcDbVisualStyle
  2
ColorChange
 70
    16
177
     3
291
     1
 70
    58
 90
        2
176
     1
 90
        2
176
     1
 90
        3
176
     1
 90
        0
176
     1
 40
0.6
176
     1
 40
30.0
176
     1
 62
     8
420
  8421504
176
     1
 90
        1
176
     1
 90
        4
176
     1
 62
     7
176
     1
 62
   257
176
     1
 90
        1
176
     1
 90
        1
176
     1
 40
1.0
176
     1
 90
        8
176
     1
 62
     8
420
  8421504
176
     1
 40
1.0
176
     1
 90
        1
176
     1
 90
        6
176
     1
 90
        2
176
     1
 62
     7
176
     1
 90
        5
176
     1
 90
        0
176
     1
 90
        0
176
     1
290
     0
176
     1
 90
        1
176
     1
 40
0.0
176
     1
 90
        0
176
     1
290
     0
176
     1
290
     1
176
     1
290
     1
176
     1
290
     0
176
     1
290
     0
176
     1
290
     0
176
     1
290
     0
176
     1
290
     0
176
     1
290
     0
176
     1
 90
       50
176
     1
 40
0.0
176
     1
 40
1.0
176
     1
 90
        0
176
     1
 62
    18
420
        0
176
     1
 90
       50
176
     1
 90
        3
176
     1
 62
     5
420
      255
176
     1
290
     0
176
     1
 90
       50
176
     1
 90
       50
176
     1
 90
       50
176
     1
290
     0
176
     1
 90
       50
176
     1
 62
   256
176
     0
 40
1.0
176
     0
 90
        2
176
     1
  1
strokes_ogs.tif
176
     1
290
     0
176
     1
 40
1.0
176
     1
 40
1.0
176
     1
  0
VISUALSTYLE
  5
32
102
{ACAD_REACTORS
330
29
102
}
330
29
100
AcDbVisualStyle
  2
Conceptual
 70
     9
177
     3
291
     0
 70
    58
 90
        3
176
     1
 90
        2
176
     1
 90
        0
176
     1
 90
        0
176
     1
 40
0.6
176
     1
 40
30.0
176
     1
 62
     7
420
 16777215
176
     1
 90
        2
176
     1
 90
        2
176
     1
 62
     7
176
     1
 62
   257
176
     1
 90
        1
176
     1
 90
        1
176
     1
 40
179.0
176
     1
 90
        8
176
     1
 62
     7
176
     1
 40
1.0
176
     1
 90
        1
176
     1
 90
        6
176
     1
 90
        2
176
     1
 62
     7
176
     1
 90
        3
176
     1
 90
        0
176
     1
 90
        0
176
     1
290
     0
176
     1
 90
        1
176
     1
 40
0.0
176
     1
 90
        0
176
     1
290
     0
176
     1
290
     1
176
     1
290
     1
176
     1
290
     0
176
     1
290
     0
176
     1
290
     0
176
     1
290
     0
176
     1
290
     0
176
     1
290
     0
176
     1
 90
       50
176
     1
 40
0.0
176
     1
 40
1.0
176
     1
 90
        0
176
     1
 62
    18
420
        0
176
     1
 90
       50
176
     1
 90
        3
176
     1
 62
     5
420
      255
176
     1
290
     0
176
     1
 90
       50
176
     1
 90
       50
176
     1
 90
       50
176
     1
290
     0
176
     1
 90
       50
176
     1
 62
   256
176
     0
 40
1.0
176
     0
 90
        2
176
     1
  1
strokes_ogs.tif
176
     1
290
     0
176
     1
 40
1.0
176
     1
 40
1.0
176
     1
  0
VISUALSTYLE
  5
34
102
{ACAD_REACTORS
330
29
102
}
330
29
100
AcDbVisualStyle
  2
Dim
 70
    11
177
     3
291
     1
 70
    58
 90
        2
176
     1
 90
        2
176
     1
 90
        0
176
     1
 90
        0
176
     1
 40
0.6
176
     1
 40
30.0
176
     1
 62
     7
420
 16777215
176
     1
 90
        1
176
     1
 90
        4
176
     1
 62
     7
176
     1
 62
   257
176
     1
 90
        1
176
     1
 90
        1
176
     1
 40
1.0
176
     1
 90
        8
176
     1
 62
     7
176
     1
 40
1.0
176
     1
 90
        1
176
     1
 90
        6
176
     1
 90
        2
176
     1
 62
     7
176
     1
 90
        5
176
     1
 90
        0
176
     1
 90
        0
176
     1
290
     0
176
     1
 90
        1
176
     1
 40
-50.0
176
     1
 90
        0
176
     1
290
     0
176
     1
290
     1
176
     1
290
     1
176
     1
290
     0
176
     1
290
     0
176
     1
290
     0
176
     1
290
     0
176
     1
290
     0
176
     1
290
     0
176
     1
 90
       50
176
     1
 40
0.0
176
     1
 40
1.0
176
     1
 90
        0
176
     1
 62
    18
420
        0
176
     1
 90
       50
176
     1
 90
        3
176
     1
 62
     5
420
      255
176
     1
290
     0
176
     1
 90
       50
176
     1
 90
       50
176
     1
 90
       50
176
     1
290
     0
176
     1
 90
       50
176
     1
 62
   256
176
     0
 40
1.0
176
     0
 90
        2
176
     1
  1
strokes_ogs.tif
176
     1
290
     0
176
     1
 40
1.0
176
     1
 40
1.0
176
     1
  0
VISUALSTYLE
  5
41
102
{ACAD_REACTORS
330
29
102
}
330
29
100
AcDbVisualStyle
  2
EdgeColorOff
 70
    22
177
     3
291
     1
 70
    58
 90
        2
176
     0
 90
        2
176
     0
 90
        0
176
     0
 90
        0
176
     0
 40
0.6
176
     0
 40
30.0
176
     0
 62
     7
420
 16777215
176
     0
 90
        1
176
     0
 90
        4
176
     0
 62
     7
176
     0
 62
   257
176
     0
 90
        1
176
     0
 90
        1
176
     0
 40
1.0
176
     0
 90
        8
176
     2
 62
     7
176
     0
 40
1.0
176
     0
 90
        1
176
     0
 90
        6
176
     0
 90
        2
176
     0
 62
     7
176
     0
 90
        5
176
     0
 90
        0
176
     0
 90
        0
176
     0
290
     0
176
     0
 90
        1
176
     0
 40
0.0
176
     0
 90
        0
176
     0
290
     0
176
     0
290
     1
176
     0
290
     1
176
     0
290
     0
176
     0
290
     0
176
     0
290
     0
176
     0
290
     0
176
     0
290
     0
176
     0
290
     0
176
     0
 90
       50
176
     0
 40
0.0
176
     0
 40
1.0
176
     0
 90
        0
176
     0
 62
    18
420
        0
176
     0
 90
       50
176
     0
 90
        3
176
     0
 62
     5
420
      255
176
     0
290
     0
176
     0
 90
       50
176
     0
 90
       50
176
     0
 90
       50
176
     0
290
     0
176
     0
 90
       50
176
     0
 62
   256
176
     0
 40
1.0
176
     0
 90
        2
176
     0
  1
strokes_ogs.tif
176
     0
290
     0
176
     0
 40
1.0
176
     0
 40
1.0
176
     0
  0
VISUALSTYLE
  5
38
102
{ACAD_REACTORS
330
29
102
}
330
29
100
AcDbVisualStyle
  2
Facepattern
 70
    15
177
     3
291
     1
 70
    58
 90
        2
176
     1
 90
        2
176
     1
 90
        0
176
     1
 90
        0
176
     1
 40
0.6
176
     1
 40
30.0
176
     1
 62
     7
420
 16777215
176
     1
 90
        1
176
     1
 90
        4
176
     1
 62
     7
176
     1
 62
   257
176
     1
 90
        1
176
     1
 90
        1
176
     1
 40
1.0
176
     1
 90
        8
176
     1
 62
     7
176
     1
 40
1.0
176
     1
 90
        1
176
     1
 90
        6
176
     1
 90
        2
176
     1
 62
     7
176
     1
 90
        5
176
     1
 90
        0
176
     1
 90
        0
176
     1
290
     0
176
     1
 90
        1
176
     1
 40
0.0
176
     1
 90
        0
176
     1
290
     0
176
     1
290
     1
176
     1
290
     1
176
     1
290
     0
176
     1
290
     0
176
     1
290
     0
176
     1
290
     0
176
     1
290
     0
176
     1
290
     0
176
     1
 90
       50
176
     1
 40
0.0
176
     1
 40
1.0
176
     1
 90
        0
176
     1
 62
    18
420
        0
176
     1
 90
       50
176
     1
 90
        3
176
     1
 62
     5
420
      255
176
     1
290
     0
176
     1
 90
       50
176
     1
 90
       50
176
     1
 90
       50
176
     1
290
     0
176
     1
 90
       50
176
     1
 62
   256
176
     0
 40
1.0
176
     0
 90
        2
176
     1
  1
strokes_ogs.tif
176
     1
290
     0
176
     1
 40
1.0
176
     1
 40
1.0
176
     1
  0
VISUALSTYLE
  5
2A
102
{ACAD_REACTORS
330
29
102
}
330
29
100
AcDbVisualStyle
  2
Flat
 70
     0
177
     3
291
     1
 70
    58
 90
        2
176
     1
 90
        1
176
     1
 90
        1
176
     1
 90
        2
176
     1
 40
0.6
176
     1
 40
30.0
176
     1
 62
     7
420
 16777215
176
     1
 90
        0
176
     1
 90
        0
176
     1
 62
     7
176
     1
 62
   257
176
     1
 90
        1
176
     1
 90
        1
176
     1
 40
1.0
176
     1
 90
        8
176
     1
 62
     7
176
     1
 40
1.0
176
     1
 90
        1
176
     1
 90
        6
176
     1
 90
        2
176
     1
 62
     7
176
     1
 90
        5
176
     1
 90
        0
176
     1
 90
        0
176
     1
290
     0
176
     1
 90
       13
176
     1
 40
0.0
176
     1
 90
        0
176
     1
290
     0
176
     1
290
     1
176
     1
290
     1
176
     1
290
     0
176
     1
290
     0
176
     1
290
     0
176
     1
290
     0
176
     1
290
     0
176
     1
290
     0
176
     1
 90
       50
176
     1
 40
0.0
176
     1
 40
1.0
176
     1
 90
        0
176
     1
 62
    18
420
        0
176
     1
 90
       50
176
     1
 90
        3
176
     1
 62
     5
420
      255
176
     1
290
     0
176
     1
 90
       50
176
     1
 90
       50
176
     1
 90
       50
176
     1
290
     0
176
     1
 90
       50
176
     1
 62
   256
176
     0
 40
1.0
176
     0
 90
        2
176
     1
  1
strokes_ogs.tif
176
     1
290
     0
176
     1
 40
1.0
176
     1
 40
1.0
176
     1
  0
VISUALSTYLE
  5
2B
102
{ACAD_REACTORS
330
29
102
}
330
29
100
AcDbVisualStyle
  2
FlatWithEdges
 70
     1
177
     3
291
     1
 70
    58
 90
        2
176
     1
 90
        1
176
     1
 90
        1
176
     1
 90
        2
176
     1
 40
0.6
176
     1
 40
30.0
176
     1
 62
     7
420
 16777215
176
     1
 90
        1
176
     1
 90
        0
176
     1
 62
     7
176
     1
 62
   257
176
     1
 90
        1
176
     1
 90
        1
176
     1
 40
1.0
176
     1
 90
        0
176
     1
 62
   257
176
     1
 40
1.0
176
     1
 90
        1
176
     1
 90
        6
176
     1
 90
        2
176
     1
 62
     7
176
     1
 90
        5
176
     1
 90
        0
176
     1
 90
        0
176
     1
290
     0
176
     1
 90
       13
176
     1
 40
0.0
176
     1
 90
        0
176
     1
290
     0
176
     1
290
     1
176
     1
290
     1
176
     1
290
     0
176
     1
290
     0
176
     1
290
     0
176
     1
290
     0
176
     1
290
     0
176
     1
290
     0
176
     1
 90
       50
176
     1
 40
0.0
176
     1
 40
1.0
176
     1
 90
        0
176
     1
 62
    18
420
        0
176
     1
 90
       50
176
     1
 90
        3
176
     1
 62
     5
420
      255
176
     1
290
     0
176
     1
 90
       50
176
     1
 90
       50
176
     1
 90
       50
176
     1
290
     0
176
     1
 90
       50
176
     1
 62
   256
176
     0
 40
1.0
176
     0
 90
        2
176
     1
  1
strokes_ogs.tif
176
     1
290
     0
176
     1
 40
1.0
176
     1
 40
1.0
176
     1
  0
VISUALSTYLE
  5
2C
102
{ACAD_REACTORS
330
29
102
}
330
29
100
AcDbVisualStyle
  2
Gouraud
 70
     2
177
     3
291
     1
 70
    58
 90
        2
176
     1
 90
        2
176
     1
 90
        1
176
     1
 90
        2
176
     1
 40
0.6
176
     1
 40
30.0
176
     1
 62
     7
420
 16777215
176
     1
 90
        0
176
     1
 90
        0
176
     1
 62
     7
176
     1
 62
   257
176
     1
 90
        1
176
     1
 90
        1
176
     1
 40
1.0
176
     1
 90
        0
176
     1
 62
     7
176
     1
 40
1.0
176
     1
 90
        1
176
     1
 90
        6
176
     1
 90
        2
176
     1
 62
     7
176
     1
 90
        5
176
     1
 90
        0
176
     1
 90
        0
176
     1
290
     0
176
     1
 90
       13
176
     1
 40
0.0
176
     1
 90
        0
176
     1
290
     0
176
     1
290
     1
176
     1
290
     1
176
     1
290
     0
176
     1
290
     0
176
     1
290
     0
176
     1
290
     0
176
     1
290
     0
176
     1
290
     0
176
     1
 90
       50
176
     1
 40
0.0
176
     1
 40
1.0
176
     1
 90
        0
176
     1
 62
    18
420
        0
176
     1
 90
       50
176
     1
 90
        3
176
     1
 62
     5
420
      255
176
     1
290
     0
176
     1
 90
       50
176
     1
 90
       50
176
     1
 90
       50
176
     1
290
     0
176
     1
 90
       50
176
     1
 62
   256
176
     0
 40
1.0
176
     0
 90
        2
176
     1
  1
strokes_ogs.tif
176
     1
290
     0
176
     1
 40
1.0
176
     1
 40
1.0
176
     1
  0
VISUALSTYLE
  5
2D
102
{ACAD_REACTORS
330
29
102
}
330
29
100
AcDbVisualStyle
  2
GouraudWithEdges
 70
     3
177
     3
291
     1
 70
    58
 90
        2
176
     1
 90
        2
176
     1
 90
        1
176
     1
 90
        2
176
     1
 40
0.6
176
     1
 40
30.0
176
     1
 62
     7
420
 16777215
176
     1
 90
        1
176
     1
 90
        0
176
     1
 62
     7
176
     1
 62
   257
176
     1
 90
        1
176
     1
 90
        1
176
     1
 40
1.0
176
     1
 90
        0
176
     1
 62
   257
176
     1
 40
1.0
176
     1
 90
        1
176
     1
 90
        6
176
     1
 90
        2
176
     1
 62
     7
176
     1
 90
        5
176
     1
 90
        0
176
     1
 90
        0
176
     1
290
     0
176
     1
 90
       13
176
     1
 40
0.0
176
     1
 90
        0
176
     1
290
     0
176
     1
290
     1
176
     1
290
     1
176
     1
290
     0
176
     1
290
     0
176
     1
290
     0
176
     1
290
     0
176
     1
290
     0
176
     1
290
     0
176
     1
 90
       50
176
     1
 40
0.0
176
     1
 40
1.0
176
     1
 90
        0
176
     1
 62
    18
420
        0
176
     1
 90
       50
176
     1
 90
        3
176
     1
 62
     5
420
      255
176
     1
290
     0
176
     1
 90
       50
176
     1
 90
       50
176
     1
 90
       50
176
     1
290
     0
176
     1
 90
       50
176
     1
 62
   256
176
     0
 40
1.0
176
     0
 90
        2
176
     1
  1
strokes_ogs.tif
176
     1
290
     0
176
     1
 40
1.0
176
     1
 40
1.0
176
     1
  0
VISUALSTYLE
  5
31
102
{ACAD_REACTORS
330
29
102
}
330
29
100
AcDbVisualStyle
  2
Hidden
 70
     6
177
     3
291
     0
 70
    58
 90
        1
176
     1
 90
        2
176
     1
 90
        2
176
     1
 90
        0
176
     1
 40
0.6
176
     1
 40
30.0
176
     1
 62
     7
420
 16777215
176
     1
 90
        2
176
     1
 90
        2
176
     1
 62
     7
176
     1
 62
   257
176
     1
 90
        2
176
     1
 90
        1
176
     1
 40
40.0
176
     1
 90
        0
176
     1
 62
   257
176
     1
 40
1.0
176
     1
 90
        1
176
     1
 90
        6
176
     1
 90
        2
176
     1
 62
     7
176
     1
 90
        3
176
     1
 90
        0
176
     1
 90
        0
176
     1
290
     0
176
     1
 90
        1
176
     1
 40
0.0
176
     1
 90
        0
176
     1
290
     0
176
     1
290
     1
176
     1
290
     1
176
     1
290
     0
176
     1
290
     0
176
     1
290
     0
176
     1
290
     0
176
     1
290
     0
176
     1
290
     0
176
     1
 90
       50
176
     1
 40
0.0
176
     1
 40
1.0
176
     1
 90
        0
176
     1
 62
    18
420
        0
176
     1
 90
       50
176
     1
 90
        3
176
     1
 62
     5
420
      255
176
     1
290
     0
176
     1
 90
       50
176
     1
 90
       50
176
     1
 90
       50
176
     1
290
     0
176
     1
 90
       50
176
     1
 62
   256
176
     0
 40
1.0
176
     0
 90
        2
176
     1
  1
strokes_ogs.tif
176
     1
290
     0
176
     1
 40
1.0
176
     1
 40
1.0
176
     1
  0
VISUALSTYLE
  5
3F
102
{ACAD_REACTORS
330
29
102
}
330
29
100
AcDbVisualStyle
  2
JitterOff
 70
    20
177
     3
291
     1
 70
    58
 90
        2
176
     0
 90
        2
176
     0
 90
        0
176
     0
 90
        0
176
     0
 40
0.6
176
     0
 40
30.0
176
     0
 62
     7
420
 16777215
176
     0
 90
        1
176
     0
 90
        4
176
     0
 62
     7
176
     0
 62
   257
176
     0
 90
        1
176
     0
 90
        1
176
     0
 40
1.0
176
     0
 90
       10
176
     2
 62
     7
176
     0
 40
1.0
176
     0
 90
        1
176
     0
 90
        6
176
     0
 90
        2
176
     0
 62
     7
176
     0
 90
        5
176
     0
 90
        0
176
     0
 90
        0
176
     0
290
     0
176
     0
 90
        1
176
     0
 40
0.0
176
     0
 90
        0
176
     0
290
     0
176
     0
290
     1
176
     0
290
     1
176
     0
290
     0
176
     0
290
     0
176
     0
290
     0
176
     0
290
     0
176
     0
290
     0
176
     0
290
     0
176
     0
 90
       50
176
     0
 40
0.0
176
     0
 40
1.0
176
     0
 90
        0
176
     0
 62
    18
420
        0
176
     0
 90
       50
176
     0
 90
        3
176
     0
 62
     5
420
      255
176
     0
290
     0
176
     0
 90
       50
176
     0
 90
       50
176
     0
 90
       50
176
     0
290
     0
176
     0
 90
       50
176
     0
 62
   256
176
     0
 40
1.0
176
     0
 90
        2
176
     0
  1
strokes_ogs.tif
176
     0
290
     0
176
     0
 40
1.0
176
     0
 40
1.0
176
     0
  0
VISUALSTYLE
  5
37
102
{ACAD_REACTORS
330
29
102
}
330
29
100
AcDbVisualStyle
  2
Linepattern
 70
    14
177
     3
291
     1
 70
    58
 90
        2
176
     1
 90
        2
176
     1
 90
        0
176
     1
 90
        0
176
     1
 40
0.6
176
     1
 40
30.0
176
     1
 62
     7
420
 16777215
176
     1
 90
        1
176
     1
 90
        4
176
     1
 62
     7
176
     1
 62
   257
176
     1
 90
        7
176
     1
 90
        7
176
     1
 40
1.0
176
     1
 90
        8
176
     1
 62
     7
176
     1
 40
1.0
176
     1
 90
        1
176
     1
 90
        6
176
     1
 90
        2
176
     1
 62
     7
176
     1
 90
        5
176
     1
 90
        0
176
     1
 90
        0
176
     1
290
     0
176
     1
 90
        1
176
     1
 40
0.0
176
     1
 90
        0
176
     1
290
     0
176
     1
290
     1
176
     1
290
     1
176
     1
290
     0
176
     1
290
     0
176
     1
290
     0
176
     1
290
     0
176
     1
290
     0
176
     1
290
     0
176
     1
 90
       50
176
     1
 40
0.0
176
     1
 40
1.0
176
     1
 90
        0
176
     1
 62
    18
420
        0
176
     1
 90
       50
176
     1
 90
        3
176
     1
 62
     5
420
      255
176
     1
290
     0
176
     1
 90
       50
176
     1
 90
       50
176
     1
 90
       50
176
     1
290
     0
176
     1
 90
       50
176
     1
 62
   256
176
     0
 40
1.0
176
     0
 90
        2
176
     1
  1
strokes_ogs.tif
176
     1
290
     0
176
     1
 40
1.0
176
     1
 40
1.0
176
     1
  0
VISUALSTYLE
  5
40
102
{ACAD_REACTORS
330
29
102
}
330
29
100
AcDbVisualStyle
  2
OverhangOff
 70
    21
177
     3
291
     1
 70
    58
 90
        2
176
     0
 90
        2
176
     0
 90
        0
176
     0
 90
        0
176
     0
 40
0.6
176
     0
 40
30.0
176
     0
 62
     7
420
 16777215
176
     0
 90
        1
176
     0
 90
        4
176
     0
 62
     7
176
     0
 62
   257
176
     0
 90
        1
176
     0
 90
        1
176
     0
 40
1.0
176
     0
 90
        9
176
     2
 62
     7
176
     0
 40
1.0
176
     0
 90
        1
176
     0
 90
        6
176
     0
 90
        2
176
     0
 62
     7
176
     0
 90
        5
176
     0
 90
        0
176
     0
 90
        0
176
     0
290
     0
176
     0
 90
        1
176
     0
 40
0.0
176
     0
 90
        0
176
     0
290
     0
176
     0
290
     1
176
     0
290
     1
176
     0
290
     0
176
     0
290
     0
176
     0
290
     0
176
     0
290
     0
176
     0
290
     0
176
     0
290
     0
176
     0
 90
       50
176
     0
 40
0.0
176
     0
 40
1.0
176
     0
 90
        0
176
     0
 62
    18
420
        0
176
     0
 90
       50
176
     0
 90
        3
176
     0
 62
     5
420
      255
176
     0
290
     0
176
     0
 90
       50
176
     0
 90
       50
176
     0
 90
       50
176
     0
290
     0
176
     0
 90
       50
176
     0
 62
   256
176
     0
 40
1.0
176
     0
 90
        2
176
     0
  1
strokes_ogs.tif
176
     0
290
     0
176
     0
 40
1.0
176
     0
 40
1.0
176
     0
  0
VISUALSTYLE
  5
33
102
{ACAD_REACTORS
330
29
102
}
330
29
100
AcDbVisualStyle
  2
Realistic
 70
     8
177
     3
291
     0
 70
    58
 90
        2
176
     1
 90
        3
176
     1
 90
        0
176
     1
 90
        2
176
     1
 40
0.6
176
     1
 40
30.0
176
     1
 62
     7
420
 16777215
176
     1
 90
        0
176
     1
 90
        0
176
     1
 62
     7
176
     1
 62
   257
176
     1
 90
        1
176
     1
 90
        1
176
     1
 40
1.0
176
     1
 90
        8
176
     1
 62
   257
176
     1
 40
1.0
176
     1
 90
        1
176
     1
 90
        6
176
     1
 90
        2
176
     1
 62
     7
176
     1
 90
        3
176
     1
 90
        0
176
     1
 90
        0
176
     1
290
     0
176
     1
 90
       13
176
     1
 40
0.0
176
     1
 90
        0
176
     1
290
     0
176
     1
290
     1
176
     1
290
     1
176
     1
290
     0
176
     1
290
     0
176
     1
290
     0
176
     1
290
     0
176
     1
290
     0
176
     1
290
     0
176
     1
 90
       50
176
     1
 40
0.0
176
     1
 40
1.0
176
     1
 90
        0
176
     1
 62
    18
420
        0
176
     1
 90
       50
176
     1
 90
        3
176
     1
 62
     5
420
      255
176
     1
290
     0
176
     1
 90
       50
176
     1
 90
       50
176
     1
 90
       50
176
     1
290
     0
176
     1
 90
       50
176
     1
 62
   256
176
     0
 40
1.0
176
     0
 90
        2
176
     1
  1
strokes_ogs.tif
176
     1
290
     0
176
     1
 40
1.0
176
     1
 40
1.0
176
     1
  0
VISUALSTYLE
  5
3E
102
{ACAD_REACTORS
330
29
102
}
330
29
100
AcDbVisualStyle
  2
Shaded
 70
    27
177
     3
291
     0
 70
    58
 90
        2
176
     1
 90
        2
176
     1
 90
        1
176
     1
 90
        2
176
     1
 40
0.6
176
     1
 40
30.0
176
     1
 62
     7
420
 16777215
176
     1
 90
        0
176
     1
 90
        4
176
     1
 62
     7
176
     1
 62
   257
176
     1
 90
        1
176
     1
 90
        1
176
     1
 40
1.0
176
     1
 90
        8
176
     1
 62
   257
176
     1
 40
1.0
176
     1
 90
        1
176
     1
 90
        6
176
     1
 90
        2
176
     1
 62
     8
420
  7895160
176
     1
 90
        3
176
     1
 90
        0
176
     1
 90
        0
176
     1
290
     0
176
     1
 90
        5
176
     1
 40
0.0
176
     1
 90
        0
176
     1
290
     0
176
     1
290
     1
176
     1
290
     1
176
     1
290
     0
176
     1
290
     0
176
     1
290
     0
176
     1
290
     0
176
     1
290
     0
176
     1
290
     0
176
     1
 90
       50
176
     1
 40
0.0
176
     1
 40
1.0
176
     1
 90
        0
176
     1
 62
    18
420
        0
176
     1
 90
       50
176
     1
 90
        3
176
     1
 62
     5
420
      255
176
     1
290
     0
176
     1
 90
       50
176
     1
 90
       50
176
     1
 90
       50
176
     1
290
     0
176
     1
 90
       50
176
     1
 62
   256
176
     0
 40
1.0
176
     0
 90
        2
176
     1
  1
strokes_ogs.tif
176
     1
290
     0
176
     1
 40
1.0
176
     1
 40
1.0
176
     1
  0
VISUALSTYLE
  5
3D
102
{ACAD_REACTORS
330
29
102
}
330
29
100
AcDbVisualStyle
  2
Shaded with edges
 70
    26
177
     3
291
     0
 70
    58
 90
        2
176
     1
 90
        2
176
     1
 90
        1
176
     1
 90
        2
176
     1
 40
0.6
176
     1
 40
30.0
176
     1
 62
     7
420
 16777215
176
     1
 90
        1
176
     1
 90
        2
176
     1
 62
     7
176
     1
 62
   257
176
     1
 90
        2
176
     1
 90
        1
176
     1
 40
1.0
176
     1
 90
        8
176
     1
 62
   257
176
     1
 40
1.0
176
     1
 90
        1
176
     1
 90
        6
176
     1
 90
        2
176
     1
 62
     7
176
     1
 90
        3
176
     1
 90
        0
176
     1
 90
        0
176
     1
290
     0
176
     1
 90
        5
176
     1
 40
0.0
176
     1
 90
        0
176
     1
290
     0
176
     1
290
     1
176
     1
290
     1
176
     1
290
     0
176
     1
290
     0
176
     1
290
     0
176
     1
290
     0
176
     1
290
     0
176
     1
290
     0
176
     1
 90
       50
176
     1
 40
0.0
176
     1
 40
1.0
176
     1
 90
        0
176
     1
 62
    18
420
        0
176
     1
 90
       50
176
     1
 90
        3
176
     1
 62
     5
420
      255
176
     1
290
     0
176
     1
 90
       50
176
     1
 90
       50
176
     1
 90
       50
176
     1
290
     0
176
     1
 90
       50
176
     1
 62
   256
176
     0
 40
1.0
176
     0
 90
        2
176
     1
  1
strokes_ogs.tif
176
     1
290
     0
176
     1
 40
1.0
176
     1
 40
1.0
176
     1
  0
VISUALSTYLE
  5
3A
102
{ACAD_REACTORS
330
29
102
}
330
29
100
AcDbVisualStyle
  2
Shades of Gray
 70
    23
177
     3
291
     0
 70
    58
 90
        2
176
     1
 90
        2
176
     1
 90
        3
176
     1
 90
        0
176
     1
 40
0.6
176
     1
 40
30.0
176
     1
 62
     7
420
 16777215
176
     1
 90
        2
176
     1
 90
        2
176
     1
 62
     7
176
     1
 62
     7
176
     1
 90
        1
176
     1
 90
        1
176
     1
 40
40.0
176
     1
 90
        8
176
     1
 62
     7
176
     1
 40
1.0
176
     1
 90
        1
176
     1
 90
        6
176
     1
 90
        2
176
     1
 62
     7
176
     1
 90
        3
176
     1
 90
        0
176
     1
 90
        0
176
     1
290
     0
176
     1
 90
        1
176
     1
 40
0.0
176
     1
 90
        0
176
     1
290
     0
176
     1
290
     1
176
     1
290
     1
176
     1
290
     0
176
     1
290
     0
176
     1
290
     0
176
     1
290
     0
176
     1
290
     0
176
     1
290
     0
176
     1
 90
       50
176
     1
 40
0.0
176
     1
 40
1.0
176
     1
 90
        0
176
     1
 62
    18
420
        0
176
     1
 90
       50
176
     1
 90
        3
176
     1
 62
     5
420
      255
176
     1
290
     0
176
     1
 90
       50
176
     1
 90
       50
176
     1
 90
       50
176
     1
290
     0
176
     1
 90
       50
176
     1
 62
   256
176
     0
 40
1.0
176
     0
 90
        2
176
     1
  1
strokes_ogs.tif
176
     1
290
     0
176
     1
 40
1.0
176
     1
 40
1.0
176
     1
  0
VISUALSTYLE
  5
3B
102
{ACAD_REACTORS
330
29
102
}
330
29
100
AcDbVisualStyle
  2
Sketchy
 70
    24
177
     3
291
     0
 70
    58
 90
        1
176
     1
 90
        2
176
     1
 90
        2
176
     1
 90
        0
176
     1
 40
0.6
176
     1
 40
30.0
176
     1
 62
     7
420
 16777215
176
     1
 90
        2
176
     1
 90
        2
176
     1
 62
     7
176
     1
 62
     7
176
     1
 90
        1
176
     1
 90
        1
176
     1
 40
40.0
176
     1
 90
       11
176
     1
 62
     7
176
     1
 40
1.0
176
     1
 90
        1
176
     1
 90
        6
176
     1
 90
        2
176
     1
 62
     7
176
     1
 90
        6
176
     1
 90
        0
176
     1
 90
        0
176
     1
290
     0
176
     1
 90
        1
176
     1
 40
0.0
176
     1
 90
        0
176
     1
290
     0
176
     1
290
     1
176
     1
290
     1
176
     1
290
     0
176
     1
290
     0
176
     1
290
     0
176
     1
290
     0
176
     1
290
     0
176
     1
290
     0
176
     1
 90
       50
176
     1
 40
0.0
176
     1
 40
1.0
176
     1
 90
        0
176
     1
 62
    18
420
        0
176
     1
 90
       50
176
     1
 90
        3
176
     1
 62
     5
420
      255
176
     1
290
     0
176
     1
 90
       50
176
     1
 90
       50
176
     1
 90
       50
176
     1
290
     0
176
     1
 90
       50
176
     1
 62
   256
176
     0
 40
1.0
176
     0
 90
        2
176
     1
  1
strokes_ogs.tif
176
     1
290
     0
176
     1
 40
1.0
176
     1
 40
1.0
176
     1
  0
VISUALSTYLE
  5
36
102
{ACAD_REACTORS
330
29
102
}
330
29
100
AcDbVisualStyle
  2
Thicken
 70
    13
177
     3
291
     1
 70
    58
 90
        2
176
     1
 90
        2
176
     1
 90
        0
176
     1
 90
        0
176
     1
 40
0.6
176
     1
 40
30.0
176
     1
 62
     7
420
 16777215
176
     1
 90
        1
176
     1
 90
        4
176
     1
 62
     7
176
     1
 62
   257
176
     1
 90
        1
176
     1
 90
        1
176
     1
 40
1.0
176
     1
 90
       12
176
     1
 62
     7
176
     1
 40
1.0
176
     1
 90
        1
176
     1
 90
        6
176
     1
 90
        2
176
     1
 62
     7
176
     1
 90
        5
176
     1
 90
        0
176
     1
 90
        0
176
     1
290
     0
176
     1
 90
        1
176
     1
 40
0.0
176
     1
 90
        0
176
     1
290
     0
176
     1
290
     1
176
     1
290
     1
176
     1
290
     0
176
     1
290
     0
176
     1
290
     0
176
     1
290
     0
176
     1
290
     0
176
     1
290
     0
176
     1
 90
       50
176
     1
 40
0.0
176
     1
 40
1.0
176
     1
 90
        0
176
     1
 62
    18
420
        0
176
     1
 90
       50
176
     1
 90
        3
176
     1
 62
     5
420
      255
176
     1
290
     0
176
     1
 90
       50
176
     1
 90
       50
176
     1
 90
       50
176
     1
290
     0
176
     1
 90
       50
176
     1
 62
   256
176
     0
 40
1.0
176
     0
 90
        2
176
     1
  1
strokes_ogs.tif
176
     1
290
     0
176
     1
 40
1.0
176
     1
 40
1.0
176
     1
  0
VISUALSTYLE
  5
30
102
{ACAD_REACTORS
330
29
102
}
330
29
100
AcDbVisualStyle
  2
Wireframe
 70
     5
177
     3
291
     0
 70
    58
 90
        0
176
     1
 90
        2
176
     1
 90
        0
176
     1
 90
        0
176
     1
 40
0.6
176
     1
 40
30.0
176
     1
 62
     7
420
 16777215
176
     1
 90
        1
176
     1
 90
        4
176
     1
 62
     7
176
     1
 62
   257
176
     1
 90
        1
176
     1
 90
        1
176
     1
 40
1.0
176
     1
 90
        0
176
     1
 62
   257
176
     1
 40
1.0
176
     1
 90
        1
176
     1
 90
        6
176
     1
 90
        2
176
     1
 62
     7
176
     1
 90
        3
176
     1
 90
        0
176
     1
 90
        0
176
     1
290
     0
176
     1
 90
        1
176
     1
 40
0.0
176
     1
 90
        0
176
     1
290
     0
176
     1
290
     1
176
     1
290
     1
176
     1
290
     0
176
     1
290
     0
176
     1
290
     0
176
     1
290
     0
176
     1
290
     0
176
     1
290
     0
176
     1
 90
       50
176
     1
 40
0.0
176
     1
 40
1.0
176
     1
 90
        0
176
     1
 62
    18
420
        0
176
     1
 90
       50
176
     1
 90
        3
176
     1
 62
     5
420
      255
176
     1
290
     0
176
     1
 90
       50
176
     1
 90
       50
176
     1
 90
       50
176
     1
290
     0
176
     1
 90
       50
176
     1
 62
   256
176
     0
 40
1.0
176
     0
 90
        2
176
     1
  1
strokes_ogs.tif
176
     1
290
     0
176
     1
 40
1.0
176
     1
 40
1.0
176
     1
  0
VISUALSTYLE
  5
3C
102
{ACAD_REACTORS
330
29
102
}
330
29
100
AcDbVisualStyle
  2
X-Ray
 70
    25
177
     3
291
     0
 70
    58
 90
        2
176
     1
 90
        2
176
     1
 90
        1
176
     1
 90
        1
176
     1
 40
0.5
176
     1
 40
30.0
176
     1
 62
     7
420
 16777215
176
     1
 90
        1
176
     1
 90
        0
176
     1
 62
     7
176
     1
 62
   257
176
     1
 90
        1
176
     1
 90
        1
176
     1
 40
1.0
176
     1
 90
        8
176
     1
 62
     7
176
     1
 40
1.0
176
     1
 90
        1
176
     1
 90
        6
176
     1
 90
        2
176
     1
 62
     7
176
     1
 90
        3
176
     1
 90
        0
176
     1
 90
        0
176
     1
290
     0
176
     1
 90
       13
176
     1
 40
0.0
176
     1
 90
        0
176
     1
290
     0
176
     1
290
     1
176
     1
290
     1
176
     1
290
     0
176
     1
290
     0
176
     1
290
     0
176
     1
290
     0
176
     1
290
     0
176
     1
290
     0
176
     1
 90
       50
176
     1
 40
0.0
176
     1
 40
1.0
176
     1
 90
        0
176
     1
 62
    18
420
        0
176
     1
 90
       50
176
     1
 90
        3
176
     1
 62
     5
420
      255
176
     1
290
     0
176
     1
 90
       50
176
     1
 90
       50
176
     1
 90
       50
176
     1
290
     0
176
     1
 90
       50
176
     1
 62
   256
176
     0
 40
1.0
176
     0
 90
        2
176
     1
  1
strokes_ogs.tif
176
     1
290
     0
176
     1
 40
1.0
176
     1
 40
1.0
176
     1
  0
DICTIONARYVAR
  5
FF
102
{ACAD_REACTORS
330
FA
102
}
330
FA
100
DictionaryVariables
280
     0
  1
1:1
  0
DICTIONARYVAR
  5
FC
102
{ACAD_REACTORS
330
FA
102
}
330
FA
100
DictionaryVariables
280
     0
  1
STANDARD
  0
DICTIONARYVAR
  5
FB
102
{ACAD_REACTORS
330
FA
102
}
330
FA
100
DictionaryVariables
280
     0
  1
STANDARD
  0
DICTIONARYVAR
  5
FD
102
{ACAD_REACTORS
330
FA
102
}
330
FA
100
DictionaryVariables
280
     0
  1
Imperial24
  0
DICTIONARYVAR
  5
FE
102
{ACAD_REACTORS
330
FA
102
}
330
FA
100
DictionaryVariables
280
     0
  1
Imperial24
  0
DICTIONARY
  5
1A
330
19
100
AcDbDictionary
280
     1
281
     1
  3
BUMPTILE
360
1C
  3
DIFFUSETILE
360
1B
  3
OPACITYTILE
360
1F
  3
REFLECTIONTILE
360
1E
  3
REFRACTIONTILE
360
20
  3
SPECULARTILE
360
1D
  0
DICTIONARY
  5
12
330
11
100
AcDbDictionary
280
     1
281
     1
  3
BUMPTILE
360
14
  3
DIFFUSETILE
360
13
  3
OPACITYTILE
360
17
  3
REFLECTIONTILE
360
16
  3
REFRACTIONTILE
360
18
  3
SPECULARTILE
360
15
  0
DICTIONARY
  5
22
330
21
100
AcDbDictionary
280
     1
281
     1
  3
BUMPTILE
360
24
  3
DIFFUSETILE
360
23
  3
OPACITYTILE
360
27
  3
REFLECTIONTILE
360
26
  3
REFRACTIONTILE
360
28
  3
SPECULARTILE
360
25
  0
DICTIONARY
  5
100
330
65
100
AcDbDictionary
280
     1
281
     1
  3
ACAD_ROUNDTRIP_2008_TABLESTYLE_CELLSTYLEMAP
360
101
  0
XRECORD
  5
1C
102
{ACAD_REACTORS
330
1A
102
}
330
1A
100
AcDbXrecord
280
     1
270
     1
271
     1
  0
XRECORD
  5
1B
102
{ACAD_REACTORS
330
1A
102
}
330
1A
100
AcDbXrecord
280
     1
270
     1
271
     1
  0
XRECORD
  5
1F
102
{ACAD_REACTORS
330
1A
102
}
330
1A
100
AcDbXrecord
280
     1
270
     1
271
     1
  0
XRECORD
  5
1E
102
{ACAD_REACTORS
330
1A
102
}
330
1A
100
AcDbXrecord
280
     1
270
     1
271
     1
  0
XRECORD
  5
20
102
{ACAD_REACTORS
330
1A
102
}
330
1A
100
AcDbXrecord
280
     1
270
     1
271
     1
  0
XRECORD
  5
1D
102
{ACAD_REACTORS
330
1A
102
}
330
1A
100
AcDbXrecord
280
     1
270
     1
271
     1
  0
XRECORD
  5
14
102
{ACAD_REACTORS
330
12
102
}
330
12
100
AcDbXrecord
280
     1
270
     1
271
     1
  0
XRECORD
  5
13
102
{ACAD_REACTORS
330
12
102
}
330
12
100
AcDbXrecord
280
     1
270
     1
271
     1
  0
XRECORD
  5
17
102
{ACAD_REACTORS
330
12
102
}
330
12
100
AcDbXrecord
280
     1
270
     1
271
     1
  0
XRECORD
  5
16
102
{ACAD_REACTORS
330
12
102
}
330
12
100
AcDbXrecord
280
     1
270
     1
271
     1
  0
XRECORD
  5
18
102
{ACAD_REACTORS
330
12
102
}
330
12
100
AcDbXrecord
280
     1
270
     1
271
     1
  0
XRECORD
  5
15
102
{ACAD_REACTORS
330
12
102
}
330
12
100
AcDbXrecord
280
     1
270
     1
271
     1
  0
XRECORD
  5
24
102
{ACAD_REACTORS
330
22
102
}
330
22
100
AcDbXrecord
280
     1
270
     1
271
     1
  0
XRECORD
  5
23
102
{ACAD_REACTORS
330
22
102
}
330
22
100
AcDbXrecord
280
     1
270
     1
271
     1
  0
XRECORD
  5
27
102
{ACAD_REACTORS
330
22
102
}
330
22
100
AcDbXrecord
280
     1
270
     1
271
     1
  0
XRECORD
  5
26
102
{ACAD_REACTORS
330
22
102
}
330
22
100
AcDbXrecord
280
     1
270
     1
271
     1
  0
XRECORD
  5
28
102
{ACAD_REACTORS
330
22
102
}
330
22
100
AcDbXrecord
280
     1
270
     1
271
     1
  0
XRECORD
  5
25
102
{ACAD_REACTORS
330
22
102
}
330
22
100
AcDbXrecord
280
     1
270
     1
271
     1
  0
CELLSTYLEMAP
  5
101
102
{ACAD_REACTORS
330
100
102
}
330
100
100
AcDbCellStyleMap
 90
        3
300
CELLSTYLE
  1
TABLEFORMAT_BEGIN
 90
        5
170
     1
 91
        0
 92
    32768
 62
   257
 93
        1
300
CONTENTFORMAT
  1
CONTENTFORMAT_BEGIN
 90
        0
 91
        0
 92
      512
 93
        0
300

 40
0.0
140
1.0
 94
        5
 62
     0
340
55
144
0.25
309
CONTENTFORMAT_END
171
     0
 94
        0
309
TABLEFORMAT_END
  1
CELLSTYLE_BEGIN
 90
        1
 91
        1
300
_TITLE
309
CELLSTYLE_END
300
CELLSTYLE
  1
TABLEFORMAT_BEGIN
 90
        5
170
     1
 91
        0
 92
        0
 62
   257
 93
        1
300
CONTENTFORMAT
  1
CONTENTFORMAT_BEGIN
 90
        0
 91
        0
 92
      512
 93
        0
300

 40
0.0
140
1.0
 94
        5
 62
     0
340
55
144
0.18
309
CONTENTFORMAT_END
171
     0
 94
        0
309
TABLEFORMAT_END
  1
CELLSTYLE_BEGIN
 90
        2
 91
        1
300
_HEADER
309
CELLSTYLE_END
300
CELLSTYLE
  1
TABLEFORMAT_BEGIN
 90
        5
170
     1
 91
        0
 92
        0
 62
   257
 93
        1
300
CONTENTFORMAT
  1
CONTENTFORMAT_BEGIN
 90
        0
 91
        0
 92
      512
 93
        0
300

 40
0.0
140
1.0
 94
        2
 62
     0
340
55
144
0.18
309
CONTENTFORMAT_END
171
     0
 94
        0
309
TABLEFORMAT_END
  1
CELLSTYLE_BEGIN
 90
        3
 91
        2
300
_DATA
309
CELLSTYLE_END
  0
ENDSEC
  0
EOF
